<svg width="960" height="500" xmlns="http://www.w3.org/2000/svg" style="animation-delay: 0s; animation-direction: normal; animation-duration: 0s; animation-fill-mode: none; animation-iteration-count: 1; animation-name: none; animation-play-state: running; animation-timing-function: ease; background-attachment: scroll; background-blend-mode: normal; background-clip: border-box; background-color: rgba(0, 0, 0, 0); background-image: none; background-origin: padding-box; background-position: 0% 0%; background-repeat: repeat; background-size: auto; border-bottom-color: rgb(0, 0, 0); border-bottom-left-radius: 0px; border-bottom-right-radius: 0px; border-bottom-style: none; border-bottom-width: 0px; border-collapse: separate; border-image-outset: 0px; border-image-repeat: stretch; border-image-slice: 100%; border-image-source: none; border-image-width: 1; border-left-color: rgb(0, 0, 0); border-left-style: none; border-left-width: 0px; border-right-color: rgb(0, 0, 0); border-right-style: none; border-right-width: 0px; border-top-color: rgb(0, 0, 0); border-top-left-radius: 0px; border-top-right-radius: 0px; border-top-style: none; border-top-width: 0px; bottom: auto; box-shadow: none; box-sizing: content-box; break-after: auto; break-before: auto; break-inside: auto; caption-side: top; clear: none; clip: auto; color: rgb(0, 0, 0); content: ; cursor: auto; direction: ltr; display: inline; empty-cells: show; float: none; font-family: sans-serif; font-kerning: auto; font-size: 10px; font-stretch: normal; font-style: normal; font-variant: normal; font-variant-ligatures: normal; font-variant-caps: normal; font-variant-numeric: normal; font-weight: normal; height: 500px; image-rendering: auto; isolation: auto; left: auto; letter-spacing: normal; line-height: normal; list-style-image: none; list-style-position: outside; list-style-type: disc; margin-bottom: 0px; margin-left: 0px; margin-right: 0px; margin-top: 0px; max-height: none; max-width: none; min-height: 0px; min-width: 0px; mix-blend-mode: normal; object-fit: fill; object-position: 50% 50%; offset-distance: 0px; offset-path: none; offset-rotate: auto 0deg; offset-rotation: auto 0deg; opacity: 1; orphans: 2; outline-color: rgb(0, 0, 0); outline-offset: 0px; outline-style: none; outline-width: 0px; overflow-anchor: auto; overflow-wrap: normal; overflow-x: hidden; overflow-y: hidden; padding-bottom: 0px; padding-left: 0px; padding-right: 0px; padding-top: 0px; pointer-events: auto; position: static; resize: none; right: auto; speak: normal; table-layout: auto; tab-size: 8; text-align: start; text-align-last: auto; text-decoration: none; text-indent: 0px; text-rendering: auto; text-shadow: none; text-size-adjust: auto; text-overflow: clip; text-transform: none; top: auto; touch-action: auto; transition-delay: 0s; transition-duration: 0s; transition-property: all; transition-timing-function: ease; unicode-bidi: normal; vertical-align: baseline; visibility: visible; white-space: normal; widows: 2; width: 960px; will-change: auto; word-break: normal; word-spacing: 0px; word-wrap: normal; z-index: auto; zoom: 1; -webkit-appearance: none; backface-visibility: visible; -webkit-background-clip: border-box; -webkit-background-origin: padding-box; -webkit-border-horizontal-spacing: 0px; -webkit-border-image: none; -webkit-border-vertical-spacing: 0px; -webkit-box-align: stretch; -webkit-box-decoration-break: slice; -webkit-box-direction: normal; -webkit-box-flex: 0; -webkit-box-flex-group: 1; -webkit-box-lines: single; -webkit-box-ordinal-group: 1; -webkit-box-orient: horizontal; -webkit-box-pack: start; -webkit-box-reflect: none; column-count: auto; column-gap: normal; column-rule-color: rgb(0, 0, 0); column-rule-style: none; column-rule-width: 0px; column-span: none; column-width: auto; align-content: stretch; align-items: stretch; align-self: stretch; flex-basis: auto; flex-grow: 0; flex-shrink: 1; flex-direction: row; flex-wrap: nowrap; justify-content: flex-start; -webkit-font-smoothing: auto; -webkit-highlight: none; hyphens: manual; -webkit-hyphenate-character: auto; -webkit-line-break: auto; -webkit-line-clamp: none; -webkit-locale: auto; -webkit-margin-before-collapse: collapse; -webkit-margin-after-collapse: collapse; -webkit-mask-box-image: none; -webkit-mask-box-image-outset: 0px; -webkit-mask-box-image-repeat: stretch; -webkit-mask-box-image-slice: 0 fill; -webkit-mask-box-image-source: none; -webkit-mask-box-image-width: auto; -webkit-mask-clip: border-box; -webkit-mask-composite: source-over; -webkit-mask-image: none; -webkit-mask-origin: border-box; -webkit-mask-position: 0% 0%; -webkit-mask-repeat: repeat; -webkit-mask-size: auto; order: 0; perspective: none; perspective-origin: 480px 250px; -webkit-print-color-adjust: economy; -webkit-rtl-ordering: logical; shape-outside: none; shape-image-threshold: 0; shape-margin: 0px; -webkit-tap-highlight-color: rgba(0, 0, 0, 0.4); -webkit-text-combine: none; -webkit-text-decorations-in-effect: none; -webkit-text-emphasis-color: rgb(0, 0, 0); -webkit-text-emphasis-position: over; -webkit-text-emphasis-style: none; -webkit-text-fill-color: rgb(0, 0, 0); -webkit-text-orientation: vertical-right; -webkit-text-security: none; -webkit-text-stroke-color: rgb(0, 0, 0); -webkit-text-stroke-width: 0px; transform: none; transform-origin: 480px 250px; transform-style: flat; -webkit-user-drag: auto; -webkit-user-modify: read-only; user-select: text; -webkit-writing-mode: horizontal-tb; -webkit-app-region: no-drag; buffered-rendering: auto; clip-path: none; clip-rule: nonzero; mask: none; filter: none; flood-color: rgb(0, 0, 0); flood-opacity: 1; lighting-color: rgb(255, 255, 255); stop-color: rgb(0, 0, 0); stop-opacity: 1; color-interpolation: sRGB; color-interpolation-filters: linearRGB; color-rendering: auto; fill: rgb(0, 0, 0); fill-opacity: 1; fill-rule: nonzero; marker-end: none; marker-mid: none; marker-start: none; mask-type: luminance; shape-rendering: auto; stroke: none; stroke-dasharray: none; stroke-dashoffset: 0px; stroke-linecap: butt; stroke-linejoin: miter; stroke-miterlimit: 4; stroke-opacity: 1; stroke-width: 1px; alignment-baseline: auto; baseline-shift: 0px; dominant-baseline: auto; text-anchor: start; writing-mode: horizontal-tb; vector-effect: none; paint-order: fill stroke markers; d: none; cx: 0px; cy: 0px; x: 0px; y: 0px; r: 0px; rx: auto; ry: auto;" version="1.1" xmlns:xlink="http://www.w3.org/1999/xlink"><style type="text/css">svg { font-style: normal; font-variant: normal; font-weight: normal; font-stretch: normal; font-size: 10px; line-height: normal; font-family: sans-serif; }
.area { fill: lightgray; clip-path: url("#clip"); }
.axis path, .axis line { fill: none; stroke: rgb(0, 0, 0); shape-rendering: crispEdges; }
.brush .extent { stroke: rgb(255, 255, 255); fill-opacity: 0.125; shape-rendering: crispEdges; clip-path: url("#clip"); }
rect.pane { cursor: move; fill: none; pointer-events: all; }</style><svg xmlns="http://www.w3.org/2000/svg"><defs><clipPath id="clip"><rect width="910" height="390"/></clipPath></defs><g class="focus" transform="translate(40,10)"><path class="area" d="M0,38.99546915540412C0.6800460536916135,39.62704843978215,7.056896866750641,47.07136862526241,7.599676724137931,46.05351818146613S14.004937372815114,13.896268669545773,14.709051724137932,12.787050303992606S21.39020047005274,23.20129500365019,22.30872844827586,24.40363242071023S27.171727623646834,32.46143517028045,29.66325431034483,32.415675947798505S34.82999627621772,24.23767043145721,37.262931034482754,23.857413933315318S43.409951378388925,31.086229111405835,44.61745689655172,29.840645935793734S49.70612618928719,8.215519666071652,52.21713362068966,7.979320760562311S57.71212784877429,27.50761158698331,59.81681034482759,28.410912752197667S65.32342464083729,29.109314171842616,67.17133620689656,30.200596367579312S72.76951812970302,58.01801613117464,74.77101293103449,59.00921658986175S79.76142477901789,58.21822361878883,82.12553879310344,57.667583162297205S88.81076561208319,44.94004936846717,89.72521551724138,46.1567207528173S97.14743826126373,77.26073754780745,97.32489224137932,77.89025287534368S101.77911451790902,97.96869838740164,104.18911637931035,97.92917166866752S110.00785674441173,76.61955617313383,111.78879310344827,75.49393951128842S116.71641202424964,73.49446147424487,119.14331896551722,73.89304108740274S124.90640801536729,80.70946635883654,126.74299568965517,81.80691631491308S133.0868225075302,83.89321781064007,134.09752155172413,85.11695000580877S141.41425717525934,103.8645766056074,141.69719827586206,104.66251016535651S148.22241182926345,126.74696145094401,149.296875,127.98125701893662S155.92314945054267,124.37242778866755,156.65140086206898,123.23897300855829S162.84868336140784,104.42130558142814,164.2510775862069,103.1849513999148S169.13290670076051,100.79212104551449,171.60560344827587,101.01266312976806S177.48074993055926,104.33236197886971,179.2052801724138,105.51330209503158S184.6665760877042,112.18405050551853,186.80495689655172,111.4210200209116S191.62224832243916,100.32349841129006,193.66918103448276,101.1863455059443S199.5654242784692,117.76533684118644,201.2688577586207,118.92460209890407S207.01044815671526,120.1953670958679,208.62338362068965,121.3863609960113S215.90586919195763,140.01822544933916,216.2230603448276,140.84885567130078S221.2600400936035,159.89633988937422,223.57758620689654,160.53285830461218S228.91562366623717,158.62900439850108,231.17726293103445,159.4127328350695S236.72462303834365,183.83261764324448,238.7769396551724,184.78294543623903S245.64984103991517,168.02625649214224,246.13146551724137,167.04217170739267S251.2799178470693,154.000480913235,253.7311422413793,154.3180498005654S260.2161471418271,167.3494536554586,261.08566810344826,168.53735042404057S266.88888442425196,173.45821729523877,268.6853448275862,174.60868218255044S273.8855067278459,178.10765430620938,276.2850215517241,178.27111489757192S281.63641776567954,177.6670084255417,283.1492456896552,176.5015683692832S290.22445066064296,160.2147022275658,290.7489224137931,159.19877628470744S296.83124565147784,148.69721499489208,298.10344827586204,147.4513031018859S303.6323830121919,145.63949364687744,305.703125,144.70510784959146S311.1662491112802,141.79166183276766,313.05765086206895,140.7255160128568S318.1461653248255,136.50556722563556,320.6573275862069,136.2701854935523S326.64246990654163,140.4913174517611,328.2570043103448,139.30081710103394S333.6667131456556,126.55394776567015,335.6115301724138,125.522015257716S341.25234402632145,124.65896303366567,343.21120689655174,123.63668047864306S349.58109180496695,111.3330553645589,350.5657327586207,110.11462649575962S356.2153219124347,106.34559027200423,358.1654094827586,105.27920845757659S363.33924895794826,101.55349506584585,365.76508620689657,101.80304379816442S371.1427916266883,105.40116120426532,372.87446120689657,106.51763931379004S377.9993144209856,111.0691751320023,380.4741379310345,111.27754327537468S385.935895389164,108.9749329998209,387.82866379310343,107.90961545908688S393.1882510858472,102.08332185848947,395.4283405172414,102.83506951167567S400.42317871625943,112.12256776883461,402.78286637931035,112.68210510010456S407.86560797430354,112.25027634953967,410.38254310344826,112.04778685667817S415.89186626263825,110.36177463949653,417.9822198275862,109.44506834992066S424.0776414438711,106.75941865981055,425.3367456896552,105.51330209503158S432.0736906226948,95.71927800095571,432.9364224137931,94.53355535762698S437.8494960086196,85.2958383718385,440.29094827586204,84.94326762963249S445.40459658192646,92.31574938330067,447.890625,92.65828912210048S453.08617477635363,86.91229453503863,455.49030172413796,87.03752468729432S460.90607914615555,91.64890347615676,462.3545258620689,92.82945436239018S467.5575171659805,99.28400746778613,469.95420258620686,98.80513495720874S474.8166421817121,90.1097138907724,477.3087284482759,90.08325911009567S482.4164683109542,90.1587936874052,484.90840517241384,90.1260504201681S490.27529152661543,80.34173010400784,492.26293103448273,79.34012314603261S497.3492597993385,82.60284043417218,499.8626077586207,82.82635634899124S505.0978655539339,80.1418041426346,507.4622844827586,80.69182511714365S512.5695788559495,86.92139187211109,514.8168103448276,86.17918134995936S519.9479102949373,75.73124434173738,522.4164870689655,75.48890523951519S527.2917661798477,75.96880121324895,529.7710129310345,75.78844441002211S534.8441562187526,67.91649985045031,537.3706896551724,67.78646942648032S542.5613366931848,67.70295538459855,544.9703663793103,67.64047554505673S549.9389184954729,65.05166877793803,551.8345905172414,64.06362545018013S557.3350220470021,59.19321574820132,559.4342672413793,60.101653564651706S564.2967160709896,70.27420202967978,566.7887931034483,70.3010881772064S571.8961103885387,70.27776867751616,574.3884698275862,70.27339968245361S579.8461903220923,69.71018675104219,581.7429956896552,68.6473298997018S588.0507767420198,63.0771492577846,589.3426724137931,61.81078883166173S595.9704028784353,54.96403713165853,596.942349137931,53.74840258684125S603.1646563316204,44.39473913967038,604.296875,43.15377764008829S610.1893170564514,38.60015505474585,611.8965517241379,37.44239631336406S617.4710579430774,34.12066891539467,619.2510775862069,32.99461720171943S624.4058977978125,27.5106368012071,626.8507543103448,27.975448243813656S632.1956412596312,35.2914718871056,634.4504310344828,35.88428919955081S640.3974944357258,33.52060208423915,641.3146551724138,32.35023041474658S648.3480940518868,17.911668170435515,648.9143318965517,16.867327576191837S654.0824493299804,5.540040934053479,656.2688577586207,4.722146923285491S662.9187325120419,10.375950363769045,663.8685344827586,11.58637648607834S669.2495800292447,22.676830628157482,671.2230603448276,23.68876582891226S677.7677993407023,20.22548752222436,678.8227370689655,18.976687449173227S685.4601658651453,6.909684461865628,686.4224137931035,5.696278511404591S692.1708471263114,-1.1930796132419912,693.7769396551724,0S699.8772828630428,15.956735088875476,701.3766163793103,17.176935290245126S707.5210111248922,19.148173017036275,708.7311422413793,20.393834953336203S715.9224052704506,42.06867329700584,716.3308189655172,43.00023235100497S722.1377191875921,53.97562793142988,723.9304956896552,55.06234751965302S729.2131701376667,58.12677014127548,731.0398706896552,57.05843627773691S737.2711896873059,42.46834887847297,738.6395474137931,41.2281686868296S744.9909856963906,36.28308177759929,745.9940732758621,37.50532471052935S752.663244475098,66.60106894774555,753.59375,67.8066065135732S758.4570567670122,71.03671027946066,760.948275862069,70.9832320024784S767.7931938677395,65.9356745766721,768.5479525862069,67.09425705766182S776.062278547751,95.95808308398196,776.1476293103448,96.41133872904007S783.388861797511,145.6332950271139,783.5021551724138,146.1524609843938S789.0926025176238,163.4189547034224,791.1018318965517,164.40421329822252S796.5055438346772,161.61185403367412,798.4563577586207,162.639701041707S805.7667040794647,181.30903509957443,806.0560344827586,182.11478139642955S811.5114574251273,204.21206620412786,813.6557112068965,204.96785811098636S820.1613346611814,190.02310553531436,820.5199353448276,189.16527901483178S827.634410690094,171.2887160508193,828.1196120689655,170.30186268055613S832.9820231826749,158.66504966791143,835.4741379310345,158.63997211787944S840.5819923650229,158.63150880186834,843.0738146551724,158.5946636719204S849.7960865763577,142.5223302556043,850.4283405172414,141.43786546876817S856.9401241912645,134.3500178124216,858.0280172413793,133.09607714053365S863.2778972999764,124.49740150002718,865.6276939655172,123.91859969794375S871.1929958256001,130.29853844361293,872.9822198275862,129.17689656507764S879.6709330243659,115.41529123502099,880.5818965517241,114.21504085505168S885.7155182419477,108.53771534364562,887.9364224137931,109.3141772838168S893.0787421703332,119.26054590187753,895.536099137931,119.69232854432101S902.1145508494001,113.1760409379843,903.135775862069,111.98485845951284S909.5822974786944,103.48404802530041,910,102.93323781125353L910,390C908.8559626436781,390,905.5464260057471,390,903.135775862069,390S898.0693247126437,390,895.536099137931,390S890.4287895114943,390,887.9364224137931,390S883.0742636494252,390,880.5818965517241,390S875.4745869252873,390,872.9822198275862,390S868.1200610632184,390,865.6276939655172,390S860.561242816092,390,858.0280172413793,390S852.9207076149426,390,850.4283405172414,390S845.5661817528736,390,843.0738146551724,390S837.9665050287357,390,835.4741379310345,390S830.6119791666666,390,828.1196120689655,390S822.9305854885057,390,820.5199353448276,390S816.0663613505747,390,813.6557112068965,390S808.5892600574713,390,806.0560344827586,390S800.9487248563219,390,798.4563577586207,390S793.5941989942529,390,791.1018318965517,390S785.994522270115,390,783.5021551724138,390S778.6399964080459,390,776.1476293103448,390S771.0811781609195,390,768.5479525862069,390S763.4406429597701,390,760.948275862069,390S756.0861170977012,390,753.59375,390S748.4864403735633,390,745.9940732758621,390S741.1319145114943,390,738.6395474137931,390S733.4913793103449,390,731.0398706896552,390S726.3820043103449,390,723.9304956896552,390S718.8640445402299,390,716.3308189655172,390S711.2235093390805,390,708.7311422413793,390S703.8689834770115,390,701.3766163793103,390S696.2693067528736,390,693.7769396551724,390S688.9147808908046,390,686.4224137931035,390S681.3559626436781,390,678.8227370689655,390S673.7154274425287,390,671.2230603448276,390S666.3609015804598,390,663.8685344827586,390S658.7612248563219,390,656.2688577586207,390S651.4066989942529,390,648.9143318965517,390S643.725305316092,390,641.3146551724138,390S636.8610811781609,390,634.4504310344828,390S629.3839798850574,390,626.8507543103448,390S621.743444683908,390,619.2510775862069,390S614.3889188218391,390,611.8965517241379,390S606.7892420977012,390,604.296875,390S599.4347162356322,390,596.942349137931,390S591.8758979885058,390,589.3426724137931,390S584.2353627873564,390,581.7429956896552,390S576.8808369252873,390,574.3884698275862,390S569.2811602011494,390,566.7887931034483,390S561.9266343390805,390,559.4342672413793,390S554.2452406609195,390,551.8345905172414,390S547.3810165229885,390,544.9703663793103,390S539.9039152298851,390,537.3706896551724,390S532.2633800287357,390,529.7710129310345,390S524.9088541666666,390,522.4164870689655,390S517.3091774425287,390,514.8168103448276,390S509.95465158045977,390,507.4622844827586,390S502.39583333333337,390,499.8626077586207,390S494.7552981321839,390,492.26293103448273,390S487.400772270115,390,484.90840517241384,390S479.80109554597703,390,477.3087284482759,390S472.446569683908,390,469.95420258620686,390S464.76517600574704,390,462.3545258620689,390S457.9009518678161,390,455.49030172413796,390S450.4238505747127,390,447.890625,390S442.7833153735632,390,440.29094827586204,390S435.42878951149424,390,432.9364224137931,390S427.82911278735634,390,425.3367456896552,390S420.4745869252874,390,417.9822198275862,390S412.91576867816093,390,410.38254310344826,390S405.2752334770115,390,402.78286637931035,390S397.92070761494256,390,395.4283405172414,390S390.3210308908046,390,387.82866379310343,390S382.96650502873564,390,380.4741379310345,390S375.3259698275862,390,372.87446120689657,390S368.2165948275862,390,365.76508620689657,390S360.6986350574713,390,358.1654094827586,390S353.05809985632186,390,350.5657327586207,390S345.7035739942529,390,343.21120689655174,390S338.10389727011494,390,335.6115301724138,390S330.749371408046,390,328.2570043103448,390S323.19055316091954,390,320.6573275862069,390S315.5500179597701,390,313.05765086206895,390S308.19549209770116,390,305.703125,390S300.5958153735632,390,298.10344827586204,390S293.24128951149424,390,290.7489224137931,390S285.5598958333333,390,283.1492456896552,390S278.69567169540227,390,276.2850215517241,390S271.21857040229884,390,268.6853448275862,390S263.5780352011494,390,261.08566810344826,390S256.22350933908046,390,253.7311422413793,390S248.6238326149425,390,246.13146551724137,390S241.26930675287358,390,238.7769396551724,390S233.7104885057471,390,231.17726293103445,390S226.06995330459768,390,223.57758620689654,390S218.71542744252872,390,216.2230603448276,390S211.1157507183908,390,208.62338362068965,390S203.76122485632186,390,201.2688577586207,390S196.07983117816093,390,193.66918103448276,390S189.21560704022988,390,186.80495689655172,390S181.73850574712645,390,179.2052801724138,390S174.09797054597703,390,171.60560344827587,390S166.74344468390802,390,164.2510775862069,390S159.14376795977012,390,156.65140086206898,390S151.78924209770116,390,149.296875,390S144.2304238505747,390,141.69719827586206,390S136.5898886494253,390,134.09752155172413,390S129.23536278735634,390,126.74299568965517,390S121.63568606321837,390,119.14331896551722,390S114.28116020114942,390,111.78879310344827,390S106.5997665229885,390,104.18911637931035,390S99.73554238505747,390,97.32489224137932,390S92.25844109195403,390,89.72521551724138,390S84.6179058908046,390,82.12553879310344,390S77.26338002873564,390,74.77101293103449,390S69.6637033045977,390,67.17133620689656,390S62.309177442528735,390,59.81681034482759,390S54.750359195402304,390,52.21713362068966,390S47.10982399425287,390,44.61745689655172,390S39.7552981321839,390,37.262931034482754,390S32.15562140804598,390,29.66325431034483,390S24.80109554597701,390,22.30872844827586,390S17.160560344827587,390,14.709051724137932,390S10.051185344827585,390,7.599676724137931,390S1.2666127873563218,390,0,390Z"/><g class="x axis" transform="translate(0,390)"><g class="tick" transform="translate(0,0)" style="opacity: 1;"><line y2="6" x2="0"/><text dy=".71em" y="9" x="0" style="text-anchor: middle;">2000</text></g><g class="tick" transform="translate(89.72521551724138,0)" style="opacity: 1;"><line y2="6" x2="0"/><text dy=".71em" y="9" x="0" style="text-anchor: middle;">2001</text></g><g class="tick" transform="translate(179.2052801724138,0)" style="opacity: 1;"><line y2="6" x2="0"/><text dy=".71em" y="9" x="0" style="text-anchor: middle;">2002</text></g><g class="tick" transform="translate(268.6853448275862,0)" style="opacity: 1;"><line y2="6" x2="0"/><text dy=".71em" y="9" x="0" style="text-anchor: middle;">2003</text></g><g class="tick" transform="translate(358.1654094827586,0)" style="opacity: 1;"><line y2="6" x2="0"/><text dy=".71em" y="9" x="0" style="text-anchor: middle;">2004</text></g><g class="tick" transform="translate(447.890625,0)" style="opacity: 1;"><line y2="6" x2="0"/><text dy=".71em" y="9" x="0" style="text-anchor: middle;">2005</text></g><g class="tick" transform="translate(537.3706896551724,0)" style="opacity: 1;"><line y2="6" x2="0"/><text dy=".71em" y="9" x="0" style="text-anchor: middle;">2006</text></g><g class="tick" transform="translate(626.8507543103448,0)" style="opacity: 1;"><line y2="6" x2="0"/><text dy=".71em" y="9" x="0" style="text-anchor: middle;">2007</text></g><g class="tick" transform="translate(716.3308189655172,0)" style="opacity: 1;"><line y2="6" x2="0"/><text dy=".71em" y="9" x="0" style="text-anchor: middle;">2008</text></g><g class="tick" transform="translate(806.0560344827586,0)" style="opacity: 1;"><line y2="6" x2="0"/><text dy=".71em" y="9" x="0" style="text-anchor: middle;">2009</text></g><g class="tick" transform="translate(895.536099137931,0)" style="opacity: 1;"><line y2="6" x2="0"/><text dy=".71em" y="9" x="0" style="text-anchor: middle;">2010</text></g><path class="domain" d="M0,6V0H910V6"/></g><g class="y axis"><g class="tick" transform="translate(0,390)" style="opacity: 1;"><line x2="-6" y2="0"/><text dy=".32em" x="-9" y="0" style="text-anchor: end;">0</text></g><g class="tick" transform="translate(0,339.6572822677458)" style="opacity: 1;"><line x2="-6" y2="0"/><text dy=".32em" x="-9" y="0" style="text-anchor: end;">200</text></g><g class="tick" transform="translate(0,289.31456453549157)" style="opacity: 1;"><line x2="-6" y2="0"/><text dy=".32em" x="-9" y="0" style="text-anchor: end;">400</text></g><g class="tick" transform="translate(0,238.97184680323744)" style="opacity: 1;"><line x2="-6" y2="0"/><text dy=".32em" x="-9" y="0" style="text-anchor: end;">600</text></g><g class="tick" transform="translate(0,188.62912907098323)" style="opacity: 1;"><line x2="-6" y2="0"/><text dy=".32em" x="-9" y="0" style="text-anchor: end;">800</text></g><g class="tick" transform="translate(0,138.28641133872907)" style="opacity: 1;"><line x2="-6" y2="0"/><text dy=".32em" x="-9" y="0" style="text-anchor: end;">1,000</text></g><g class="tick" transform="translate(0,87.94369360647487)" style="opacity: 1;"><line x2="-6" y2="0"/><text dy=".32em" x="-9" y="0" style="text-anchor: end;">1,200</text></g><g class="tick" transform="translate(0,37.6009758742207)" style="opacity: 1;"><line x2="-6" y2="0"/><text dy=".32em" x="-9" y="0" style="text-anchor: end;">1,400</text></g><path class="domain" d="M-6,0H0V390H-6"/></g></g><g class="context" transform="translate(40,430)"><path class="area" d="M0,4.9994191224877085C1.248906808872878,5.148123920950063,5.282123731102002,6.4614769455666305,7.599676724137931,5.904297202752068S12.353622138193181,2.115083198143375,14.709051724137932,1.6393654235887956S19.884631174741138,2.721862889830229,22.30872844827586,3.1286708231679783S27.170901030688047,4.161724404030098,29.66325431034483,4.155855890743398S34.77156426109672,3.108564498246068,37.262931034482754,3.0586428119635025S42.167930845833055,4.149668679868636,44.61745689655172,3.8257238379222738S49.68427641344331,1.0535352530594642,52.21713362068966,1.0229898410977323S57.331966434354385,3.5056989060236785,59.81681034482759,3.6424247118202135S64.69317446820776,3.6842462317384674,67.17133620689656,3.8718713291768347S72.28865250590356,7.407676538856292,74.77101293103449,7.565284178187404S79.63539211535956,7.467638290781452,82.12553879310344,7.393279892602206S87.26361341900906,5.497637244359732,89.72521551724138,5.917528301643244S95.32741652308965,9.077466382617038,97.32489224137932,9.985929855813291S101.77847689397859,12.560090877582736,104.18911637931035,12.55502200880353S109.31268391933594,9.879350092956892,111.78879310344827,9.678710193754924S116.6520563385756,9.42101180892947,119.14331896551722,9.473466806077274S124.26517070587167,10.298243083977061,126.74299568965517,10.488066194219625S131.66379679734837,10.534647377964502,134.09752155172413,10.912429487924202S139.4568392688222,12.60825432878305,141.69719827586206,13.418270534020065S146.8574204648116,16.048579486909414,149.296875,16.407853463966234S154.25446973111633,16.27815009209234,156.65140086206898,15.79986833443055S161.7901485286135,13.50698877964286,164.2510775862069,13.228839923066S169.11356219272,12.92184560142966,171.60560344827587,12.950341426893342S176.691430601128,13.306646721697598,179.2052801724138,13.527346422439946S184.3993411877562,14.394795761881152,186.80495689655172,14.284746156527127S191.2655509209996,12.84271014580685,193.66918103448276,12.972608398197988S198.7953204107584,15.030928916169305,201.2688577586207,15.246743858833856S206.1531542570986,15.328505131981368,208.62338362068965,15.562353973847603S213.983164505148,17.30554206133904,216.2230603448276,18.057545598884715S221.08830549239462,20.49348367396665,223.57758620689654,20.581135680078482S228.64902749766765,20.325207759465506,231.17726293103445,20.437529850649938S236.29332547956568,23.542680098168027,238.7769396551724,23.690121209774233S243.79914519334375,22.026629767894747,246.13146551724137,21.415663039409317S251.23946254879732,19.74297945110705,253.7311422413793,19.784365359046845S258.6674828544077,21.183813420543412,261.08566810344826,21.60735261846674S266.1690813035003,22.179134706512986,268.6853448275862,22.385728484942362S273.8745552696787,22.834219008606514,276.2850215517241,22.85527114071435S280.76188342502184,22.864195521675583,283.1492456896552,22.628406201190153S288.40133651921997,20.9930972168686,290.7489224137931,20.41009952368044S295.64976166892905,19.212087563353265,298.10344827586204,18.904013218190503S303.2190711797202,18.695640169370968,305.703125,18.551936903793774S310.5782324669929,18.220912205687878,313.05765086206895,18.041732822161126S318.12446778976454,17.50097449054663,320.6573275862069,17.470536601737475S325.7867133633049,18.092605377688916,328.2570043103448,17.859079115517172S333.1306436272376,16.261332015824564,335.6115301724138,16.09256605868154S340.72994731177107,16.01687039542575,343.21120689655174,15.850856471620906S348.1345544937878,14.502955231699868,350.5657327586207,14.117259807148669S355.64457394323324,13.674063705069544,358.1654094827586,13.497334417638024S363.31400392622595,13.019345907657227,365.76508620689657,13.051672281815952S370.439588909531,13.45484329355693,372.87446120689657,13.656107604332057S377.98206119974844,14.239451601846847,380.4741379310345,14.266351701971114S385.34920682406687,14.01347977455176,387.82866379310343,13.834566084498318S392.94057845610484,13.07694946646238,395.4283405172414,13.183983270727651S400.2928005682184,14.370724621757795,402.78286637931035,14.446423730782637S407.84958699189673,14.391226314192016,410.38254310344826,14.365100879061304S415.49770640740786,14.171106410215884,417.9822198275862,14.031419019220598S422.8838680022942,13.838574142141315,425.3367456896552,13.527346422439946S430.5191067148215,12.54562428442556,432.9364224137931,12.11968658431115S437.7994352020697,10.936290726362975,440.29094827586204,10.89016251661955S445.3581896651003,11.834532713215998,447.890625,11.87926783616673S453.0797590854532,11.14255901844732,455.49030172413796,11.15865701119158S459.9699128465618,11.652036507599401,462.3545258620689,11.90121209774233S467.46346987838837,12.731128037843547,469.95420258620686,12.66732499451394S474.81636596698274,11.552527797812072,477.3087284482759,11.549135783345598S482.41604514751515,11.558820416364076,484.90840517241384,11.5546218487395S489.7809233068709,10.33216039194199,492.26293103448273,10.17181065974777S497.3297114445892,10.589884867794895,499.8626077586207,10.618763634486056S504.972132245368,10.270840453456037,507.4622844827586,10.345105784249187S512.3289039512874,11.153959158213356,514.8168103448276,11.048612993584534S519.9245147081659,9.709428343110021,522.4164870689655,9.678064774296818S527.2788626090255,9.739710244143353,529.7710129310345,9.716467232054116S534.8375743627073,8.707286998958143,537.3706896551724,8.690573003394913S542.5597428879931,8.67987137449114,544.9703663793103,8.671855839109838S549.4346564470817,8.373653234655954,551.8345905172414,8.213285314125656S556.9495482189506,7.567487677535798,559.4342672413793,7.705340200596372S564.2964307739662,9.009512686116665,566.7887931034483,9.012960022718769S571.8961028557673,9.009970344964202,574.3884698275862,9.009410215699182S579.2634250944309,8.979068423712157,581.7429956896552,8.800939730731S586.8488325895204,8.23786360525708,589.3426724137931,7.9244601066232985S594.5124588745548,7.28045124807074,596.942349137931,6.890820844466827S601.8527678698493,5.875977774574258,604.296875,5.5325355948831145S609.4228829229085,5.015373238870631,611.8965517241379,4.800307219662059S616.7749975432547,4.430897581816594,619.2510775862069,4.230079128425568S624.3190328248301,3.524887461376381,626.8507543103448,3.5865959286940585S632.0425166727214,4.519386305983894,634.4504310344828,4.6005498973783086S638.9668442233713,4.531567701767944,641.3146551724138,4.147465437788023S646.5539368665308,2.7206053105296055,648.9143318965517,2.162477894383569S653.7822101404588,0.7246608631018215,656.2688577586207,0.605403451703268S661.4409699245666,1.088806675686801,663.8685344827586,1.4854328828305563S668.7414180614921,2.8738797485057956,671.2230603448276,3.0370212601169566S676.3465446453325,2.80870787111773,678.8227370689655,2.432908647329901S683.9935294697241,1.1229654102532267,686.4224137931035,0.7302921168467424S691.3069751987113,-0.23523122155343548,693.7769396551724,0S698.9110895108149,1.9449255763941578,701.3766163793103,2.2021711910570674S706.2814389705214,2.2913084129031143,708.7311422413793,2.6145942247866927S713.9971517434334,4.8304261031126385,716.3308189655172,5.512850301410893S721.493703819219,6.869903579161008,723.9304956896552,7.059275323032438S728.6020673746718,7.497970460645507,731.0398706896552,7.315184138171399S736.1803826569751,5.571407339848352,738.6395474137931,5.285662652157641S743.5610792075686,4.428303616473685,745.9940732758621,4.8083749628883785S751.1682984417733,8.290289443848982,753.59375,8.693154681227334S758.4559276421286,9.107273656161116,760.948275862069,9.100414359292103S766.1091808444586,8.121878519401447,768.5479525862069,8.601827827905362S774.4446517325126,11.20098306612384,776.1476293103448,12.360428042184623S781.6493076710146,17.648949047612213,783.5021551724138,18.737494997999203S788.6192766542781,20.921391230726734,791.1018318965517,21.077463243361862S795.975311300138,20.683651862393656,798.4563577586207,20.85124372329577S803.8092180509409,22.545858914194024,806.0560344827586,23.348048896978145S811.2499736602985,26.16921797374129,813.6557112068965,26.27793052704953S818.3165292429103,24.927712343201243,820.5199353448276,24.251958848055356S825.7859223823252,22.442098093357806,828.1196120689655,21.833572138532837S832.9817749815003,20.34167335455129,835.4741379310345,20.3384579638307S840.5814565141562,20.337373939126167,843.0738146551724,20.33264918870774S848.0509373115758,18.655855549090603,850.4283405172414,18.1330596754831S855.5489274743694,17.429943088242492,858.0280172413793,17.06359963340175S863.1378099385806,15.965629206689098,865.6276939655172,15.886999961274839S870.5058485149593,16.760166973669612,872.9822198275862,16.561140585266365S878.1586721259524,15.052280489832514,880.5818965517241,14.642953955775855S885.4490525751542,13.903148062331281,887.9364224137931,14.014638113309847S893.0041584302567,15.288133433238558,895.536099137931,15.345170326195001S900.7778552222652,14.709640545728792,903.135775862069,14.357033135834978S908.887752033482,13.38460534069766,910,13.196568950160708L910,50C908.8559626436781,50,905.5464260057471,50,903.135775862069,50S898.0693247126437,50,895.536099137931,50S890.4287895114943,50,887.9364224137931,50S883.0742636494252,50,880.5818965517241,50S875.4745869252873,50,872.9822198275862,50S868.1200610632184,50,865.6276939655172,50S860.561242816092,50,858.0280172413793,50S852.9207076149426,50,850.4283405172414,50S845.5661817528736,50,843.0738146551724,50S837.9665050287357,50,835.4741379310345,50S830.6119791666666,50,828.1196120689655,50S822.9305854885057,50,820.5199353448276,50S816.0663613505747,50,813.6557112068965,50S808.5892600574713,50,806.0560344827586,50S800.9487248563219,50,798.4563577586207,50S793.5941989942529,50,791.1018318965517,50S785.994522270115,50,783.5021551724138,50S778.6399964080459,50,776.1476293103448,50S771.0811781609195,50,768.5479525862069,50S763.4406429597701,50,760.948275862069,50S756.0861170977012,50,753.59375,50S748.4864403735633,50,745.9940732758621,50S741.1319145114943,50,738.6395474137931,50S733.4913793103449,50,731.0398706896552,50S726.3820043103449,50,723.9304956896552,50S718.8640445402299,50,716.3308189655172,50S711.2235093390805,50,708.7311422413793,50S703.8689834770115,50,701.3766163793103,50S696.2693067528736,50,693.7769396551724,50S688.9147808908046,50,686.4224137931035,50S681.3559626436781,50,678.8227370689655,50S673.7154274425287,50,671.2230603448276,50S666.3609015804598,50,663.8685344827586,50S658.7612248563219,50,656.2688577586207,50S651.4066989942529,50,648.9143318965517,50S643.725305316092,50,641.3146551724138,50S636.8610811781609,50,634.4504310344828,50S629.3839798850574,50,626.8507543103448,50S621.743444683908,50,619.2510775862069,50S614.3889188218391,50,611.8965517241379,50S606.7892420977012,50,604.296875,50S599.4347162356322,50,596.942349137931,50S591.8758979885058,50,589.3426724137931,50S584.2353627873564,50,581.7429956896552,50S576.8808369252873,50,574.3884698275862,50S569.2811602011494,50,566.7887931034483,50S561.9266343390805,50,559.4342672413793,50S554.2452406609195,50,551.8345905172414,50S547.3810165229885,50,544.9703663793103,50S539.9039152298851,50,537.3706896551724,50S532.2633800287357,50,529.7710129310345,50S524.9088541666666,50,522.4164870689655,50S517.3091774425287,50,514.8168103448276,50S509.95465158045977,50,507.4622844827586,50S502.39583333333337,50,499.8626077586207,50S494.7552981321839,50,492.26293103448273,50S487.400772270115,50,484.90840517241384,50S479.80109554597703,50,477.3087284482759,50S472.446569683908,50,469.95420258620686,50S464.76517600574704,50,462.3545258620689,50S457.9009518678161,50,455.49030172413796,50S450.4238505747127,50,447.890625,50S442.7833153735632,50,440.29094827586204,50S435.42878951149424,50,432.9364224137931,50S427.82911278735634,50,425.3367456896552,50S420.4745869252874,50,417.9822198275862,50S412.91576867816093,50,410.38254310344826,50S405.2752334770115,50,402.78286637931035,50S397.92070761494256,50,395.4283405172414,50S390.3210308908046,50,387.82866379310343,50S382.96650502873564,50,380.4741379310345,50S375.3259698275862,50,372.87446120689657,50S368.2165948275862,50,365.76508620689657,50S360.6986350574713,50,358.1654094827586,50S353.05809985632186,50,350.5657327586207,50S345.7035739942529,50,343.21120689655174,50S338.10389727011494,50,335.6115301724138,50S330.749371408046,50,328.2570043103448,50S323.19055316091954,50,320.6573275862069,50S315.5500179597701,50,313.05765086206895,50S308.19549209770116,50,305.703125,50S300.5958153735632,50,298.10344827586204,50S293.24128951149424,50,290.7489224137931,50S285.5598958333333,50,283.1492456896552,50S278.69567169540227,50,276.2850215517241,50S271.21857040229884,50,268.6853448275862,50S263.5780352011494,50,261.08566810344826,50S256.22350933908046,50,253.7311422413793,50S248.6238326149425,50,246.13146551724137,50S241.26930675287358,50,238.7769396551724,50S233.7104885057471,50,231.17726293103445,50S226.06995330459768,50,223.57758620689654,50S218.71542744252872,50,216.2230603448276,50S211.1157507183908,50,208.62338362068965,50S203.76122485632186,50,201.2688577586207,50S196.07983117816093,50,193.66918103448276,50S189.21560704022988,50,186.80495689655172,50S181.73850574712645,50,179.2052801724138,50S174.09797054597703,50,171.60560344827587,50S166.74344468390802,50,164.2510775862069,50S159.14376795977012,50,156.65140086206898,50S151.78924209770116,50,149.296875,50S144.2304238505747,50,141.69719827586206,50S136.5898886494253,50,134.09752155172413,50S129.23536278735634,50,126.74299568965517,50S121.63568606321837,50,119.14331896551722,50S114.28116020114942,50,111.78879310344827,50S106.5997665229885,50,104.18911637931035,50S99.73554238505747,50,97.32489224137932,50S92.25844109195403,50,89.72521551724138,50S84.6179058908046,50,82.12553879310344,50S77.26338002873564,50,74.77101293103449,50S69.6637033045977,50,67.17133620689656,50S62.309177442528735,50,59.81681034482759,50S54.750359195402304,50,52.21713362068966,50S47.10982399425287,50,44.61745689655172,50S39.7552981321839,50,37.262931034482754,50S32.15562140804598,50,29.66325431034483,50S24.80109554597701,50,22.30872844827586,50S17.160560344827587,50,14.709051724137932,50S10.051185344827585,50,7.599676724137931,50S1.2666127873563218,50,0,50Z"/><g class="x axis" transform="translate(0,50)"><g class="tick" transform="translate(0,0)" style="opacity: 1;"><line y2="6" x2="0"/><text dy=".71em" y="9" x="0" style="text-anchor: middle;">2000</text></g><g class="tick" transform="translate(89.72521551724138,0)" style="opacity: 1;"><line y2="6" x2="0"/><text dy=".71em" y="9" x="0" style="text-anchor: middle;">2001</text></g><g class="tick" transform="translate(179.2052801724138,0)" style="opacity: 1;"><line y2="6" x2="0"/><text dy=".71em" y="9" x="0" style="text-anchor: middle;">2002</text></g><g class="tick" transform="translate(268.6853448275862,0)" style="opacity: 1;"><line y2="6" x2="0"/><text dy=".71em" y="9" x="0" style="text-anchor: middle;">2003</text></g><g class="tick" transform="translate(358.1654094827586,0)" style="opacity: 1;"><line y2="6" x2="0"/><text dy=".71em" y="9" x="0" style="text-anchor: middle;">2004</text></g><g class="tick" transform="translate(447.890625,0)" style="opacity: 1;"><line y2="6" x2="0"/><text dy=".71em" y="9" x="0" style="text-anchor: middle;">2005</text></g><g class="tick" transform="translate(537.3706896551724,0)" style="opacity: 1;"><line y2="6" x2="0"/><text dy=".71em" y="9" x="0" style="text-anchor: middle;">2006</text></g><g class="tick" transform="translate(626.8507543103448,0)" style="opacity: 1;"><line y2="6" x2="0"/><text dy=".71em" y="9" x="0" style="text-anchor: middle;">2007</text></g><g class="tick" transform="translate(716.3308189655172,0)" style="opacity: 1;"><line y2="6" x2="0"/><text dy=".71em" y="9" x="0" style="text-anchor: middle;">2008</text></g><g class="tick" transform="translate(806.0560344827586,0)" style="opacity: 1;"><line y2="6" x2="0"/><text dy=".71em" y="9" x="0" style="text-anchor: middle;">2009</text></g><g class="tick" transform="translate(895.536099137931,0)" style="opacity: 1;"><line y2="6" x2="0"/><text dy=".71em" y="9" x="0" style="text-anchor: middle;">2010</text></g><path class="domain" d="M0,6V0H910V6"/></g><g class="x brush" style="pointer-events: all; -webkit-tap-highlight-color: rgba(0, 0, 0, 0);"><rect class="background" x="0" width="910" y="-6" height="57" style="visibility: hidden; cursor: crosshair;"/><rect class="extent" x="0" width="0" y="-6" height="57" style="cursor: move;"/><g class="resize e" transform="translate(0,0)" style="cursor: ew-resize; display: none;"><rect x="-3" width="6" height="57" y="-6" style="visibility: hidden;"/></g><g class="resize w" transform="translate(0,0)" style="cursor: ew-resize; display: none;"><rect x="-3" width="6" height="57" y="-6" style="visibility: hidden;"/></g></g></g><rect class="pane" width="910" height="390" transform="translate(40,10)"/></svg></svg>