<svg width="960" height="1100" xmlns="http://www.w3.org/2000/svg" style="animation-delay: 0s; animation-direction: normal; animation-duration: 0s; animation-fill-mode: none; animation-iteration-count: 1; animation-name: none; animation-play-state: running; animation-timing-function: ease; background-attachment: scroll; background-blend-mode: normal; background-clip: border-box; background-color: rgba(0, 0, 0, 0); background-image: none; background-origin: padding-box; background-position: 0% 0%; background-repeat: repeat; background-size: auto; border-bottom-color: rgb(0, 0, 0); border-bottom-left-radius: 0px; border-bottom-right-radius: 0px; border-bottom-style: none; border-bottom-width: 0px; border-collapse: separate; border-image-outset: 0px; border-image-repeat: stretch; border-image-slice: 100%; border-image-source: none; border-image-width: 1; border-left-color: rgb(0, 0, 0); border-left-style: none; border-left-width: 0px; border-right-color: rgb(0, 0, 0); border-right-style: none; border-right-width: 0px; border-top-color: rgb(0, 0, 0); border-top-left-radius: 0px; border-top-right-radius: 0px; border-top-style: none; border-top-width: 0px; bottom: auto; box-shadow: none; box-sizing: content-box; break-after: auto; break-before: auto; break-inside: auto; caption-side: top; clear: none; clip: auto; color: rgb(0, 0, 0); content: ; cursor: auto; direction: ltr; display: inline; empty-cells: show; float: none; font-family: Times; font-kerning: auto; font-size: 16px; font-stretch: normal; font-style: normal; font-variant: normal; font-variant-ligatures: normal; font-variant-caps: normal; font-variant-numeric: normal; font-weight: normal; height: 1100px; image-rendering: auto; isolation: auto; left: auto; letter-spacing: normal; line-height: normal; list-style-image: none; list-style-position: outside; list-style-type: disc; margin-bottom: 0px; margin-left: 0px; margin-right: 0px; margin-top: 0px; max-height: none; max-width: none; min-height: 0px; min-width: 0px; mix-blend-mode: normal; object-fit: fill; object-position: 50% 50%; offset-distance: 0px; offset-path: none; offset-rotate: auto 0deg; offset-rotation: auto 0deg; opacity: 1; orphans: 2; outline-color: rgb(0, 0, 0); outline-offset: 0px; outline-style: none; outline-width: 0px; overflow-anchor: auto; overflow-wrap: normal; overflow-x: hidden; overflow-y: hidden; padding-bottom: 0px; padding-left: 0px; padding-right: 0px; padding-top: 0px; pointer-events: auto; position: static; resize: none; right: auto; speak: normal; table-layout: auto; tab-size: 8; text-align: start; text-align-last: auto; text-decoration: none; text-indent: 0px; text-rendering: auto; text-shadow: none; text-size-adjust: auto; text-overflow: clip; text-transform: none; top: auto; touch-action: auto; transition-delay: 0s; transition-duration: 0s; transition-property: all; transition-timing-function: ease; unicode-bidi: normal; vertical-align: baseline; visibility: visible; white-space: normal; widows: 2; width: 960px; will-change: auto; word-break: normal; word-spacing: 0px; word-wrap: normal; z-index: auto; zoom: 1; -webkit-appearance: none; backface-visibility: visible; -webkit-background-clip: border-box; -webkit-background-origin: padding-box; -webkit-border-horizontal-spacing: 0px; -webkit-border-image: none; -webkit-border-vertical-spacing: 0px; -webkit-box-align: stretch; -webkit-box-decoration-break: slice; -webkit-box-direction: normal; -webkit-box-flex: 0; -webkit-box-flex-group: 1; -webkit-box-lines: single; -webkit-box-ordinal-group: 1; -webkit-box-orient: horizontal; -webkit-box-pack: start; -webkit-box-reflect: none; column-count: auto; column-gap: normal; column-rule-color: rgb(0, 0, 0); column-rule-style: none; column-rule-width: 0px; column-span: none; column-width: auto; align-content: stretch; align-items: stretch; align-self: stretch; flex-basis: auto; flex-grow: 0; flex-shrink: 1; flex-direction: row; flex-wrap: nowrap; justify-content: flex-start; -webkit-font-smoothing: auto; -webkit-highlight: none; hyphens: manual; -webkit-hyphenate-character: auto; -webkit-line-break: auto; -webkit-line-clamp: none; -webkit-locale: auto; -webkit-margin-before-collapse: collapse; -webkit-margin-after-collapse: collapse; -webkit-mask-box-image: none; -webkit-mask-box-image-outset: 0px; -webkit-mask-box-image-repeat: stretch; -webkit-mask-box-image-slice: 0 fill; -webkit-mask-box-image-source: none; -webkit-mask-box-image-width: auto; -webkit-mask-clip: border-box; -webkit-mask-composite: source-over; -webkit-mask-image: none; -webkit-mask-origin: border-box; -webkit-mask-position: 0% 0%; -webkit-mask-repeat: repeat; -webkit-mask-size: auto; order: 0; perspective: none; perspective-origin: 480px 550px; -webkit-print-color-adjust: economy; -webkit-rtl-ordering: logical; shape-outside: none; shape-image-threshold: 0; shape-margin: 0px; -webkit-tap-highlight-color: rgba(0, 0, 0, 0.4); -webkit-text-combine: none; -webkit-text-decorations-in-effect: none; -webkit-text-emphasis-color: rgb(0, 0, 0); -webkit-text-emphasis-position: over; -webkit-text-emphasis-style: none; -webkit-text-fill-color: rgb(0, 0, 0); -webkit-text-orientation: vertical-right; -webkit-text-security: none; -webkit-text-stroke-color: rgb(0, 0, 0); -webkit-text-stroke-width: 0px; transform: none; transform-origin: 480px 550px; transform-style: flat; -webkit-user-drag: auto; -webkit-user-modify: read-only; user-select: text; -webkit-writing-mode: horizontal-tb; -webkit-app-region: no-drag; buffered-rendering: auto; clip-path: none; clip-rule: nonzero; mask: none; filter: none; flood-color: rgb(0, 0, 0); flood-opacity: 1; lighting-color: rgb(255, 255, 255); stop-color: rgb(0, 0, 0); stop-opacity: 1; color-interpolation: sRGB; color-interpolation-filters: linearRGB; color-rendering: auto; fill: rgb(0, 0, 0); fill-opacity: 1; fill-rule: nonzero; marker-end: none; marker-mid: none; marker-start: none; mask-type: luminance; shape-rendering: auto; stroke: none; stroke-dasharray: none; stroke-dashoffset: 0px; stroke-linecap: butt; stroke-linejoin: miter; stroke-miterlimit: 4; stroke-opacity: 1; stroke-width: 1px; alignment-baseline: auto; baseline-shift: 0px; dominant-baseline: auto; text-anchor: start; writing-mode: horizontal-tb; vector-effect: none; paint-order: fill stroke markers; d: none; cx: 0px; cy: 0px; x: 0px; y: 0px; r: 0px; rx: auto; ry: auto;" version="1.1" xmlns:xlink="http://www.w3.org/1999/xlink"><style type="text/css">.link { fill: none; stroke: rgb(85, 85, 85); stroke-opacity: 0.4; stroke-width: 1px; }
text { font-family: "Arial Black", Gadget, sans-serif; fill: black; font-weight: bold; font-size: 14px; }
.xAxis .tick text { fill: black; }
.grid .tick line { stroke: grey; stroke-dasharray: 5, 10; opacity: 0.7; }
.grid path { stroke-width: 0; }
.node circle { fill: rgb(153, 153, 153); }
.node--internal circle { fill: rgb(85, 85, 85); }
.node--internal text { font-size: 16px; text-shadow: rgb(255, 255, 255) 0px 2px 0px, rgb(255, 255, 255) 0px -2px 0px, rgb(255, 255, 255) 2px 0px 0px, rgb(255, 255, 255) -2px 0px 0px; }
.node--leaf text { fill: white; }
.ballG text { fill: white; }
.shadow { filter: drop-shadow(rgb(0, 0, 0) -1.5px -1.5px 1.5px); }</style><svg xmlns="http://www.w3.org/2000/svg"><g transform="translate(20,0)"><path class="link" d="M166.66666666666669,139.08045977011489C100,139.08045977011489 100,670.7471264367815 0,670.7471264367815"/><path class="link" d="M166.66666666666669,464.6551724137929C100,464.6551724137929 100,670.7471264367815 0,670.7471264367815"/><path class="link" d="M333.33333333333337,796.5517241379309C100,796.5517241379309 100,670.7471264367815 0,670.7471264367815"/><path class="link" d="M333.33333333333337,910.3448275862067C100,910.3448275862067 100,670.7471264367815 0,670.7471264367815"/><path class="link" d="M333.33333333333337,1043.103448275862C100,1043.103448275862 100,670.7471264367815 0,670.7471264367815"/><path class="link" d="M500,37.931034482758605C266.6666666666667,37.931034482758605 266.6666666666667,139.08045977011489 166.66666666666669,139.08045977011489"/><path class="link" d="M500,75.86206896551721C266.6666666666667,75.86206896551721 266.6666666666667,139.08045977011489 166.66666666666669,139.08045977011489"/><path class="link" d="M500,113.79310344827583C266.6666666666667,113.79310344827583 266.6666666666667,139.08045977011489 166.66666666666669,139.08045977011489"/><path class="link" d="M500,151.72413793103442C266.6666666666667,151.72413793103442 266.6666666666667,139.08045977011489 166.66666666666669,139.08045977011489"/><path class="link" d="M500,189.65517241379303C266.6666666666667,189.65517241379303 266.6666666666667,139.08045977011489 166.66666666666669,139.08045977011489"/><path class="link" d="M333.33333333333337,265.5172413793102C266.6666666666667,265.5172413793102 266.6666666666667,139.08045977011489 166.66666666666669,139.08045977011489"/><path class="link" d="M500,379.310344827586C266.6666666666667,379.310344827586 266.6666666666667,464.6551724137929 166.66666666666669,464.6551724137929"/><path class="link" d="M500,417.2413793103446C266.6666666666667,417.2413793103446 266.6666666666667,464.6551724137929 166.66666666666669,464.6551724137929"/><path class="link" d="M500,455.17241379310326C266.6666666666667,455.17241379310326 266.6666666666667,464.6551724137929 166.66666666666669,464.6551724137929"/><path class="link" d="M333.33333333333337,606.8965517241378C266.6666666666667,606.8965517241378 266.6666666666667,464.6551724137929 166.66666666666669,464.6551724137929"/><path class="link" d="M500,796.5517241379309C433.33333333333337,796.5517241379309 433.33333333333337,796.5517241379309 333.33333333333337,796.5517241379309"/><path class="link" d="M500,872.4137931034481C433.33333333333337,872.4137931034481 433.33333333333337,910.3448275862067 333.33333333333337,910.3448275862067"/><path class="link" d="M500,910.3448275862067C433.33333333333337,910.3448275862067 433.33333333333337,910.3448275862067 333.33333333333337,910.3448275862067"/><path class="link" d="M500,948.2758620689655C433.33333333333337,948.2758620689655 433.33333333333337,910.3448275862067 333.33333333333337,910.3448275862067"/><path class="link" d="M500,1024.1379310344828C433.33333333333337,1024.1379310344828 433.33333333333337,1043.103448275862 333.33333333333337,1043.103448275862"/><path class="link" d="M500,1062.0689655172414C433.33333333333337,1062.0689655172414 433.33333333333337,1043.103448275862 333.33333333333337,1043.103448275862"/><path class="link" d="M500,227.58620689655163C433.33333333333337,227.58620689655163 433.33333333333337,265.5172413793102 333.33333333333337,265.5172413793102"/><path class="link" d="M500,265.5172413793102C433.33333333333337,265.5172413793102 433.33333333333337,265.5172413793102 333.33333333333337,265.5172413793102"/><path class="link" d="M500,303.44827586206884C433.33333333333337,303.44827586206884 433.33333333333337,265.5172413793102 333.33333333333337,265.5172413793102"/><path class="link" d="M500,493.1034482758619C433.33333333333337,493.1034482758619 433.33333333333337,606.8965517241378 333.33333333333337,606.8965517241378"/><path class="link" d="M500,531.0344827586206C433.33333333333337,531.0344827586206 433.33333333333337,606.8965517241378 333.33333333333337,606.8965517241378"/><path class="link" d="M500,568.9655172413791C433.33333333333337,568.9655172413791 433.33333333333337,606.8965517241378 333.33333333333337,606.8965517241378"/><path class="link" d="M500,606.8965517241378C433.33333333333337,606.8965517241378 433.33333333333337,606.8965517241378 333.33333333333337,606.8965517241378"/><path class="link" d="M500,644.8275862068964C433.33333333333337,644.8275862068964 433.33333333333337,606.8965517241378 333.33333333333337,606.8965517241378"/><path class="link" d="M500,682.7586206896551C433.33333333333337,682.7586206896551 433.33333333333337,606.8965517241378 333.33333333333337,606.8965517241378"/><path class="link" d="M500,720.6896551724136C433.33333333333337,720.6896551724136 433.33333333333337,606.8965517241378 333.33333333333337,606.8965517241378"/><g class="node node--internal" transform="translate(0,670.7471264367815)"><circle r="4"/><text y="-10" style="text-anchor: middle;">Tom</text></g><g class="node node--internal" transform="translate(166.66666666666669,139.08045977011489)"><circle r="4"/><text y="-10" style="text-anchor: middle;">Front-End</text></g><g class="node node--internal" transform="translate(166.66666666666669,464.6551724137929)"><circle r="4"/><text y="-10" style="text-anchor: middle;">Back-End</text></g><g class="node node--internal" transform="translate(333.33333333333337,796.5517241379309)"><circle r="4"/><text y="-10" style="text-anchor: middle;">Databases</text></g><g class="node node--internal" transform="translate(333.33333333333337,910.3448275862067)"><circle r="4"/><text y="-10" style="text-anchor: middle;">SysAdmin</text></g><g class="node node--internal" transform="translate(333.33333333333337,1043.103448275862)"><circle r="4"/><text y="-10" style="text-anchor: middle;">CMS</text></g><g class="node node--leaf" transform="translate(500,37.931034482758605)"><circle r="4"/><g class="node--leaf-g" transform="translate(8,-13)"><rect class="shadow" width="80" height="30" rx="2" ry="2" style="fill: rgb(128, 128, 128);"/><text dy="19.5" x="8" style="text-anchor: start;">Design</text></g><g class="xAxis" transform="translate(7,-14)" fill="none" font-size="10" font-family="sans-serif" text-anchor="middle"><path class="domain" stroke="#000" d="M0.5,-6V0.5H400.5V-6"/><g class="tick" opacity="1" transform="translate(0,0)"><line stroke="#000" y2="-6" x1="0.5" x2="0.5"/><text fill="#000" y="-9" x="0.5" dy="0em"/></g><g class="tick" opacity="1" transform="translate(80,0)"><line stroke="#000" y2="-6" x1="0.5" x2="0.5"/><text fill="#000" y="-9" x="0.5" dy="0em">Basic 1.0</text></g><g class="tick" opacity="1" transform="translate(160,0)"><line stroke="#000" y2="-6" x1="0.5" x2="0.5"/><text fill="#000" y="-9" x="0.5" dy="0em">Alright 2.0</text></g><g class="tick" opacity="1" transform="translate(240,0)"><line stroke="#000" y2="-6" x1="0.5" x2="0.5"/><text fill="#000" y="-9" x="0.5" dy="0em">Handy 3.0</text></g><g class="tick" opacity="1" transform="translate(320,0)"><line stroke="#000" y2="-6" x1="0.5" x2="0.5"/><text fill="#000" y="-9" x="0.5" dy="0em">Expert 4.0</text></g><g class="tick" opacity="1" transform="translate(400,0)"><line stroke="#000" y2="-6" x1="0.5" x2="0.5"/><text fill="#000" y="-9" x="0.5" dy="0em">Guru 5.0</text></g></g><g class="grid" transform="translate(7,1085)" fill="none" font-size="10" font-family="sans-serif" text-anchor="middle"><path class="domain" stroke="#000" d="M0.5,-1100V0.5H400.5V-1100"/><g class="tick" opacity="1" transform="translate(0,0)"><line stroke="#000" y2="-1100" x1="0.5" x2="0.5" style="stroke-dasharray: 20, 1; stroke: black;"/><text fill="#000" y="3" x="0.5" dy="0.71em"/></g><g class="tick" opacity="1" transform="translate(80,0)"><line stroke="#000" y2="-1100" x1="0.5" x2="0.5"/><text fill="#000" y="3" x="0.5" dy="0.71em"/></g><g class="tick" opacity="1" transform="translate(160,0)"><line stroke="#000" y2="-1100" x1="0.5" x2="0.5"/><text fill="#000" y="3" x="0.5" dy="0.71em"/></g><g class="tick" opacity="1" transform="translate(240,0)"><line stroke="#000" y2="-1100" x1="0.5" x2="0.5"/><text fill="#000" y="3" x="0.5" dy="0.71em"/></g><g class="tick" opacity="1" transform="translate(320,0)"><line stroke="#000" y2="-1100" x1="0.5" x2="0.5"/><text fill="#000" y="3" x="0.5" dy="0.71em"/></g><g class="tick" opacity="1" transform="translate(400,0)"><line stroke="#000" y2="-1100" x1="0.5" x2="0.5"/><text fill="#000" y="3" x="0.5" dy="0.71em"/></g></g></g><g class="node node--leaf" transform="translate(500,75.86206896551721)"><circle r="4"/><g class="node--leaf-g" transform="translate(8,-13)"><rect class="shadow" width="40" height="30" rx="2" ry="2" style="fill: rgb(46, 37, 117);" stroke="#4D4D4D" stroke-width="0"/><text dy="19.5" x="8" style="text-anchor: start;">Ps</text></g></g><g class="node node--leaf" transform="translate(500,113.79310344827583)"><circle r="4"/><g class="node--leaf-g" transform="translate(8,-13)"><rect class="shadow" width="240" height="30" rx="2" ry="2" style="fill: rgb(229, 79, 36);" stroke="#4D4D4D" stroke-width="0"/><text dy="19.5" x="8" style="text-anchor: start;">HTML &amp; CSS</text></g></g><g class="node node--leaf" transform="translate(500,151.72413793103442)"><circle r="4"/><g class="node--leaf-g" transform="translate(8,-13)"><rect class="shadow" width="120" height="30" rx="2" ry="2" style="fill: rgb(255, 153, 0);" stroke="#4D4D4D" stroke-width="0"/><text dy="19.5" x="8" style="text-anchor: start;">SVG</text></g></g><g class="node node--leaf" transform="translate(500,189.65517241379303)"><circle r="4"/><g class="node--leaf-g" transform="translate(8,-13)"><rect class="shadow" width="240" height="30" rx="2" ry="2" style="fill: rgb(86, 59, 126);" stroke="#4D4D4D" stroke-width="0"/><text dy="19.5" x="8" style="text-anchor: start;">Bootstrap</text></g></g><g class="node node--internal" transform="translate(333.33333333333337,265.5172413793102)"><circle r="4"/><text y="-10" style="text-anchor: middle;">JavaScript World</text></g><g class="node node--leaf" transform="translate(500,379.310344827586)"><circle r="4"/><g class="node--leaf-g" transform="translate(8,-13)"><rect class="shadow" width="120" height="30" rx="2" ry="2" style="fill: rgb(97, 124, 190);" stroke="#4D4D4D" stroke-width="0"/><text dy="19.5" x="8" style="text-anchor: start;">PHP</text></g></g><g class="node node--leaf" transform="translate(500,417.2413793103446)"><circle r="4"/><g class="node--leaf-g" transform="translate(8,-13)"><rect class="shadow" width="80" height="30" rx="2" ry="2" style="fill: rgb(0, 115, 173);" stroke="#4D4D4D" stroke-width="0"/><text dy="19.5" x="8" style="text-anchor: start;">C++</text></g></g><g class="node node--leaf" transform="translate(500,455.17241379310326)"><circle r="4"/><g class="node--leaf-g" transform="translate(8,-13)"><rect class="shadow" width="120" height="30" rx="2" ry="2" style="fill: rgb(229, 142, 0);" stroke="#4D4D4D" stroke-width="0"/><text dy="19.5" x="8" style="text-anchor: start;">SQL</text></g></g><g class="node node--internal" transform="translate(333.33333333333337,606.8965517241378)"><circle r="4"/><text y="-10" style="text-anchor: middle;">Java World</text></g><g class="node node--leaf" transform="translate(500,796.5517241379309)"><circle r="4"/><g class="node--leaf-g" transform="translate(8,-13)"><rect class="shadow" width="200" height="30" rx="2" ry="2" style="fill: rgb(0, 97, 138);" stroke="#4D4D4D" stroke-width="0"/><text dy="19.5" x="8" style="text-anchor: start;">MySQL</text></g></g><g class="node node--leaf" transform="translate(500,872.4137931034481)"><circle r="4"/><g class="node--leaf-g" transform="translate(8,-13)"><rect class="shadow" width="160" height="30" rx="2" ry="2" style="fill: rgb(128, 128, 128);" stroke="#4D4D4D" stroke-width="0"/><text dy="19.5" x="8" style="text-anchor: start;">VPS &amp; SharedHost</text></g></g><g class="node node--leaf" transform="translate(500,910.3448275862067)"><circle r="4"/><g class="node--leaf-g" transform="translate(8,-13)"><rect class="shadow" width="200" height="30" rx="2" ry="2" style="fill: rgb(4, 4, 4);"/><text dy="19.5" x="8" style="text-anchor: start;">Linux</text></g></g><g class="node node--leaf" transform="translate(500,948.2758620689655)"><circle r="4"/><g class="node--leaf-g" transform="translate(8,-13)"><rect class="shadow" width="160" height="30" rx="2" ry="2" style="fill: rgb(202, 33, 47);" stroke="#4D4D4D" stroke-width="0"/><text dy="19.5" x="8" style="text-anchor: start;">Apache &amp; Tomcat</text></g></g><g class="node node--leaf" transform="translate(500,1024.1379310344828)"><circle r="4"/><g class="node--leaf-g" transform="translate(8,-13)"><rect class="shadow" width="120" height="30" rx="2" ry="2" style="fill: rgb(0, 160, 210);" stroke="#4D4D4D" stroke-width="0"/><text dy="19.5" x="8" style="text-anchor: start;">Wordpress</text></g></g><g class="node node--leaf" transform="translate(500,1062.0689655172414)"><circle r="4"/><g class="node--leaf-g" transform="translate(8,-13)"><rect class="shadow" width="120" height="30" rx="2" ry="2" style="fill: rgb(6, 120, 190);"/><text dy="19.5" x="8" style="text-anchor: start;">Drupal</text></g></g><g class="node node--leaf" transform="translate(500,227.58620689655163)"><circle r="4"/><g class="node--leaf-g" transform="translate(8,-13)"><rect class="shadow" width="240" height="30" rx="2" ry="2" style="fill: rgb(214, 186, 51);" stroke="#4D4D4D" stroke-width="0"/><text dy="19.5" x="8" style="text-anchor: start;">JavaScript</text></g></g><g class="node node--leaf" transform="translate(500,265.5172413793102)"><circle r="4"/><g class="node--leaf-g" transform="translate(8,-13)"><rect class="shadow" width="240" height="30" rx="2" ry="2" style="fill: rgb(17, 105, 174);" stroke="#4D4D4D" stroke-width="0"/><text dy="19.5" x="8" style="text-anchor: start;">JQuery</text></g></g><g class="node node--leaf" transform="translate(500,303.44827586206884)"><circle r="4"/><g class="node--leaf-g" transform="translate(8,-13)"><rect class="shadow" width="200" height="30" rx="2" ry="2" style="fill: rgb(246, 133, 77);" stroke="#4D4D4D" stroke-width="0"/><text dy="19.5" x="8" style="text-anchor: start;">D3 js</text></g></g><g class="node node--leaf" transform="translate(500,493.1034482758619)"><circle r="4"/><g class="node--leaf-g" transform="translate(8,-13)"><rect class="shadow" width="240" height="30" rx="2" ry="2" style="fill: rgb(235, 44, 47);" stroke="#4D4D4D" stroke-width="0"/><text dy="19.5" x="8" style="text-anchor: start;">Java SE</text></g></g><g class="node node--leaf" transform="translate(500,531.0344827586206)"><circle r="4"/><g class="node--leaf-g" transform="translate(8,-13)"><rect class="shadow" width="160" height="30" rx="2" ry="2" style="fill: rgb(235, 44, 47);" stroke="#4D4D4D" stroke-width="0"/><text dy="19.5" x="8" style="text-anchor: start;">JSP</text></g></g><g class="node node--leaf" transform="translate(500,568.9655172413791)"><circle r="4"/><g class="node--leaf-g" transform="translate(8,-13)"><rect class="shadow" width="200" height="30" rx="2" ry="2" style="fill: rgb(89, 102, 108);"/><text dy="19.5" x="8" style="text-anchor: start;">Hibernate</text></g></g><g class="node node--leaf" transform="translate(500,606.8965517241378)"><circle r="4"/><g class="node--leaf-g" transform="translate(8,-13)"><rect class="shadow" width="240" height="30" rx="2" ry="2" style="fill: rgb(109, 179, 63);" stroke="#4D4D4D" stroke-width="0"/><text dy="19.5" x="8" style="text-anchor: start;">Spring MVC / Boot</text></g></g><g class="node node--leaf" transform="translate(500,644.8275862068964)"><circle r="4"/><g class="node--leaf-g" transform="translate(8,-13)"><rect class="shadow" width="200" height="30" rx="2" ry="2" style="fill: rgb(109, 179, 63);" stroke="#4D4D4D" stroke-width="0"/><text dy="19.5" x="8" style="text-anchor: start;">Spring Data</text></g></g><g class="node node--leaf" transform="translate(500,682.7586206896551)"><circle r="4"/><g class="node--leaf-g" transform="translate(8,-13)"><rect class="shadow" width="200" height="30" rx="2" ry="2" style="fill: rgb(95, 161, 52);" stroke="#4D4D4D" stroke-width="0"/><text dy="19.5" x="8" style="text-anchor: start;">Spring Security</text></g></g><g class="node node--leaf" transform="translate(500,720.6896551724136)"><circle r="4"/><g class="node--leaf-g" transform="translate(8,-13)"><rect class="shadow" width="240" height="30" rx="2" ry="2" style="fill: rgb(0, 95, 15);" stroke="#4D4D4D" stroke-width="0"/><text dy="19.5" x="8" style="text-anchor: start;">Thymeleaf</text></g></g></g><g class="ballG" transform="translate(830, 608.3965454101562)"><circle class="shadow" r="18" style="fill: rgb(109, 179, 63);"/><text dy="5" style="text-anchor: middle;">3.0</text></g></svg></svg>