<svg width="960" height="500" xmlns="http://www.w3.org/2000/svg" style="animation-delay: 0s; animation-direction: normal; animation-duration: 0s; animation-fill-mode: none; animation-iteration-count: 1; animation-name: none; animation-play-state: running; animation-timing-function: ease; background-attachment: scroll; background-blend-mode: normal; background-clip: border-box; background-color: rgba(0, 0, 0, 0); background-image: none; background-origin: padding-box; background-position: 0% 0%; background-repeat: repeat; background-size: auto; border-bottom-color: rgb(0, 0, 0); border-bottom-left-radius: 0px; border-bottom-right-radius: 0px; border-bottom-style: none; border-bottom-width: 0px; border-collapse: separate; border-image-outset: 0px; border-image-repeat: stretch; border-image-slice: 100%; border-image-source: none; border-image-width: 1; border-left-color: rgb(0, 0, 0); border-left-style: none; border-left-width: 0px; border-right-color: rgb(0, 0, 0); border-right-style: none; border-right-width: 0px; border-top-color: rgb(0, 0, 0); border-top-left-radius: 0px; border-top-right-radius: 0px; border-top-style: none; border-top-width: 0px; bottom: auto; box-shadow: none; box-sizing: content-box; break-after: auto; break-before: auto; break-inside: auto; caption-side: top; clear: none; clip: auto; color: rgb(0, 0, 0); content: ; cursor: auto; direction: ltr; display: inline; empty-cells: show; float: none; font-family: Times; font-kerning: auto; font-size: 16px; font-stretch: normal; font-style: normal; font-variant: normal; font-variant-ligatures: normal; font-variant-caps: normal; font-variant-numeric: normal; font-weight: normal; height: 500px; image-rendering: auto; isolation: auto; left: auto; letter-spacing: normal; line-height: normal; list-style-image: none; list-style-position: outside; list-style-type: disc; margin-bottom: 0px; margin-left: 0px; margin-right: 0px; margin-top: 0px; max-height: none; max-width: none; min-height: 0px; min-width: 0px; mix-blend-mode: normal; object-fit: fill; object-position: 50% 50%; offset-distance: 0px; offset-path: none; offset-rotate: auto 0deg; offset-rotation: auto 0deg; opacity: 1; orphans: 2; outline-color: rgb(0, 0, 0); outline-offset: 0px; outline-style: none; outline-width: 0px; overflow-anchor: auto; overflow-wrap: normal; overflow-x: hidden; overflow-y: hidden; padding-bottom: 0px; padding-left: 0px; padding-right: 0px; padding-top: 0px; pointer-events: auto; position: static; resize: none; right: auto; speak: normal; table-layout: auto; tab-size: 8; text-align: start; text-align-last: auto; text-decoration: none; text-indent: 0px; text-rendering: auto; text-shadow: none; text-size-adjust: auto; text-overflow: clip; text-transform: none; top: auto; touch-action: auto; transition-delay: 0s; transition-duration: 0s; transition-property: all; transition-timing-function: ease; unicode-bidi: normal; vertical-align: baseline; visibility: visible; white-space: normal; widows: 2; width: 960px; will-change: auto; word-break: normal; word-spacing: 0px; word-wrap: normal; z-index: auto; zoom: 1; -webkit-appearance: none; backface-visibility: visible; -webkit-background-clip: border-box; -webkit-background-origin: padding-box; -webkit-border-horizontal-spacing: 0px; -webkit-border-image: none; -webkit-border-vertical-spacing: 0px; -webkit-box-align: stretch; -webkit-box-decoration-break: slice; -webkit-box-direction: normal; -webkit-box-flex: 0; -webkit-box-flex-group: 1; -webkit-box-lines: single; -webkit-box-ordinal-group: 1; -webkit-box-orient: horizontal; -webkit-box-pack: start; -webkit-box-reflect: none; column-count: auto; column-gap: normal; column-rule-color: rgb(0, 0, 0); column-rule-style: none; column-rule-width: 0px; column-span: none; column-width: auto; align-content: stretch; align-items: stretch; align-self: stretch; flex-basis: auto; flex-grow: 0; flex-shrink: 1; flex-direction: row; flex-wrap: nowrap; justify-content: flex-start; -webkit-font-smoothing: auto; -webkit-highlight: none; hyphens: manual; -webkit-hyphenate-character: auto; -webkit-line-break: auto; -webkit-line-clamp: none; -webkit-locale: auto; -webkit-margin-before-collapse: collapse; -webkit-margin-after-collapse: collapse; -webkit-mask-box-image: none; -webkit-mask-box-image-outset: 0px; -webkit-mask-box-image-repeat: stretch; -webkit-mask-box-image-slice: 0 fill; -webkit-mask-box-image-source: none; -webkit-mask-box-image-width: auto; -webkit-mask-clip: border-box; -webkit-mask-composite: source-over; -webkit-mask-image: none; -webkit-mask-origin: border-box; -webkit-mask-position: 0% 0%; -webkit-mask-repeat: repeat; -webkit-mask-size: auto; order: 0; perspective: none; perspective-origin: 480px 250px; -webkit-print-color-adjust: economy; -webkit-rtl-ordering: logical; shape-outside: none; shape-image-threshold: 0; shape-margin: 0px; -webkit-tap-highlight-color: rgba(0, 0, 0, 0.4); -webkit-text-combine: none; -webkit-text-decorations-in-effect: none; -webkit-text-emphasis-color: rgb(0, 0, 0); -webkit-text-emphasis-position: over; -webkit-text-emphasis-style: none; -webkit-text-fill-color: rgb(0, 0, 0); -webkit-text-orientation: vertical-right; -webkit-text-security: none; -webkit-text-stroke-color: rgb(0, 0, 0); -webkit-text-stroke-width: 0px; transform: none; transform-origin: 480px 250px; transform-style: flat; -webkit-user-drag: auto; -webkit-user-modify: read-only; user-select: text; -webkit-writing-mode: horizontal-tb; -webkit-app-region: no-drag; buffered-rendering: auto; clip-path: none; clip-rule: nonzero; mask: none; filter: none; flood-color: rgb(0, 0, 0); flood-opacity: 1; lighting-color: rgb(255, 255, 255); stop-color: rgb(0, 0, 0); stop-opacity: 1; color-interpolation: sRGB; color-interpolation-filters: linearRGB; color-rendering: auto; fill: rgb(0, 0, 0); fill-opacity: 1; fill-rule: nonzero; marker-end: none; marker-mid: none; marker-start: none; mask-type: luminance; shape-rendering: auto; stroke: none; stroke-dasharray: none; stroke-dashoffset: 0px; stroke-linecap: butt; stroke-linejoin: miter; stroke-miterlimit: 4; stroke-opacity: 1; stroke-width: 1px; alignment-baseline: auto; baseline-shift: 0px; dominant-baseline: auto; text-anchor: start; writing-mode: horizontal-tb; vector-effect: none; paint-order: fill stroke markers; d: none; cx: 0px; cy: 0px; x: 0px; y: 0px; r: 0px; rx: auto; ry: auto;" version="1.1" xmlns:xlink="http://www.w3.org/1999/xlink"><style type="text/css">.links { stroke: rgb(0, 0, 0); stroke-opacity: 0.2; }
.polygons { fill: none; stroke: rgb(0, 0, 0); }
.polygons :first-child { fill: rgb(238, 238, 238); }
.sites { fill: rgb(0, 0, 0); stroke: rgb(255, 255, 255); }
.sites :first-child { fill: rgb(255, 255, 255); }</style><svg xmlns="http://www.w3.org/2000/svg"><g class="polygons"><path d="M843.1282192253423,84.3045818567802L865.5763231019048,128.4621807502107L916.1825352572073,116.35903267286685L927.5316414441655,80.19778188967965L885.8526330775861,38.67895929753364Z"/><path d="M572.4041485561686,472.5922819207477L574.2280181806578,501L668.8511507789375,501L669.7768053720989,487.5901280319687L592.023094580037,448.003396720845Z"/><path d="M116.56842414971057,499.4196068946074L117.10705055648769,501L212.16664400509296,501L185.53293029183394,449.14407875526L148.5652293142336,438.7255122197605L131.27333653245464,456.38772701636526Z"/><path d="M271.94088868817204,238.16204406735633L306.1554174484464,313.1069924267741L387.3735324298546,258.7154355565766L315.07107280229536,178.66139523859636L313.1475835463687,178.44005117291857L306.05667323200674,180.46299436955798L281.5226187611277,212.82867850352443Z"/><path d="M626.1466926814817,36.93622227542442L643.6695839599178,60.0156581394868L681.7746201779383,59.565654475914826L681.0636565091361,31.3887350652605L638.0432284316354,26.25581272502732Z"/><path d="M185.53293029183394,449.14407875526L212.16664400509296,501L266.8748042333963,501L275.52358447599624,467.7944734755274L247.1128578767993,389.8099669475186L217.3124365884806,384.6972863857843L198.37780052596827,407.52557921576425Z"/><path d="M525.9449939338256,51.73775573778554L530.0142877449359,74.79268781019465L556.1607042510163,73.43971449075767L555.4517356846465,36.64874749231214L546.3802572993797,34.20463344815716Z"/><path d="M-1,423.29324409666316L61.52702703999705,376.1265753823381L74.5389352540113,336.92849551969135L55.52422527774321,289.7993979640339L0.0006889886853684857,230.37665283313703L-1,229.87368937525252Z"/><path d="M-1,92.3589291770428L124.77170393525661,-1.0000000000000009L-1,-1Z"/><path d="M883.9865239387909,-1L885.8526330775861,38.67895929753364L927.5316414441655,80.19778188967965L961,74.55681138564384L961,33.41351860460717L913.8238726826304,-1Z"/><path d="M754.9489950608514,464.6860154658903L761.8041966484535,501L869.9861077725775,501L844.2698344904101,434.4726537757379Z"/><path d="M502.51983474438526,105.69254540285591L536.8336585785228,136.48637930490082L574.6608114832975,91.10392683362079L556.1607042510163,73.43971449075767L530.0142877449359,74.79268781019465L503.40237234398836,100.40607204483761Z"/><path d="M217.81048383561415,100.06227768983436L219.72350288633336,111.56198637192179L225.73460735814086,123.56386389236725L306.05667323200674,180.46299436955798L313.1475835463687,178.44005117291857L311.44041980584143,128.74723201860107L288.96831017116807,81.49616066819853L284.51817142125265,76.79345534306567Z"/><path d="M401.25545970838346,476.09755090526073L407.65841251940947,501L480.0685897795259,501L487.1309271787024,451.0723410802871L484.22394865998575,443.9558348986063L403.0530584690103,465.0387333765717Z"/><path d="M340.6339097434677,163.9952328261254L441.2814734653234,190.54159680147555L442.4928290765216,189.14081139279642L436.56880070473386,137.3804217329863L397.25807268691983,107.94039419028148L366.59736333063455,130.6469882072749Z"/><path d="M691.9757778384577,395.3742206248634L693.1714117292465,403.0630362034116L706.824991047193,429.4125973831081L709.5180904369412,430.2141148556126L842.9131286673612,368.7131451059503L828.2187747762856,310.1703084074949L825.1072792722839,305.97977412358216L741.3217372865806,312.5410942809519L727.2551810760026,326.53639700008557Z"/><path d="M785.2199562418161,172.6780722248464L797.2522394673256,190.32031373887472L834.0219111353387,215.46476588478964L865.5763231019048,128.4621807502107L843.1282192253423,84.3045818567802L826.1140480385113,83.37936081215487L791.1705647195216,105.58559118334304Z"/><path d="M625.8774254015129,307.860346433977L727.2551810760026,326.53639700008557L741.3217372865806,312.5410942809519L698.8476678433422,255.41335220320556L628.9681324674136,269.9803614832658Z"/><path d="M516.015376094093,-1L546.3802572993797,34.20463344815716L555.4517356846465,36.64874749231214L569.5393913296575,31.051260274929277L574.4850312174698,-1Z"/><path d="M-1,206.9360015445929L117.42740311824409,70.99141586878372L140.81041538593064,24.035400509752208L136.3641646016314,-1L124.77170393525661,-1.0000000000000009L-1,92.3589291770428Z"/><path d="M592.023094580037,448.003396720845L669.7768053720989,487.5901280319687L706.824991047193,429.4125973831081L693.1714117292465,403.0630362034116L593.2596916999786,435.6461169539571Z"/><path d="M618.0757980701667,170.57012569356579L630.1550000674628,218.6315131245882L675.8083401547326,181.39418605200538L676.7094771163199,155.16466078630992L655.3252279599228,135.54592088079997L649.0374625246262,133.93364164182702Z"/><path d="M449.36915773410846,0.3046359033377115L483.1478278487775,41.7337828002299L525.9449939338256,51.73775573778554L546.3802572993797,34.20463344815716L516.015376094093,-1L449.48702920211997,-1Z"/><path d="M675.8083401547326,181.39418605200538L702.2960770944837,231.68532860072781L797.2522394673256,190.32031373887472L785.2199562418161,172.6780722248464L717.3028814486595,147.08636224126423L676.7094771163199,155.16466078630992Z"/><path d="M894.5158059489871,208.852336096412L945.4429419343152,291.0178517207379L947.7666720867659,290.2400706457452L939.1711671248755,194.19910642810288Z"/><path d="M939.1711671248755,194.19910642810288L947.7666720867659,290.2400706457452L961,290.0016253971678L961,183.55082369821207L957.7900285212411,183.59543555627246Z"/><path d="M929.6612859344458,300.5943771696936L956.8304729472931,379.23726851059985L961,380.07918109697897L961,290.0016253971678L947.7666720867659,290.2400706457452L945.4429419343152,291.0178517207379Z"/><path d="M-1,229.87368937525252L0.0006889886853684857,230.37665283313703L81.18030599928389,212.21441546012568L135.1585899876348,133.57831791677296L117.42740311824409,70.99141586878372L-1,206.9360015445929Z"/><path d="M193.06407540497344,277.7185282075366L203.93550642448707,297.4798385046369L208.09019825179436,301.6558766043177L304.0725763106722,318.9069078364024L306.1554174484464,313.1069924267741L271.94088868817204,238.16204406735633L226.4273295312014,244.07432878561337Z"/><path d="M247.1128578767993,389.8099669475186L275.52358447599624,467.7944734755274L333.65166863394865,429.33885813378276L332.1628328739639,357.30560053216396L304.7978725132798,329.95873910664665Z"/><path d="M288.96831017116807,81.49616066819853L311.44041980584143,128.74723201860107L333.28140594585517,106.6010053578763L333.2443534971405,96.02954341089644Z"/><path d="M483.8835698902023,431.045495636547L484.22394865998575,443.9558348986063L487.1309271787024,451.0723410802871L572.4041485561686,472.5922819207477L592.023094580037,448.003396720845L593.2596916999786,435.6461169539571L564.2875256238583,362.4460581303155L500.1441578452412,394.9894865968112Z"/><path d="M834.0219111353387,215.46476588478964L835.9932718425564,218.767875095073L894.5158059489871,208.852336096412L939.1711671248755,194.19910642810288L957.7900285212411,183.59543555627246L916.1825352572073,116.35903267286685L865.5763231019048,128.4621807502107Z"/><path d="M606.6190237507882,242.24721672740372L628.9681324674136,269.9803614832658L698.8476678433422,255.41335220320556L702.2960770944837,231.68532860072781L675.8083401547326,181.39418605200538L630.1550000674628,218.6315131245882Z"/><path d="M407.65841251940947,501L401.25545970838346,476.09755090526073L372.2554630785156,482.89350149721224L358.03044224636545,501Z"/><path d="M310.4359137127194,-1L314.53778698622904,25.801851832317457L370.3441398569832,67.78479282454877L389.4398839677075,73.95121756862355L445.57779260800083,7.16781008808816L449.36915773410846,0.3046359033377115L449.48702920211997,-1Z"/><path d="M0.0006889886853684857,230.37665283313703L55.52422527774321,289.7993979640339L159.67362227446378,281.8231115352364L180.45586989805173,274.0491261891068L152.96195185648585,203.71702020232902L146.00125493411844,199.61215978460183L81.18030599928389,212.21441546012568Z"/><path d="M206.99132248350566,373.96640106062085L217.3124365884806,384.6972863857843L247.1128578767993,389.8099669475186L304.7978725132798,329.95873910664665L304.0725763106722,318.9069078364024L208.09019825179436,301.6558766043177Z"/><path d="M413.8870151276188,248.00746107376494L506.0524343150413,285.05660142137066L523.7687106807758,282.2404493692799L552.0828239746185,222.79376479706386L536.5170273346409,198.6719232508769L442.4928290765216,189.14081139279642L441.2814734653234,190.54159680147555Z"/><path d="M904.761550260765,387.08509424975523L956.2251556616287,501L961,501L961,380.07918109697897L956.8304729472931,379.23726851059985Z"/><path d="M595.0090137891673,88.06834851308685L630.8019901469813,116.761634677384L643.6695839599178,60.0156581394868L626.1466926814817,36.93622227542442L614.4331290621394,38.170902229347824L602.2179073552451,46.466021930942375Z"/><path d="M329.8878537501848,501L357.4802115071142,469.62958604810296L359.0219226763577,436.94876066986944L333.65166863394865,429.33885813378276L275.52358447599624,467.7944734755274L266.8748042333963,501Z"/><path d="M743.8698047716435,72.59423322384595L791.1705647195216,105.58559118334304L826.1140480385113,83.37936081215487L779.0374090316102,-1L763.226518249499,-1Z"/><path d="M132.82113445598375,363.66862689898477L137.2829982570908,402.62504311318594L143.09422816268545,410.5188736241683L198.37780052596827,407.52557921576425L217.3124365884806,384.6972863857843L206.99132248350566,373.96640106062085L148.64621195938727,359.2403345694466Z"/><path d="M117.42740311824409,70.99141586878372L135.1585899876348,133.57831791677296L151.302094221665,177.32069886899444L219.72350288633336,111.56198637192179L217.81048383561415,100.06227768983436L140.81041538593064,24.035400509752208Z"/><path d="M333.2443534971405,96.02954341089644L333.28140594585517,106.6010053578763L366.59736333063455,130.6469882072749L397.25807268691983,107.94039419028148L389.4398839677075,73.95121756862355L370.3441398569832,67.78479282454877Z"/><path d="M399.7745338083141,258.56342950345686L426.5504932830021,338.15912956900854L453.07104871047676,343.6072401093709L506.0524343150413,285.05660142137066L413.8870151276188,248.00746107376494Z"/><path d="M315.07107280229536,178.66139523859636L387.3735324298546,258.7154355565766L399.7745338083141,258.56342950345686L413.8870151276188,248.00746107376494L441.2814734653234,190.54159680147555L340.6339097434677,163.9952328261254Z"/><path d="M55.52422527774321,289.7993979640339L74.5389352540113,336.92849551969135L132.82113445598375,363.66862689898477L148.64621195938727,359.2403345694466L153.2415488995659,349.8164018586394L159.67362227446378,281.8231115352364Z"/><path d="M698.8476678433422,255.41335220320556L741.3217372865806,312.5410942809519L825.1072792722839,305.97977412358216L835.9932718425564,218.767875095073L834.0219111353387,215.46476588478964L797.2522394673256,190.32031373887472L702.2960770944837,231.68532860072781Z"/><path d="M709.5180904369412,430.2141148556126L754.9489950608514,464.6860154658903L844.2698344904101,434.4726537757379L849.3186674250614,379.8188496922549L842.9131286673612,368.7131451059503Z"/><path d="M357.4802115071142,469.62958604810296L372.2554630785156,482.89350149721224L401.25545970838346,476.09755090526073L403.0530584690103,465.0387333765717L383.58020576646277,435.03189509586326L359.0219226763577,436.94876066986944Z"/><path d="M558.1008866720786,223.55185646161797L606.6190237507882,242.24721672740372L630.1550000674628,218.6315131245882L618.0757980701667,170.57012569356579Z"/><path d="M717.3028814486595,147.08636224126423L785.2199562418161,172.6780722248464L791.1705647195216,105.58559118334304L743.8698047716435,72.59423322384595L742.3868722795289,73.52589668008655Z"/><path d="M844.2698344904101,434.4726537757379L869.9861077725775,501L956.2251556616287,501L904.761550260765,387.08509424975523L849.3186674250614,379.8188496922549Z"/><path d="M825.1072792722839,305.97977412358216L828.2187747762856,310.1703084074949L929.6612859344458,300.5943771696936L945.4429419343152,291.0178517207379L894.5158059489871,208.852336096412L835.9932718425564,218.767875095073Z"/><path d="M148.64621195938727,359.2403345694466L206.99132248350566,373.96640106062085L208.09019825179436,301.6558766043177L203.93550642448707,297.4798385046369L153.2415488995659,349.8164018586394Z"/><path d="M436.56880070473386,137.3804217329863L442.4928290765216,189.14081139279642L536.5170273346409,198.6719232508769L543.2631071512949,162.53131335323235L536.8336585785228,136.48637930490082L502.51983474438526,105.69254540285591L462.04998600911324,117.7378027775309Z"/><path d="M681.0636565091361,31.3887350652605L681.7746201779383,59.565654475914826L689.3190310639766,72.83510561511733L742.3868722795289,73.52589668008655L743.8698047716435,72.59423322384595L763.226518249499,-1L703.4049799801821,-1Z"/><path d="M453.07104871047676,343.6072401093709L500.1441578452412,394.9894865968112L564.2875256238583,362.4460581303155L565.0999409999232,360.8968171709498L523.7687106807758,282.2404493692799L506.0524343150413,285.05660142137066Z"/><path d="M779.0374090316102,-1L826.1140480385113,83.37936081215487L843.1282192253423,84.3045818567802L885.8526330775861,38.67895929753364L883.9865239387909,-1Z"/><path d="M117.10705055648769,501L116.56842414971057,499.4196068946074L70.36897024982571,459.8172499881732L-1,471.93405227559026L-1,501Z"/><path d="M555.4517356846465,36.64874749231214L556.1607042510163,73.43971449075767L574.6608114832975,91.10392683362079L595.0090137891673,88.06834851308685L602.2179073552451,46.466021930942375L569.5393913296575,31.051260274929277Z"/><path d="M153.2415488995659,349.8164018586394L203.93550642448707,297.4798385046369L193.06407540497344,277.7185282075366L180.45586989805173,274.0491261891068L159.67362227446378,281.8231115352364Z"/><path d="M389.4398839677075,73.95121756862355L397.25807268691983,107.94039419028148L436.56880070473386,137.3804217329863L462.04998600911324,117.7378027775309L445.57779260800083,7.16781008808816Z"/><path d="M152.96195185648585,203.71702020232902L180.45586989805173,274.0491261891068L193.06407540497344,277.7185282075366L226.4273295312014,244.07432878561337L202.5054591509238,198.55474741898095Z"/><path d="M332.1628328739639,357.30560053216396L333.65166863394865,429.33885813378276L359.0219226763577,436.94876066986944L383.58020576646277,435.03189509586326L404.19762363147186,401.7445320269191L397.050374965356,368.87753489880413Z"/><path d="M605.0137263398661,345.52810043399427L691.9757778384577,395.3742206248634L727.2551810760026,326.53639700008557L625.8774254015129,307.860346433977Z"/><path d="M397.050374965356,368.87753489880413L404.19762363147186,401.7445320269191L483.8835698902023,431.045495636547L500.1441578452412,394.9894865968112L453.07104871047676,343.6072401093709L426.5504932830021,338.15912956900854Z"/><path d="M304.0725763106722,318.9069078364024L304.7978725132798,329.95873910664665L332.1628328739639,357.30560053216396L397.050374965356,368.87753489880413L426.5504932830021,338.15912956900854L399.7745338083141,258.56342950345686L387.3735324298546,258.7154355565766L306.1554174484464,313.1069924267741Z"/><path d="M146.00125493411844,199.61215978460183L152.96195185648585,203.71702020232902L202.5054591509238,198.55474741898095L213.47253387583532,184.87687127632728L225.73460735814086,123.56386389236725L219.72350288633336,111.56198637192179L151.302094221665,177.32069886899444Z"/><path d="M202.5054591509238,198.55474741898095L226.4273295312014,244.07432878561337L271.94088868817204,238.16204406735633L281.5226187611277,212.82867850352443L213.47253387583532,184.87687127632728Z"/><path d="M916.1825352572073,116.35903267286685L957.7900285212411,183.59543555627246L961,183.55082369821207L961,74.55681138564384L927.5316414441655,80.19778188967965Z"/><path d="M70.36897024982571,459.8172499881732L116.56842414971057,499.4196068946074L131.27333653245464,456.38772701636526L101.37170038143108,425.40581992060527L82.61384155288059,425.32225606630925Z"/><path d="M445.57779260800083,7.16781008808816L462.04998600911324,117.7378027775309L502.51983474438526,105.69254540285591L503.40237234398836,100.40607204483761L483.1478278487775,41.7337828002299L449.36915773410846,0.3046359033377115Z"/><path d="M101.37170038143108,425.40581992060527L131.27333653245464,456.38772701636526L148.5652293142336,438.7255122197605L143.09422816268545,410.5188736241683L137.2829982570908,402.62504311318594Z"/><path d="M564.2875256238583,362.4460581303155L593.2596916999786,435.6461169539571L693.1714117292465,403.0630362034116L691.9757778384577,395.3742206248634L605.0137263398661,345.52810043399427L565.0999409999232,360.8968171709498Z"/><path d="M311.44041980584143,128.74723201860107L313.1475835463687,178.44005117291857L315.07107280229536,178.66139523859636L340.6339097434677,163.9952328261254L366.59736333063455,130.6469882072749L333.28140594585517,106.6010053578763Z"/><path d="M536.5170273346409,198.6719232508769L552.0828239746185,222.79376479706386L558.1008866720786,223.55185646161797L618.0757980701667,170.57012569356579L649.0374625246262,133.93364164182702L637.4640170590263,126.66883277201882L543.2631071512949,162.53131335323235Z"/><path d="M-1,471.93405227559026L70.36897024982571,459.8172499881732L82.61384155288059,425.32225606630925L61.52702703999705,376.1265753823381L-1,423.29324409666316Z"/><path d="M358.03044224636545,501L372.2554630785156,482.89350149721224L357.4802115071142,469.62958604810296L329.8878537501848,501Z"/><path d="M913.8238726826304,-1L961,33.41351860460717L961,-1Z"/><path d="M81.18030599928389,212.21441546012568L146.00125493411844,199.61215978460183L151.302094221665,177.32069886899444L135.1585899876348,133.57831791677296Z"/><path d="M655.3252279599228,135.54592088079997L676.7094771163199,155.16466078630992L717.3028814486595,147.08636224126423L742.3868722795289,73.52589668008655L689.3190310639766,72.83510561511733Z"/><path d="M828.2187747762856,310.1703084074949L842.9131286673612,368.7131451059503L849.3186674250614,379.8188496922549L904.761550260765,387.08509424975523L956.8304729472931,379.23726851059985L929.6612859344458,300.5943771696936Z"/><path d="M383.58020576646277,435.03189509586326L403.0530584690103,465.0387333765717L484.22394865998575,443.9558348986063L483.8835698902023,431.045495636547L404.19762363147186,401.7445320269191Z"/><path d="M569.5393913296575,31.051260274929277L602.2179073552451,46.466021930942375L614.4331290621394,38.170902229347824L602.3019601855143,-1L574.4850312174698,-1Z"/><path d="M638.0432284316354,26.25581272502732L681.0636565091361,31.3887350652605L703.4049799801821,-1L641.0880005409211,-1Z"/><path d="M61.52702703999705,376.1265753823381L82.61384155288059,425.32225606630925L101.37170038143108,425.40581992060527L137.2829982570908,402.62504311318594L132.82113445598375,363.66862689898477L74.5389352540113,336.92849551969135Z"/><path d="M523.7687106807758,282.2404493692799L565.0999409999232,360.8968171709498L605.0137263398661,345.52810043399427L625.8774254015129,307.860346433977L628.9681324674136,269.9803614832658L606.6190237507882,242.24721672740372L558.1008866720786,223.55185646161797L552.0828239746185,222.79376479706386Z"/><path d="M483.1478278487775,41.7337828002299L503.40237234398836,100.40607204483761L530.0142877449359,74.79268781019465L525.9449939338256,51.73775573778554Z"/><path d="M630.8019901469813,116.761634677384L637.4640170590263,126.66883277201882L649.0374625246262,133.93364164182702L655.3252279599228,135.54592088079997L689.3190310639766,72.83510561511733L681.7746201779383,59.565654475914826L643.6695839599178,60.0156581394868Z"/><path d="M536.8336585785228,136.48637930490082L543.2631071512949,162.53131335323235L637.4640170590263,126.66883277201882L630.8019901469813,116.761634677384L595.0090137891673,88.06834851308685L574.6608114832975,91.10392683362079Z"/><path d="M213.47253387583532,184.87687127632728L281.5226187611277,212.82867850352443L306.05667323200674,180.46299436955798L225.73460735814086,123.56386389236725Z"/><path d="M761.8041966484535,501L754.9489950608514,464.6860154658903L709.5180904369412,430.2141148556126L706.824991047193,429.4125973831081L669.7768053720989,487.5901280319687L668.8511507789375,501Z"/><path d="M143.09422816268545,410.5188736241683L148.5652293142336,438.7255122197605L185.53293029183394,449.14407875526L198.37780052596827,407.52557921576425Z"/><path d="M136.3641646016314,-1L140.81041538593064,24.035400509752208L217.81048383561415,100.06227768983436L284.51817142125265,76.79345534306567L314.53778698622904,25.801851832317457L310.4359137127194,-1Z"/><path d="M602.3019601855143,-1L614.4331290621394,38.170902229347824L626.1466926814817,36.93622227542442L638.0432284316354,26.25581272502732L641.0880005409211,-1Z"/><path d="M284.51817142125265,76.79345534306567L288.96831017116807,81.49616066819853L333.2443534971405,96.02954341089644L370.3441398569832,67.78479282454877L314.53778698622904,25.801851832317457Z"/><path d="M574.2280181806578,501L572.4041485561686,472.5922819207477L487.1309271787024,451.0723410802871L480.0685897795259,501Z"/></g><g class="links"><line x1="659.4364097936623" y1="11.328854418775848" x2="620.4713137573406" y2="6.976027424265174"/><line x1="620.4713137573406" y1="6.976027424265174" x2="591.8208856627625" y2="15.849021310529787"/><line x1="591.8208856627625" y1="15.849021310529787" x2="552.8766831187464" y2="9.839772337420062"/><line x1="552.8766831187464" y1="9.839772337420062" x2="521.3256207772226" y2="37.05335611355376"/><line x1="959.1273479590642" y1="13.25058946599389" x2="941.2283559611534" y2="37.787606838776576"/><line x1="371.9913202006876" y1="23.561275003882276" x2="259.0439575584546" y2="40.84723620595232"/><line x1="707.4973224011721" y1="44.48063851014461" x2="659.4364097936623" y2="11.328854418775848"/><line x1="659.4364097936623" y1="11.328854418775848" x2="655.3238814194624" y2="45.79708605516364"/><line x1="655.3238814194624" y1="45.79708605516364" x2="620.4713137573406" y2="6.976027424265174"/><line x1="521.3256207772226" y1="37.05335611355376" x2="371.9913202006876" y2="23.561275003882276"/><line x1="591.8208856627625" y1="15.849021310529787" x2="571.9782830796053" y2="57.91433742038365"/><line x1="571.9782830796053" y1="57.91433742038365" x2="552.8766831187464" y2="9.839772337420062"/><line x1="539.7567374729036" y1="58.535252170150656" x2="521.3256207772226" y2="37.05335611355376"/><line x1="552.8766831187464" y1="9.839772337420062" x2="539.7567374729036" y2="58.535252170150656"/><line x1="707.4973224011721" y1="44.48063851014461" x2="655.3238814194624" y2="45.79708605516364"/><line x1="941.2283559611534" y1="37.787606838776576" x2="830.6376781796455" y2="42.98870805075838"/><line x1="515.2949031159184" y1="62.852870446238995" x2="521.3256207772226" y2="37.05335611355376"/><line x1="571.9782830796053" y1="57.91433742038365" x2="539.7567374729036" y2="58.535252170150656"/><line x1="830.6376781796455" y1="42.98870805075838" x2="789.3674211375928" y2="66.01406559514888"/><line x1="539.7567374729036" y1="58.535252170150656" x2="515.2949031159184" y2="62.852870446238995"/><line x1="655.3238814194624" y1="45.79708605516364" x2="626.8426066763776" y2="67.42128261880664"/><line x1="626.8426066763776" y1="67.42128261880664" x2="620.4713137573406" y2="6.976027424265174"/><line x1="789.3674211375928" y1="66.01406559514888" x2="707.4973224011721" y2="44.48063851014461"/><line x1="626.8426066763776" y1="67.42128261880664" x2="591.8208856627625" y2="15.849021310529787"/><line x1="655.3238814194624" y1="45.79708605516364" x2="655.6564144919272" y2="73.95503889278798"/><line x1="470.8755920826295" y1="78.18707452264262" x2="521.3256207772226" y2="37.05335611355376"/><line x1="655.6564144919272" y1="73.95503889278798" x2="626.8426066763776" y2="67.42128261880664"/><line x1="626.8426066763776" y1="67.42128261880664" x2="571.9782830796053" y2="57.91433742038365"/><line x1="515.2949031159184" y1="62.852870446238995" x2="470.8755920826295" y2="78.18707452264262"/><line x1="35.59620779193672" y1="80.53123195924971" x2="20.915706189264753" y2="60.75388708189888"/><line x1="470.8755920826295" y1="78.18707452264262" x2="371.9913202006876" y2="23.561275003882276"/><line x1="371.9913202006876" y1="23.561275003882276" x2="328.30994705810906" y2="81.62528971551708"/><line x1="442.07931388410367" y1="82.47700840609384" x2="371.9913202006876" y2="23.561275003882276"/><line x1="470.8755920826295" y1="78.18707452264262" x2="442.07931388410367" y2="82.47700840609384"/><line x1="328.30994705810906" y1="81.62528971551708" x2="259.0439575584546" y2="40.84723620595232"/><line x1="707.4973224011721" y1="44.48063851014461" x2="655.6564144919272" y2="73.95503889278798"/><line x1="539.7567374729036" y1="58.535252170150656" x2="541.3827251980904" y2="89.95771908583173"/><line x1="541.3827251980904" y1="89.95771908583173" x2="515.2949031159184" y2="62.852870446238995"/><line x1="885.1745229765082" y1="94.0577044368649" x2="830.6376781796455" y2="42.98870805075838"/><line x1="941.2283559611534" y1="37.787606838776576" x2="885.1745229765082" y2="94.0577044368649"/><line x1="571.9782830796053" y1="57.91433742038365" x2="541.3827251980904" y2="89.95771908583173"/><line x1="707.4973224011721" y1="44.48063851014461" x2="706.7531003243683" y2="101.65314320923902"/><line x1="328.30994705810906" y1="81.62528971551708" x2="345.81587692539864" y2="104.61951928584324"/><line x1="320.7333530584737" y1="104.70743168254093" x2="328.30994705810906" y2="81.62528971551708"/><line x1="706.7531003243683" y1="101.65314320923902" x2="655.6564144919272" y2="73.95503889278798"/><line x1="345.81587692539864" y1="104.61951928584324" x2="320.7333530584737" y2="104.70743168254093"/><line x1="371.9913202006876" y1="23.561275003882276" x2="345.81587692539864" y2="104.61951928584324"/><line x1="941.2283559611534" y1="37.787606838776576" x2="954.3729200641916" y2="115.77542512581296"/><line x1="789.3674211375928" y1="66.01406559514888" x2="753.4124232273048" y2="117.56389120938226"/><line x1="753.4124232273048" y1="117.56389120938226" x2="707.4973224011721" y2="44.48063851014461"/><line x1="753.4124232273048" y1="117.56389120938226" x2="706.7531003243683" y2="101.65314320923902"/><line x1="345.81587692539864" y1="104.61951928584324" x2="335.3489383634475" y2="119.12157120797761"/><line x1="335.3489383634475" y1="119.12157120797761" x2="320.7333530584737" y2="104.70743168254093"/><line x1="286.9276830690904" y1="120.78505070454881" x2="328.30994705810906" y2="81.62528971551708"/><line x1="320.7333530584737" y1="104.70743168254093" x2="286.9276830690904" y2="120.78505070454881"/><line x1="286.9276830690904" y1="120.78505070454881" x2="259.0439575584546" y2="40.84723620595232"/><line x1="571.9782830796053" y1="57.91433742038365" x2="581.7820537312251" y2="123.63134176652247"/><line x1="830.6376781796455" y1="42.98870805075838" x2="826.2311129106265" y2="124.02237199106403"/><line x1="826.2311129106265" y1="124.02237199106403" x2="789.3674211375928" y2="66.01406559514888"/><line x1="581.7820537312251" y1="123.63134176652247" x2="541.3827251980904" y2="89.95771908583173"/><line x1="954.3729200641916" y1="115.77542512581296" x2="885.1745229765082" y2="94.0577044368649"/><line x1="259.0439575584546" y1="40.84723620595232" x2="35.59620779193672" y2="80.53123195924971"/><line x1="626.8426066763776" y1="67.42128261880664" x2="581.7820537312251" y2="123.63134176652247"/><line x1="442.07931388410367" y1="82.47700840609384" x2="345.81587692539864" y2="104.61951928584324"/><line x1="885.1745229765082" y1="94.0577044368649" x2="826.2311129106265" y2="124.02237199106403"/><line x1="541.3827251980904" y1="89.95771908583173" x2="470.8755920826295" y2="78.18707452264262"/><line x1="259.0439575584546" y1="40.84723620595232" x2="159.1246680353239" y2="142.04555510125294"/><line x1="159.1246680353239" y1="142.04555510125294" x2="35.59620779193672" y2="80.53123195924971"/><line x1="826.2311129106265" y1="124.02237199106403" x2="753.4124232273048" y2="117.56389120938226"/><line x1="491.0666549190829" y1="146.02533227072945" x2="470.8755920826295" y2="78.18707452264262"/><line x1="541.3827251980904" y1="89.95771908583173" x2="491.0666549190829" y2="146.02533227072945"/><line x1="898.620030146479" y1="150.276646270194" x2="885.1745229765082" y2="94.0577044368649"/><line x1="159.1246680353239" y1="142.04555510125294" x2="119.19496264486632" y2="153.35784288769773"/><line x1="119.19496264486632" y1="153.35784288769773" x2="35.59620779193672" y2="80.53123195924971"/><line x1="335.3489383634475" y1="119.12157120797761" x2="286.9276830690904" y2="120.78505070454881"/><line x1="954.3729200641916" y1="115.77542512581296" x2="898.620030146479" y2="150.276646270194"/><line x1="122.43906347918326" y1="155.584695355247" x2="119.19496264486632" y2="153.35784288769773"/><line x1="385.4334760976809" y1="158.11515464765756" x2="345.81587692539864" y2="104.61951928584324"/><line x1="491.0666549190829" y1="146.02533227072945" x2="442.07931388410367" y2="82.47700840609384"/><line x1="159.1246680353239" y1="142.04555510125294" x2="122.43906347918326" y2="155.584695355247"/><line x1="442.07931388410367" y1="82.47700840609384" x2="385.4334760976809" y2="158.11515464765756"/><line x1="385.4334760976809" y1="158.11515464765756" x2="335.3489383634475" y2="119.12157120797761"/><line x1="597.8993002569699" y1="165.9669313807095" x2="581.7820537312251" y2="123.63134176652247"/><line x1="655.6564144919272" y1="73.95503889278798" x2="581.7820537312251" y2="123.63134176652247"/><line x1="898.620030146479" y1="150.276646270194" x2="826.2311129106265" y2="124.02237199106403"/><line x1="186.85980981282611" y1="170.9037462709585" x2="159.1246680353239" y2="142.04555510125294"/><line x1="286.9276830690904" y1="120.78505070454881" x2="159.1246680353239" y2="142.04555510125294"/><line x1="286.9276830690904" y1="120.78505070454881" x2="186.85980981282611" y2="170.9037462709585"/><line x1="286.9276830690904" y1="120.78505070454881" x2="243.41236007551083" y2="182.21376937763"/><line x1="655.6564144919272" y1="73.95503889278798" x2="597.8993002569699" y2="165.9669313807095"/><line x1="581.7820537312251" y1="123.63134176652247" x2="491.0666549190829" y2="146.02533227072945"/><line x1="243.41236007551083" y1="182.21376937763" x2="186.85980981282611" y2="170.9037462709585"/><line x1="597.8993002569699" y1="165.9669313807095" x2="625.9784651029606" y2="189.6967649429927"/><line x1="625.9784651029606" y1="189.6967649429927" x2="620.1551128677407" y2="191.16033998722602"/><line x1="385.4334760976809" y1="158.11515464765756" x2="376.7056881963723" y2="191.20558532849853"/><line x1="620.1551128677407" y1="191.16033998722602" x2="597.8993002569699" y2="165.9669313807095"/><line x1="491.0666549190829" y1="146.02533227072945" x2="385.4334760976809" y2="158.11515464765756"/><line x1="753.4124232273048" y1="117.56389120938226" x2="724.9509124487794" y2="193.0970450881576"/><line x1="724.9509124487794" y1="193.0970450881576" x2="706.7531003243683" y2="101.65314320923902"/><line x1="655.6564144919272" y1="73.95503889278798" x2="625.9784651029606" y2="189.6967649429927"/><line x1="706.7531003243683" y1="101.65314320923902" x2="625.9784651029606" y2="189.6967649429927"/><line x1="243.41236007551083" y1="182.21376937763" x2="232.89609180891986" y2="207.81615426613965"/><line x1="376.7056881963723" y1="191.20558532849853" x2="335.3489383634475" y2="119.12157120797761"/><line x1="186.85980981282611" y1="170.9037462709585" x2="122.43906347918326" y2="155.584695355247"/><line x1="232.89609180891986" y1="207.81615426613965" x2="186.85980981282611" y2="170.9037462709585"/><line x1="724.9509124487794" y1="193.0970450881576" x2="625.9784651029606" y2="189.6967649429927"/><line x1="597.8993002569699" y1="165.9669313807095" x2="491.0666549190829" y2="146.02533227072945"/><line x1="657.6598328052293" y1="228.53844283582802" x2="625.9784651029606" y2="189.6967649429927"/><line x1="192.89629029182947" y1="228.83721895034327" x2="186.85980981282611" y2="170.9037462709585"/><line x1="232.89609180891986" y1="207.81615426613965" x2="192.89629029182947" y2="228.83721895034327"/><line x1="724.9509124487794" y1="193.0970450881576" x2="657.6598328052293" y2="228.53844283582802"/><line x1="826.2311129106265" y1="124.02237199106403" x2="724.9509124487794" y2="193.0970450881576"/><line x1="491.0666549190829" y1="146.02533227072945" x2="481.42634215367417" y2="241.126797326929"/><line x1="376.7056881963723" y1="191.20558532849853" x2="321.2949991543459" y2="241.25089288965663"/><line x1="745.9815558275191" y1="241.37429661400665" x2="724.9509124487794" y2="193.0970450881576"/><line x1="321.2949991543459" y1="241.25089288965663" x2="335.3489383634475" y2="119.12157120797761"/><line x1="321.2949991543459" y1="241.25089288965663" x2="286.9276830690904" y2="120.78505070454881"/><line x1="321.2949991543459" y1="241.25089288965663" x2="243.41236007551083" y2="182.21376937763"/><line x1="657.6598328052293" y1="228.53844283582802" x2="620.1551128677407" y2="191.16033998722602"/><line x1="140.65120271244632" y1="249.26063936531727" x2="122.43906347918326" y2="155.584695355247"/><line x1="186.85980981282611" y1="170.9037462709585" x2="140.65120271244632" y2="249.26063936531727"/><line x1="192.89629029182947" y1="228.83721895034327" x2="140.65120271244632" y2="249.26063936531727"/><line x1="956.2589865557052" y1="251.48421514326446" x2="898.620030146479" y2="150.276646270194"/><line x1="954.3729200641916" y1="115.77542512581296" x2="956.2589865557052" y2="251.48421514326446"/><line x1="932.5272792564137" y1="253.6081626633726" x2="898.620030146479" y2="150.276646270194"/><line x1="956.2589865557052" y1="251.48421514326446" x2="932.5272792564137" y2="253.6081626633726"/><line x1="481.42634215367417" y1="241.126797326929" x2="385.4334760976809" y2="158.11515464765756"/><line x1="481.42634215367417" y1="241.126797326929" x2="376.7056881963723" y2="191.20558532849853"/><line x1="321.2949991543459" y1="241.25089288965663" x2="232.89609180891986" y2="207.81615426613965"/><line x1="826.2311129106265" y1="124.02237199106403" x2="745.9815558275191" y2="241.37429661400665"/><line x1="932.5272792564137" y1="253.6081626633726" x2="917.6861517399968" y2="262.80686514440146"/><line x1="917.6861517399968" y1="262.80686514440146" x2="898.620030146479" y2="150.276646270194"/><line x1="597.8993002569699" y1="165.9669313807095" x2="481.42634215367417" y2="241.126797326929"/><line x1="745.9815558275191" y1="241.37429661400665" x2="657.6598328052293" y2="228.53844283582802"/><line x1="232.89609180891986" y1="207.81615426613965" x2="241.9450731161693" y2="277.4764212182664"/><line x1="241.9450731161693" y1="277.4764212182664" x2="192.89629029182947" y2="228.83721895034327"/><line x1="140.65120271244632" y1="249.26063936531727" x2="119.19496264486632" y2="153.35784288769773"/><line x1="321.2949991543459" y1="241.25089288965663" x2="241.9450731161693" y2="277.4764212182664"/><line x1="620.1551128677407" y1="191.16033998722602" x2="582.3747078188912" y2="289.2079223333086"/><line x1="582.3747078188912" y1="289.2079223333086" x2="597.8993002569699" y2="165.9669313807095"/><line x1="657.6598328052293" y1="228.53844283582802" x2="582.3747078188912" y2="289.2079223333086"/><line x1="582.3747078188912" y1="289.2079223333086" x2="481.42634215367417" y2="241.126797326929"/><line x1="671.8284057087653" y1="296.50663589529836" x2="657.6598328052293" y2="228.53844283582802"/><line x1="481.42634215367417" y1="241.126797326929" x2="457.8728928512811" y2="299.7196142736021"/><line x1="745.9815558275191" y1="241.37429661400665" x2="671.8284057087653" y2="296.50663589529836"/><line x1="898.620030146479" y1="150.276646270194" x2="745.9815558275191" y2="241.37429661400665"/><line x1="917.6861517399968" y1="262.80686514440146" x2="745.9815558275191" y2="241.37429661400665"/><line x1="457.8728928512811" y1="299.7196142736021" x2="376.7056881963723" y2="191.20558532849853"/><line x1="145.83155939602" y1="316.90251214259314" x2="140.65120271244632" y2="249.26063936531727"/><line x1="140.65120271244632" y1="249.26063936531727" x2="166.6920793237984" y2="318.8758889914821"/><line x1="166.6920793237984" y1="318.8758889914821" x2="145.83155939602" y2="316.90251214259314"/><line x1="671.8284057087653" y1="296.50663589529836" x2="582.3747078188912" y2="289.2079223333086"/><line x1="192.89629029182947" y1="228.83721895034327" x2="166.6920793237984" y2="318.8758889914821"/><line x1="378.3636565938508" y1="326.4664866892507" x2="321.2949991543459" y2="241.25089288965663"/><line x1="241.9450731161693" y1="277.4764212182664" x2="166.6920793237984" y2="318.8758889914821"/><line x1="376.7056881963723" y1="191.20558532849853" x2="378.3636565938508" y2="326.4664866892507"/><line x1="956.2589865557052" y1="251.48421514326446" x2="957.6496685331044" y2="328.664830333526"/><line x1="457.8728928512811" y1="299.7196142736021" x2="378.3636565938508" y2="326.4664866892507"/><line x1="957.6496685331044" y1="328.664830333526" x2="932.5272792564137" y2="253.6081626633726"/><line x1="957.6496685331044" y1="328.664830333526" x2="917.6861517399968" y2="262.80686514440146"/><line x1="496.2620001314384" y1="334.4572035976944" x2="457.8728928512811" y2="299.7196142736021"/><line x1="671.8284057087653" y1="296.50663589529836" x2="664.7659193989587" y2="334.8433855890366"/><line x1="183.73756535832442" y1="335.3863953323187" x2="166.6920793237984" y2="318.8758889914821"/><line x1="481.42634215367417" y1="241.126797326929" x2="496.2620001314384" y2="334.4572035976944"/><line x1="241.9450731161693" y1="277.4764212182664" x2="231.4066428627899" y2="336.1108035623901"/><line x1="924.9687781134626" y1="339.9552751869527" x2="917.6861517399968" y2="262.80686514440146"/><line x1="957.6496685331044" y1="328.664830333526" x2="924.9687781134626" y2="339.9552751869527"/><line x1="241.9450731161693" y1="277.4764212182664" x2="183.73756535832442" y2="335.3863953323187"/><line x1="582.3747078188912" y1="289.2079223333086" x2="496.2620001314384" y2="334.4572035976944"/><line x1="231.4066428627899" y1="336.1108035623901" x2="183.73756535832442" y2="335.3863953323187"/><line x1="664.7659193989587" y1="334.8433855890366" x2="582.3747078188912" y2="289.2079223333086"/><line x1="140.65120271244632" y1="249.26063936531727" x2="9.309936556715854" y2="371.98353846509167"/><line x1="9.309936556715854" y1="371.98353846509167" x2="119.19496264486632" y2="153.35784288769773"/><line x1="745.9815558275191" y1="241.37429661400665" x2="757.0030823161442" y2="382.1149570824853"/><line x1="183.73756535832442" y1="335.3863953323187" x2="145.83155939602" y2="316.90251214259314"/><line x1="757.0030823161442" y1="382.1149570824853" x2="671.8284057087653" y2="296.50663589529836"/><line x1="145.83155939602" y1="316.90251214259314" x2="9.309936556715854" y2="371.98353846509167"/><line x1="457.8728928512811" y1="299.7196142736021" x2="440.1825156146241" y2="385.8336202985252"/><line x1="378.3636565938508" y1="326.4664866892507" x2="241.9450731161693" y2="277.4764212182664"/><line x1="440.1825156146241" y1="385.8336202985252" x2="378.3636565938508" y2="326.4664866892507"/><line x1="496.2620001314384" y1="334.4572035976944" x2="440.1825156146241" y2="385.8336202985252"/><line x1="757.0030823161442" y1="382.1149570824853" x2="664.7659193989587" y2="334.8433855890366"/><line x1="378.3636565938508" y1="326.4664866892507" x2="231.4066428627899" y2="336.1108035623901"/><line x1="183.73756535832442" y1="335.3863953323187" x2="168.21428518885227" y2="396.89008885736155"/><line x1="168.21428518885227" y1="396.89008885736155" x2="145.83155939602" y2="316.90251214259314"/><line x1="378.3636565938508" y1="326.4664866892507" x2="364.8549132085703" y2="402.21434116285945"/><line x1="664.7659193989587" y1="334.8433855890366" x2="625.9927480481199" y2="402.4874568140991"/><line x1="301.35429347297986" y1="403.5268176772829" x2="231.4066428627899" y2="336.1108035623901"/><line x1="378.3636565938508" y1="326.4664866892507" x2="301.35429347297986" y2="403.5268176772829"/><line x1="145.83155939602" y1="316.90251214259314" x2="105.85603666960459" y2="404.03227646219085"/><line x1="625.9927480481199" y1="402.4874568140991" x2="582.3747078188912" y2="289.2079223333086"/><line x1="917.6861517399968" y1="262.80686514440146" x2="757.0030823161442" y2="382.1149570824853"/><line x1="105.85603666960459" y1="404.03227646219085" x2="9.309936556715854" y2="371.98353846509167"/><line x1="924.9687781134626" y1="339.9552751869527" x2="757.0030823161442" y2="382.1149570824853"/><line x1="168.21428518885227" y1="396.89008885736155" x2="105.85603666960459" y2="404.03227646219085"/><line x1="364.8549132085703" y1="402.21434116285945" x2="301.35429347297986" y2="403.5268176772829"/><line x1="440.1825156146241" y1="385.8336202985252" x2="364.8549132085703" y2="402.21434116285945"/><line x1="231.4066428627899" y1="336.1108035623901" x2="168.21428518885227" y2="396.89008885736155"/><line x1="168.21428518885227" y1="396.89008885736155" x2="169.53896098132347" y2="421.35571498411593"/><line x1="776.9317102672223" y1="425.339968406591" x2="757.0030823161442" y2="382.1149570824853"/><line x1="937.9623433715321" y1="426.16525889016344" x2="924.9687781134626" y2="339.9552751869527"/><line x1="51.1680766076379" y1="427.47325440944405" x2="9.309936556715854" y2="371.98353846509167"/><line x1="105.85603666960459" y1="404.03227646219085" x2="51.1680766076379" y2="427.47325440944405"/><line x1="957.6496685331044" y1="328.664830333526" x2="937.9623433715321" y2="426.16525889016344"/><line x1="122.61854999948355" y1="430.45646676192194" x2="105.85603666960459" y2="404.03227646219085"/><line x1="546.700065213159" y1="433.87104905119145" x2="496.2620001314384" y2="334.4572035976944"/><line x1="168.21428518885227" y1="396.89008885736155" x2="122.61854999948355" y2="430.45646676192194"/><line x1="625.9927480481199" y1="402.4874568140991" x2="496.2620001314384" y2="334.4572035976944"/><line x1="214.40595510353353" y1="435.2031801178701" x2="168.21428518885227" y2="396.89008885736155"/><line x1="231.4066428627899" y1="336.1108035623901" x2="214.40595510353353" y2="435.2031801178701"/><line x1="625.9927480481199" y1="402.4874568140991" x2="546.700065213159" y2="433.87104905119145"/><line x1="440.1825156146241" y1="385.8336202985252" x2="421.3032289942644" y2="437.17711369180546"/><line x1="937.9623433715321" y1="426.16525889016344" x2="912.141436482852" y2="437.83043066143756"/><line x1="912.141436482852" y1="437.83043066143756" x2="924.9687781134626" y2="339.9552751869527"/><line x1="169.53896098132347" y1="421.35571498411593" x2="122.61854999948355" y2="430.45646676192194"/><line x1="214.40595510353353" y1="435.2031801178701" x2="169.53896098132347" y2="421.35571498411593"/><line x1="421.3032289942644" y1="437.17711369180546" x2="364.8549132085703" y2="402.21434116285945"/><line x1="639.2478015670201" y1="443.1323321620163" x2="625.9927480481199" y2="402.4874568140991"/><line x1="301.35429347297986" y1="403.5268176772829" x2="214.40595510353353" y2="435.2031801178701"/><line x1="122.61854999948355" y1="430.45646676192194" x2="105.66542969030884" y2="446.81846902782473"/><line x1="105.66542969030884" y1="446.81846902782473" x2="105.85603666960459" y2="404.03227646219085"/><line x1="546.700065213159" y1="433.87104905119145" x2="440.1825156146241" y2="385.8336202985252"/><line x1="924.9687781134626" y1="339.9552751869527" x2="776.9317102672223" y2="425.339968406591"/><line x1="105.66542969030884" y1="446.81846902782473" x2="51.1680766076379" y2="427.47325440944405"/><line x1="757.0030823161442" y1="382.1149570824853" x2="625.9927480481199" y2="402.4874568140991"/><line x1="169.53896098132347" y1="421.35571498411593" x2="157.38214224147526" y2="464.4911736334467"/><line x1="912.141436482852" y1="437.83043066143756" x2="776.9317102672223" y2="425.339968406591"/><line x1="157.38214224147526" y1="464.4911736334467" x2="122.61854999948355" y2="430.45646676192194"/><line x1="364.8549132085703" y1="402.21434116285945" x2="344.7745367940982" y2="469.15925109561584"/><line x1="757.0030823161442" y1="382.1149570824853" x2="639.2478015670201" y2="443.1323321620163"/><line x1="364.8549132085703" y1="402.21434116285945" x2="370.1737369835936" y2="470.3574526907579"/><line x1="344.7745367940982" y1="469.15925109561584" x2="301.35429347297986" y2="403.5268176772829"/><line x1="370.1737369835936" y1="470.3574526907579" x2="344.7745367940982" y2="469.15925109561584"/><line x1="421.3032289942644" y1="437.17711369180546" x2="370.1737369835936" y2="470.3574526907579"/><line x1="421.3032289942644" y1="437.17711369180546" x2="432.55502785149565" y2="480.49746379534196"/><line x1="214.40595510353353" y1="435.2031801178701" x2="157.38214224147526" y2="464.4911736334467"/><line x1="370.1737369835936" y1="470.3574526907579" x2="359.56828218983094" y2="482.1713302324564"/><line x1="639.2478015670201" y1="443.1323321620163" x2="546.700065213159" y2="433.87104905119145"/><line x1="359.56828218983094" y1="482.1713302324564" x2="344.7745367940982" y2="469.15925109561584"/><line x1="796.3029993083887" y1="482.60800146791485" x2="776.9317102672223" y2="425.339968406591"/><line x1="157.38214224147526" y1="464.4911736334467" x2="105.66542969030884" y2="446.81846902782473"/><line x1="639.2478015670201" y1="443.1323321620163" x2="615.8661063492807" y2="489.05715533879356"/><line x1="546.700065213159" y1="433.87104905119145" x2="421.3032289942644" y2="437.17711369180546"/><line x1="546.700065213159" y1="433.87104905119145" x2="531.404546132308" y2="494.4798673096111"/><line x1="370.1737369835936" y1="470.3574526907579" x2="375.96008674734287" y2="495.04923475096183"/><line x1="615.8661063492807" y1="489.05715533879356" x2="546.700065213159" y2="433.87104905119145"/><line x1="375.96008674734287" y1="495.04923475096183" x2="359.56828218983094" y2="482.1713302324564"/><line x1="776.9317102672223" y1="425.339968406591" x2="722.9746178435404" y2="496.4506254774636"/><line x1="62.91879946353397" y1="496.68598147064927" x2="51.1680766076379" y2="427.47325440944405"/><line x1="105.66542969030884" y1="446.81846902782473" x2="62.91879946353397" y2="496.68598147064927"/><line x1="722.9746178435404" y1="496.4506254774636" x2="757.0030823161442" y2="382.1149570824853"/><line x1="432.55502785149565" y1="480.49746379534196" x2="370.1737369835936" y2="470.3574526907579"/><line x1="722.9746178435404" y1="496.4506254774636" x2="639.2478015670201" y2="443.1323321620163"/><line x1="912.141436482852" y1="437.83043066143756" x2="796.3029993083887" y2="482.60800146791485"/><line x1="546.700065213159" y1="433.87104905119145" x2="432.55502785149565" y2="480.49746379534196"/><line x1="432.55502785149565" y1="480.49746379534196" x2="375.96008674734287" y2="495.04923475096183"/><line x1="796.3029993083887" y1="482.60800146791485" x2="722.9746178435404" y2="496.4506254774636"/><line x1="531.404546132308" y1="494.4798673096111" x2="432.55502785149565" y2="480.49746379534196"/><line x1="615.8661063492807" y1="489.05715533879356" x2="531.404546132308" y2="494.4798673096111"/><line x1="344.7745367940982" y1="469.15925109561584" x2="214.40595510353353" y2="435.2031801178701"/><line x1="722.9746178435404" y1="496.4506254774636" x2="615.8661063492807" y2="489.05715533879356"/><line x1="157.38214224147526" y1="464.4911736334467" x2="62.91879946353397" y2="496.68598147064927"/></g><g class="sites"><circle r="2.5" cx="885.1745229765082" cy="94.0577044368649"/><circle r="2.5" cx="615.8661063492807" cy="489.05715533879356"/><circle r="2.5" cx="157.38214224147526" cy="464.4911736334467"/><circle r="2.5" cx="321.2949991543459" cy="241.25089288965663"/><circle r="2.5" cx="655.3238814194624" cy="45.79708605516364"/><circle r="2.5" cx="214.40595510353353" cy="435.2031801178701"/><circle r="2.5" cx="539.7567374729036" cy="58.535252170150656"/><circle r="2.5" cx="9.309936556715854" cy="371.98353846509167"/><circle r="2.5" cx="20.915706189264753" cy="60.75388708189888"/><circle r="2.5" cx="941.2283559611534" cy="37.787606838776576"/><circle r="2.5" cx="796.3029993083887" cy="482.60800146791485"/><circle r="2.5" cx="541.3827251980904" cy="89.95771908583173"/><circle r="2.5" cx="286.9276830690904" cy="120.78505070454881"/><circle r="2.5" cx="432.55502785149565" cy="480.49746379534196"/><circle r="2.5" cx="385.4334760976809" cy="158.11515464765756"/><circle r="2.5" cx="757.0030823161442" cy="382.1149570824853"/><circle r="2.5" cx="826.2311129106265" cy="124.02237199106403"/><circle r="2.5" cx="671.8284057087653" cy="296.50663589529836"/><circle r="2.5" cx="552.8766831187464" cy="9.839772337420062"/><circle r="2.5" cx="35.59620779193672" cy="80.53123195924971"/><circle r="2.5" cx="639.2478015670201" cy="443.1323321620163"/><circle r="2.5" cx="625.9784651029606" cy="189.6967649429927"/><circle r="2.5" cx="521.3256207772226" cy="37.05335611355376"/><circle r="2.5" cx="724.9509124487794" cy="193.0970450881576"/><circle r="2.5" cx="932.5272792564137" cy="253.6081626633726"/><circle r="2.5" cx="956.2589865557052" cy="251.48421514326446"/><circle r="2.5" cx="957.6496685331044" cy="328.664830333526"/><circle r="2.5" cx="119.19496264486632" cy="153.35784288769773"/><circle r="2.5" cx="241.9450731161693" cy="277.4764212182664"/><circle r="2.5" cx="301.35429347297986" cy="403.5268176772829"/><circle r="2.5" cx="320.7333530584737" cy="104.70743168254093"/><circle r="2.5" cx="546.700065213159" cy="433.87104905119145"/><circle r="2.5" cx="898.620030146479" cy="150.276646270194"/><circle r="2.5" cx="657.6598328052293" cy="228.53844283582802"/><circle r="2.5" cx="375.96008674734287" cy="495.04923475096183"/><circle r="2.5" cx="371.9913202006876" cy="23.561275003882276"/><circle r="2.5" cx="140.65120271244632" cy="249.26063936531727"/><circle r="2.5" cx="231.4066428627899" cy="336.1108035623901"/><circle r="2.5" cx="481.42634215367417" cy="241.126797326929"/><circle r="2.5" cx="937.9623433715321" cy="426.16525889016344"/><circle r="2.5" cx="626.8426066763776" cy="67.42128261880664"/><circle r="2.5" cx="344.7745367940982" cy="469.15925109561584"/><circle r="2.5" cx="789.3674211375928" cy="66.01406559514888"/><circle r="2.5" cx="168.21428518885227" cy="396.89008885736155"/><circle r="2.5" cx="159.1246680353239" cy="142.04555510125294"/><circle r="2.5" cx="345.81587692539864" cy="104.61951928584324"/><circle r="2.5" cx="457.8728928512811" cy="299.7196142736021"/><circle r="2.5" cx="376.7056881963723" cy="191.20558532849853"/><circle r="2.5" cx="145.83155939602" cy="316.90251214259314"/><circle r="2.5" cx="745.9815558275191" cy="241.37429661400665"/><circle r="2.5" cx="776.9317102672223" cy="425.339968406591"/><circle r="2.5" cx="370.1737369835936" cy="470.3574526907579"/><circle r="2.5" cx="620.1551128677407" cy="191.16033998722602"/><circle r="2.5" cx="753.4124232273048" cy="117.56389120938226"/><circle r="2.5" cx="912.141436482852" cy="437.83043066143756"/><circle r="2.5" cx="917.6861517399968" cy="262.80686514440146"/><circle r="2.5" cx="183.73756535832442" cy="335.3863953323187"/><circle r="2.5" cx="491.0666549190829" cy="146.02533227072945"/><circle r="2.5" cx="707.4973224011721" cy="44.48063851014461"/><circle r="2.5" cx="496.2620001314384" cy="334.4572035976944"/><circle r="2.5" cx="830.6376781796455" cy="42.98870805075838"/><circle r="2.5" cx="62.91879946353397" cy="496.68598147064927"/><circle r="2.5" cx="571.9782830796053" cy="57.91433742038365"/><circle r="2.5" cx="166.6920793237984" cy="318.8758889914821"/><circle r="2.5" cx="442.07931388410367" cy="82.47700840609384"/><circle r="2.5" cx="192.89629029182947" cy="228.83721895034327"/><circle r="2.5" cx="364.8549132085703" cy="402.21434116285945"/><circle r="2.5" cx="664.7659193989587" cy="334.8433855890366"/><circle r="2.5" cx="440.1825156146241" cy="385.8336202985252"/><circle r="2.5" cx="378.3636565938508" cy="326.4664866892507"/><circle r="2.5" cx="186.85980981282611" cy="170.9037462709585"/><circle r="2.5" cx="232.89609180891986" cy="207.81615426613965"/><circle r="2.5" cx="954.3729200641916" cy="115.77542512581296"/><circle r="2.5" cx="105.66542969030884" cy="446.81846902782473"/><circle r="2.5" cx="470.8755920826295" cy="78.18707452264262"/><circle r="2.5" cx="122.61854999948355" cy="430.45646676192194"/><circle r="2.5" cx="625.9927480481199" cy="402.4874568140991"/><circle r="2.5" cx="335.3489383634475" cy="119.12157120797761"/><circle r="2.5" cx="597.8993002569699" cy="165.9669313807095"/><circle r="2.5" cx="51.1680766076379" cy="427.47325440944405"/><circle r="2.5" cx="359.56828218983094" cy="482.1713302324564"/><circle r="2.5" cx="959.1273479590642" cy="13.25058946599389"/><circle r="2.5" cx="122.43906347918326" cy="155.584695355247"/><circle r="2.5" cx="706.7531003243683" cy="101.65314320923902"/><circle r="2.5" cx="924.9687781134626" cy="339.9552751869527"/><circle r="2.5" cx="421.3032289942644" cy="437.17711369180546"/><circle r="2.5" cx="591.8208856627625" cy="15.849021310529787"/><circle r="2.5" cx="659.4364097936623" cy="11.328854418775848"/><circle r="2.5" cx="105.85603666960459" cy="404.03227646219085"/><circle r="2.5" cx="582.3747078188912" cy="289.2079223333086"/><circle r="2.5" cx="515.2949031159184" cy="62.852870446238995"/><circle r="2.5" cx="655.6564144919272" cy="73.95503889278798"/><circle r="2.5" cx="581.7820537312251" cy="123.63134176652247"/><circle r="2.5" cx="243.41236007551083" cy="182.21376937763"/><circle r="2.5" cx="722.9746178435404" cy="496.4506254774636"/><circle r="2.5" cx="169.53896098132347" cy="421.35571498411593"/><circle r="2.5" cx="259.0439575584546" cy="40.84723620595232"/><circle r="2.5" cx="620.4713137573406" cy="6.976027424265174"/><circle r="2.5" cx="328.30994705810906" cy="81.62528971551708"/><circle r="2.5" cx="531.404546132308" cy="494.4798673096111"/></g></svg></svg>