<?xml version="1.0" encoding="utf-8"?>
<!-- Generator: Adobe Illustrator 15.1.0, SVG Export Plug-In . SVG Version: 6.00 Build 0)  -->
<!DOCTYPE svg PUBLIC "-//W3C//DTD SVG 1.1//EN" "http://www.w3.org/Graphics/SVG/1.1/DTD/svg11.dtd">
<svg version="1.1" id="Layer_1" xmlns="http://www.w3.org/2000/svg" xmlns:xlink="http://www.w3.org/1999/xlink" x="0px" y="0px"
	 width="359.861px" height="100.207px" viewBox="0 0 359.861 100.207" enable-background="new 0 0 359.861 100.207"
	 xml:space="preserve">
<g>
	<g>
		<path fill="#4D4C4D" d="M124.189,43.326c-0.243,0.479-0.489,0.901-0.729,1.256c-0.234,0.34-0.467,0.625-0.689,0.841
			c-0.175,0.17-0.347,0.312-0.506,0.423c-0.139,0.094-0.302,0.169-0.489,0.223c-0.201,0.059-0.447,0.101-0.733,0.126
			c-0.303,0.026-0.679,0.04-1.129,0.04h-2.726c-0.192,0-0.351-0.009-0.48-0.028c-0.131-0.022-0.198-0.047-0.278-0.089
			c-0.03-0.039-0.054-0.078-0.062-0.093c-0.011-0.033-0.065-0.235-0.065-1.148v-4.854h3.09c0.31,0,0.575,0.018,0.792,0.052
			c0.208,0.034,0.381,0.083,0.515,0.145c0.13,0.058,0.23,0.124,0.306,0.194c0.073,0.073,0.136,0.159,0.184,0.253
			c0.016,0.036,0.065,0.149,0.129,0.437c0.053,0.241,0.106,0.551,0.159,0.933l0.052,0.379h1.266V35.94h-1.298l-0.023,0.417
			c-0.022,0.374-0.066,0.697-0.131,0.962c-0.053,0.219-0.141,0.395-0.271,0.532c-0.127,0.134-0.312,0.234-0.552,0.302
			c-0.278,0.08-0.657,0.12-1.128,0.12h-3.09v-5.468h3.965c0.913,0,1.33,0.082,1.493,0.139c0.167,0.076,0.309,0.157,0.423,0.241
			c0.099,0.074,0.184,0.175,0.268,0.311c0.09,0.146,0.175,0.345,0.252,0.586c0.084,0.266,0.166,0.602,0.248,1.012l0.072,0.353h1.086
			v-4.402h-13.264v1.321h1.012c0.529,0,0.896,0.11,1.082,0.315c0.022,0.026,0.205,0.282,0.205,1.601v10.438
			c0,0.996-0.078,1.305-0.119,1.413c-0.024,0.068-0.064,0.129-0.128,0.185c-0.088,0.081-0.186,0.147-0.291,0.197
			c-0.115,0.055-0.233,0.094-0.363,0.118c-0.135,0.026-0.265,0.039-0.386,0.039h-1.012v1.321h13.138l1.69-4.911h-1.364
			L124.189,43.326z"/>
		<path fill="#4D4C4D" d="M142.582,46.16c-0.208-0.171-0.477-0.468-0.805-0.888c-0.346-0.435-0.758-1.013-1.231-1.719l-3.271-4.876
			l2.99-3.822c0.644-0.813,1.133-1.368,1.454-1.651c0.135-0.123,0.275-0.233,0.417-0.334c0.136-0.094,0.28-0.175,0.433-0.243
			c0.154-0.069,0.322-0.125,0.511-0.169c0.19-0.044,0.405-0.076,0.643-0.09l0.417-0.024v-1.295h-6.582v1.308l0.427,0.014
			c0.272,0.008,0.5,0.021,0.676,0.039c0.216,0.022,0.297,0.046,0.318,0.055c0.082,0.028,0.153,0.081,0.221,0.164
			c0.052,0.061,0.075,0.123,0.075,0.201c0,0.068-0.002,0.129-0.01,0.189c0,0-0.003,0.031-0.038,0.099
			c-0.038,0.075-0.1,0.17-0.179,0.279c-0.097,0.131-0.232,0.306-0.4,0.521l-2.48,3.138l-2.129-3.187
			c-0.442-0.644-0.491-0.933-0.491-1.029c0-0.041,0.009-0.08,0.032-0.123c0.006-0.015,0.032-0.054,0.11-0.105
			c0.058-0.039,0.172-0.096,0.379-0.149c0.187-0.048,0.423-0.08,0.706-0.095l0.42-0.019v-1.3h-8.312v1.306l0.426,0.015
			c0.69,0.021,1.312,0.208,1.845,0.556c0.545,0.357,1.242,1.146,2.071,2.345l2.978,4.363l-3.588,4.534
			c-0.539,0.681-1.025,1.192-1.444,1.523c-0.34,0.267-0.694,0.496-1.047,0.679c-0.333,0.17-0.72,0.273-1.156,0.308l-0.407,0.032
			v1.287h6.582v-1.308l-0.428-0.013c-0.268-0.007-0.486-0.033-0.648-0.074c-0.188-0.051-0.288-0.101-0.34-0.135
			c-0.033-0.023-0.073-0.057-0.091-0.093c-0.021-0.05-0.032-0.105-0.032-0.168c0-0.07,0.003-0.129,0.008-0.179
			c0-0.001,0.007-0.03,0.037-0.096c0.043-0.081,0.105-0.184,0.189-0.303c0.094-0.138,0.234-0.32,0.419-0.55l2.987-3.83l2.39,3.614
			c0.211,0.312,0.367,0.553,0.475,0.716c0.092,0.143,0.156,0.254,0.214,0.35c-0.005,0.067-0.007,0.159-0.007,0.276
			c0,0.133-0.046,0.21-0.167,0.28c-0.133,0.078-0.413,0.174-0.989,0.19l-0.431,0.013v1.308h7.779V46.7l-0.418-0.023
			C143.467,46.642,142.959,46.467,142.582,46.16z"/>
		<path fill="#4D4C4D" d="M158.962,43.326c-0.245,0.48-0.491,0.903-0.73,1.255c-0.236,0.346-0.466,0.629-0.688,0.843
			c-0.179,0.172-0.349,0.315-0.506,0.423c-0.138,0.094-0.304,0.168-0.488,0.223c-0.205,0.059-0.45,0.101-0.736,0.126
			c-0.302,0.026-0.677,0.04-1.128,0.04h-2.726c-0.191,0-0.351-0.009-0.478-0.028c-0.138-0.024-0.204-0.048-0.281-0.089
			c-0.027-0.038-0.051-0.078-0.06-0.095c-0.01-0.032-0.065-0.233-0.065-1.146v-4.854h3.088c0.31,0,0.577,0.018,0.794,0.052
			c0.206,0.034,0.38,0.083,0.517,0.145c0.125,0.058,0.227,0.123,0.301,0.195c0.075,0.072,0.136,0.154,0.185,0.251
			c0.018,0.036,0.066,0.15,0.13,0.437c0.053,0.241,0.106,0.551,0.16,0.933l0.052,0.379h1.265V35.94h-1.295l-0.024,0.415
			c-0.023,0.377-0.067,0.701-0.133,0.964c-0.052,0.22-0.141,0.395-0.27,0.532c-0.127,0.134-0.312,0.237-0.552,0.302
			c-0.277,0.08-0.657,0.12-1.129,0.12h-3.088v-5.468h3.967c0.908,0,1.329,0.082,1.489,0.139c0.168,0.076,0.312,0.157,0.425,0.241
			c0.098,0.074,0.186,0.175,0.267,0.309c0.091,0.148,0.176,0.347,0.251,0.588c0.085,0.266,0.166,0.602,0.25,1.014l0.074,0.351h1.085
			v-4.402h-13.265v1.321h1.01c0.53,0,0.898,0.11,1.084,0.315c0.021,0.026,0.204,0.282,0.204,1.601v10.438
			c0,0.996-0.077,1.305-0.12,1.413c-0.023,0.068-0.063,0.129-0.125,0.185c-0.087,0.079-0.187,0.146-0.293,0.197
			c-0.114,0.053-0.233,0.094-0.363,0.118c-0.134,0.026-0.265,0.039-0.387,0.039h-1.01v1.321h13.138l1.689-4.911h-1.361
			L158.962,43.326z"/>
		<path fill="#4D4C4D" d="M176.227,43.275c-0.437,0.555-0.836,1.04-1.199,1.452c-0.346,0.393-0.702,0.719-1.063,0.973
			c-0.354,0.246-0.752,0.433-1.183,0.551c-0.828,0.232-2.104,0.27-3.174-0.011c-0.5-0.133-0.966-0.328-1.386-0.582
			c-0.416-0.252-0.792-0.567-1.12-0.942c-0.327-0.373-0.604-0.819-0.822-1.319c-0.44-1.013-0.662-2.225-0.662-3.604
			c0-0.917,0.068-1.754,0.206-2.484c0.135-0.724,0.332-1.377,0.585-1.942c0.453-1.007,1.059-1.757,1.812-2.232
			c0.751-0.477,1.632-0.718,2.618-0.718c0.592,0,1.147,0.08,1.643,0.24c0.489,0.155,0.942,0.404,1.348,0.735
			c0.408,0.337,0.779,0.782,1.104,1.322c0.329,0.549,0.615,1.22,0.852,1.996l0.094,0.315h1.168l-0.427-6.346h-1.185l-0.074,0.349
			c-0.057,0.252-0.148,0.46-0.272,0.614c-0.11,0.133-0.206,0.152-0.297,0.152c-0.005,0-0.126-0.015-0.508-0.213
			c-1.849-0.931-3.822-1.104-5.658-0.663c-0.652,0.156-1.284,0.39-1.88,0.693c-0.595,0.304-1.153,0.683-1.665,1.126
			c-0.51,0.443-0.97,0.953-1.367,1.514c-0.571,0.798-1.001,1.68-1.273,2.618c-0.271,0.932-0.409,1.907-0.409,2.901
			c0,2.077,0.582,3.912,1.723,5.451c1.534,2.086,3.736,3.143,6.539,3.143c0.769,0,1.498-0.086,2.165-0.258
			c0.681-0.172,1.316-0.444,1.896-0.804c0.577-0.36,1.122-0.822,1.612-1.373c0.485-0.545,0.94-1.191,1.358-1.924l0.207-0.362
			l-1.057-0.68L176.227,43.275z"/>
		<path fill="#4D4C4D" d="M190.131,32.368h1.046c0.48,0,0.822,0.122,1.048,0.378c0.022,0.023,0.217,0.279,0.217,1.586v6.504
			c0,1.639-0.144,2.802-0.428,3.465c-0.128,0.303-0.317,0.584-0.571,0.84c-0.258,0.263-0.574,0.496-0.933,0.691
			c-0.364,0.2-0.771,0.357-1.214,0.471c-0.443,0.111-0.909,0.17-1.39,0.17c-0.735,0-1.34-0.112-1.793-0.331
			c-0.447-0.214-0.807-0.509-1.073-0.875c-0.175-0.238-0.316-0.5-0.424-0.779c-0.115-0.295-0.203-0.614-0.27-0.949
			s-0.112-0.692-0.134-1.06c-0.025-0.378-0.037-0.758-0.037-1.146v-7.001c0-0.358,0.019-0.684,0.053-0.967
			c0.028-0.237,0.086-0.437,0.173-0.592c0.073-0.124,0.182-0.217,0.327-0.287c0.169-0.08,0.414-0.119,0.726-0.119h1.057v-1.321
			h-7.825v1.321h1.045c0.253,0,0.476,0.026,0.652,0.076c0.13,0.038,0.235,0.108,0.321,0.21c0.097,0.119,0.174,0.306,0.224,0.548
			c0.062,0.286,0.091,0.665,0.091,1.13v6.281c0,0.795,0.012,1.504,0.037,2.131c0.024,0.653,0.118,1.26,0.272,1.799
			c0.16,0.558,0.414,1.075,0.755,1.537c0.342,0.464,0.827,0.904,1.445,1.309c0.984,0.655,2.412,0.986,4.237,0.986
			c0.671,0,1.328-0.065,1.953-0.193c0.634-0.129,1.227-0.338,1.757-0.616c0.538-0.283,1.02-0.648,1.434-1.091
			c0.419-0.448,0.745-0.994,0.969-1.627c0.339-0.945,0.513-2.258,0.513-3.905v-6.517c0-1.109,0.135-1.399,0.178-1.467
			c0.26-0.404,0.605-0.592,1.088-0.592h1.044v-1.321h-6.569V32.368z"/>
		<path fill="#4D4C4D" d="M198.027,35.696h1.276l0.052-0.38c0.073-0.536,0.182-0.971,0.323-1.293
			c0.127-0.295,0.289-0.521,0.48-0.669c0.199-0.154,0.448-0.262,0.739-0.318c0.337-0.065,0.739-0.1,1.195-0.1h1.489v11.834
			c0,1.164-0.149,1.431-0.183,1.478c-0.197,0.287-0.552,0.427-1.082,0.427h-1.011v1.321h7.696v-1.321h-0.998
			c-0.496,0-0.852-0.117-1.055-0.347c-0.019-0.024-0.21-0.278-0.21-1.557V32.937h1.822c0.403,0,0.76,0.044,1.061,0.132
			c0.275,0.079,0.502,0.203,0.688,0.374c0.19,0.173,0.346,0.408,0.465,0.697c0.131,0.315,0.229,0.709,0.287,1.173l0.048,0.384h1.104
			v-4.649h-14.188V35.696z"/>
		<path fill="#4D4C4D" d="M213.933,32.368h1.008c0.309,0,0.597,0.074,0.877,0.229c0.101,0.057,0.181,0.114,0.229,0.165
			c0.033,0.035,0.062,0.099,0.086,0.179c0.035,0.125,0.062,0.296,0.073,0.497c0.017,0.229,0.023,0.528,0.023,0.895v10.379
			c0,1.271-0.173,1.529-0.193,1.558c-0.207,0.272-0.565,0.405-1.096,0.405h-1.008v1.321h7.767v-1.321h-1.022
			c-0.307,0-0.589-0.074-0.864-0.229c-0.104-0.056-0.185-0.115-0.238-0.172c-0.037-0.04-0.068-0.101-0.093-0.185
			c-0.023-0.079-0.053-0.225-0.071-0.483c-0.018-0.23-0.022-0.529-0.022-0.895V34.333c0-1.264,0.177-1.523,0.206-1.558
			c0.207-0.274,0.562-0.407,1.083-0.407h1.022v-1.321h-7.767V32.368z"/>
		<path fill="#4D4C4D" d="M234.896,32.314l0.386,0.05c0.665,0.084,0.961,0.233,1.092,0.342c0.15,0.13,0.229,0.25,0.229,0.358
			c0,0.162-0.068,0.606-0.523,1.741l-3.396,8.33l-3.671-8.461c-0.419-0.956-0.509-1.436-0.509-1.669c0-0.089,0.014-0.164,0.038-0.23
			c0.011-0.029,0.045-0.065,0.1-0.104c0.058-0.042,0.173-0.104,0.399-0.164c0.207-0.057,0.49-0.105,0.846-0.143l0.396-0.041v-1.277
			h-7.448v1.287l0.407,0.032c0.438,0.036,0.78,0.11,1.014,0.224c0.227,0.11,0.419,0.263,0.578,0.46
			c0.024,0.027,0.157,0.214,0.584,1.198l6.136,14.115h1.024l5.715-13.944c0.139-0.327,0.271-0.617,0.405-0.874
			c0.117-0.226,0.255-0.421,0.406-0.58c0.147-0.152,0.314-0.274,0.51-0.371c0.204-0.099,0.462-0.178,0.761-0.235l0.359-0.066v-1.247
			h-5.837V32.314z"/>
		<path fill="#4D4C4D" d="M255.199,43.326c-0.245,0.48-0.492,0.903-0.73,1.255c-0.236,0.346-0.469,0.629-0.689,0.843
			c-0.177,0.172-0.349,0.315-0.507,0.423c-0.135,0.094-0.3,0.168-0.487,0.223c-0.203,0.059-0.45,0.101-0.734,0.126
			c-0.302,0.026-0.678,0.04-1.128,0.04h-2.726c-0.191,0-0.351-0.009-0.479-0.028c-0.139-0.024-0.203-0.048-0.279-0.089
			c-0.028-0.038-0.052-0.078-0.06-0.095c-0.011-0.032-0.065-0.233-0.065-1.146v-4.854h3.088c0.311,0,0.579,0.018,0.796,0.052
			c0.206,0.034,0.379,0.083,0.515,0.145c0.125,0.058,0.226,0.123,0.303,0.195c0.076,0.072,0.135,0.154,0.183,0.251
			c0.019,0.036,0.067,0.15,0.131,0.437c0.054,0.241,0.108,0.551,0.161,0.933l0.053,0.379h1.263V35.94h-1.296l-0.024,0.415
			c-0.021,0.377-0.067,0.701-0.131,0.964c-0.053,0.22-0.143,0.395-0.27,0.532c-0.129,0.134-0.313,0.237-0.554,0.302
			c-0.276,0.08-0.655,0.12-1.129,0.12h-3.088v-5.468h3.965c0.912,0,1.331,0.082,1.493,0.139c0.165,0.076,0.308,0.157,0.422,0.241
			c0.098,0.074,0.188,0.175,0.269,0.309c0.09,0.148,0.174,0.347,0.25,0.588c0.086,0.266,0.167,0.602,0.25,1.014l0.072,0.351h1.087
			v-4.402h-13.266v1.321h1.01c0.53,0,0.897,0.11,1.085,0.315c0.021,0.026,0.205,0.282,0.205,1.601v10.438
			c0,0.996-0.078,1.305-0.119,1.413c-0.025,0.068-0.064,0.129-0.125,0.185c-0.088,0.079-0.188,0.146-0.297,0.197
			c-0.111,0.053-0.23,0.094-0.359,0.118c-0.136,0.026-0.266,0.039-0.39,0.039h-1.01v1.321h13.14l1.689-4.911h-1.363L255.199,43.326z
			"/>
		<path fill="#4D4C4D" d="M280.386,32.932c0.032-0.084,0.077-0.153,0.14-0.212c0.085-0.078,0.18-0.141,0.285-0.193
			c0.118-0.055,0.242-0.094,0.372-0.12c0.135-0.026,0.266-0.039,0.389-0.039h0.997l0.038-1.321h-7.78v1.321h1.01
			c0.3,0,0.584,0.076,0.863,0.229c0.105,0.058,0.185,0.116,0.239,0.173c0.036,0.04,0.066,0.102,0.092,0.183
			c0.034,0.123,0.059,0.295,0.071,0.496c0.016,0.229,0.023,0.529,0.023,0.896V38.5h-6.581v-4.155c0-0.96,0.07-1.295,0.115-1.413
			c0.03-0.084,0.077-0.153,0.141-0.212c0.086-0.081,0.177-0.145,0.281-0.194c0.116-0.055,0.231-0.094,0.357-0.118
			c0.134-0.026,0.263-0.039,0.393-0.039h1.022v-1.321h-7.766v1.321h1.01c0.306,0,0.593,0.076,0.876,0.229
			c0.1,0.057,0.175,0.113,0.226,0.165c0.023,0.029,0.062,0.085,0.091,0.191c0.033,0.123,0.059,0.291,0.072,0.496
			c0.015,0.229,0.023,0.529,0.023,0.896v10.368c0,1.27-0.172,1.529-0.195,1.558c-0.206,0.272-0.565,0.405-1.093,0.405h-1.01v1.321
			h7.766v-1.321h-1.022c-0.306,0-0.587-0.074-0.864-0.229c-0.104-0.056-0.183-0.115-0.238-0.176
			c-0.035-0.039-0.067-0.097-0.09-0.181c-0.024-0.08-0.056-0.228-0.074-0.483c-0.014-0.23-0.021-0.529-0.021-0.895v-4.454h6.581
			v4.454c0,1.263-0.178,1.52-0.199,1.548c-0.224,0.279-0.581,0.415-1.09,0.415h-1.01v1.321h7.753v-1.321h-1.008
			c-0.312,0-0.6-0.074-0.875-0.229c-0.129-0.071-0.196-0.131-0.234-0.171c-0.014-0.014-0.052-0.061-0.084-0.173
			c-0.034-0.123-0.059-0.29-0.07-0.497c-0.019-0.23-0.025-0.527-0.025-0.894V34.344C280.283,33.384,280.352,33.039,280.386,32.932z"
			/>
		<path fill="#4D4C4D" d="M292.725,30.679c-2.208,0-4.129,0.746-5.715,2.215c-1.822,1.69-2.746,3.901-2.746,6.568
			c0,2.601,0.797,4.757,2.371,6.409c1.582,1.653,3.566,2.493,5.898,2.493c2.305,0,4.295-0.86,5.914-2.555
			c1.613-1.687,2.433-3.834,2.433-6.383c0-2.478-0.815-4.573-2.423-6.23C296.845,31.527,294.917,30.679,292.725,30.679z
			 M290.547,46.14c-0.567-0.339-1.056-0.822-1.448-1.435c-0.401-0.631-0.709-1.401-0.92-2.287c-0.211-0.901-0.319-1.91-0.319-3.003
			c0-1.094,0.11-2.097,0.326-2.976c0.211-0.861,0.52-1.601,0.92-2.199c0.392-0.584,0.876-1.036,1.439-1.346
			c0.563-0.31,1.221-0.467,1.955-0.467c0.789,0,1.488,0.161,2.07,0.474c0.585,0.314,1.083,0.779,1.478,1.377
			c0.408,0.616,0.718,1.386,0.922,2.289c0.21,0.923,0.314,1.993,0.314,3.177c0,1.233-0.127,2.304-0.379,3.185
			c-0.248,0.866-0.59,1.583-1.021,2.13c-0.419,0.536-0.918,0.938-1.483,1.191C293.196,46.792,291.616,46.774,290.547,46.14z"/>
		<path fill="#4D4C4D" d="M313.366,43.004l-5.545-11.957h-5.271v1.321h0.44c0.302,0,0.561,0.018,0.768,0.054
			c0.191,0.034,0.354,0.079,0.484,0.134c0.106,0.046,0.19,0.101,0.239,0.154c0.065,0.065,0.114,0.137,0.147,0.21
			c0.089,0.187,0.194,0.572,0.194,1.354v10.497c0,1.164-0.149,1.431-0.18,1.478c-0.2,0.287-0.555,0.427-1.083,0.427h-1.011v1.321
			h6.477v-1.321h-1.013c-0.494,0-0.85-0.117-1.052-0.347c-0.021-0.024-0.213-0.278-0.213-1.557v-8.715l5.484,11.94h0.959
			l5.473-11.938v8.712c0,1.162-0.149,1.431-0.187,1.48c-0.195,0.285-0.551,0.424-1.08,0.424h-1.01v1.321h7.709v-1.321h-0.998
			c-0.498,0-0.853-0.117-1.06-0.352c-0.023-0.024-0.218-0.277-0.218-1.552V34.274c0-1.164,0.147-1.435,0.184-1.48
			c0.197-0.289,0.556-0.426,1.094-0.426h0.998v-1.321h-5.276L313.366,43.004z"/>
		<path fill="#4D4C4D" d="M338.775,43.326c-0.244,0.479-0.488,0.901-0.729,1.256c-0.232,0.34-0.464,0.625-0.688,0.841
			c-0.178,0.172-0.349,0.315-0.509,0.423c-0.136,0.094-0.3,0.169-0.485,0.223c-0.203,0.059-0.45,0.101-0.735,0.126
			c-0.301,0.026-0.676,0.04-1.128,0.04h-2.723c-0.194,0-0.354-0.009-0.48-0.028c-0.141-0.024-0.206-0.051-0.281-0.089
			c-0.026-0.039-0.053-0.078-0.059-0.093c-0.012-0.033-0.067-0.235-0.067-1.148v-4.854h3.089c0.312,0,0.579,0.018,0.795,0.052
			c0.207,0.034,0.38,0.083,0.515,0.145c0.129,0.058,0.23,0.124,0.303,0.194c0.077,0.073,0.137,0.157,0.186,0.253
			c0.019,0.036,0.067,0.149,0.13,0.437c0.054,0.241,0.104,0.551,0.158,0.933l0.054,0.379h1.265V35.94h-1.298l-0.023,0.417
			c-0.021,0.374-0.064,0.697-0.13,0.962c-0.054,0.219-0.142,0.395-0.272,0.532c-0.126,0.134-0.311,0.234-0.552,0.302
			c-0.276,0.08-0.655,0.12-1.129,0.12h-3.089v-5.468h3.966c0.911,0,1.331,0.082,1.492,0.139c0.167,0.076,0.31,0.157,0.422,0.241
			c0.099,0.074,0.188,0.175,0.271,0.309c0.09,0.148,0.174,0.347,0.25,0.588c0.083,0.266,0.166,0.602,0.248,1.012l0.072,0.353h1.087
			v-4.402h-13.263v1.321h1.009c0.53,0,0.899,0.11,1.085,0.315c0.021,0.026,0.205,0.282,0.205,1.601v10.438
			c0,0.996-0.079,1.305-0.12,1.413c-0.024,0.068-0.063,0.129-0.125,0.185c-0.088,0.079-0.188,0.146-0.296,0.197
			c-0.112,0.053-0.231,0.094-0.361,0.118c-0.135,0.026-0.264,0.039-0.388,0.039h-1.009v1.321h13.137l1.689-4.911h-1.363
			L338.775,43.326z"/>
		<path fill="#4D4C4D" d="M353.605,41.444c-0.284-0.545-0.671-1.04-1.146-1.464c-0.467-0.414-1.006-0.793-1.601-1.127
			c-0.58-0.325-1.191-0.66-1.835-1.001c-0.568-0.301-1.095-0.579-1.578-0.838c-0.477-0.258-0.874-0.511-1.207-0.768
			c-0.318-0.244-0.568-0.509-0.743-0.792c-0.161-0.254-0.24-0.563-0.24-0.92c0-0.249,0.056-0.494,0.168-0.728
			c0.117-0.243,0.283-0.461,0.493-0.648c0.222-0.196,0.481-0.353,0.776-0.47c0.57-0.226,1.275-0.225,1.93-0.043
			c0.324,0.089,0.635,0.214,0.922,0.374c0.286,0.159,0.558,0.355,0.802,0.582c0.24,0.222,0.441,0.475,0.603,0.754
			c0.34,0.58,0.581,1.381,0.714,2.382l0.051,0.383h1.266v-6.439h-1.237l-0.073,0.351c-0.09,0.416-0.181,0.507-0.186,0.51
			c-0.033,0.029-0.084,0.065-0.201,0.065c-0.047,0-0.24-0.019-0.762-0.261c-1.858-0.801-3.551-0.836-4.928-0.297
			c-0.618,0.243-1.165,0.581-1.626,1.005c-0.458,0.426-0.822,0.928-1.084,1.491c-0.263,0.567-0.395,1.176-0.395,1.809
			c0,0.747,0.146,1.407,0.437,1.957c0.277,0.533,0.653,1.016,1.119,1.433c0.449,0.402,0.971,0.775,1.55,1.109
			c0.557,0.319,1.133,0.657,1.731,1.01c0.535,0.319,1.044,0.608,1.528,0.864c0.45,0.238,0.852,0.491,1.194,0.754
			c0.312,0.242,0.566,0.518,0.75,0.82c0.171,0.281,0.257,0.639,0.257,1.07c0,0.282-0.061,0.556-0.181,0.817
			c-0.12,0.262-0.289,0.489-0.523,0.692c-0.231,0.204-0.523,0.369-0.865,0.493c-0.634,0.231-1.517,0.246-2.309,0.05
			c-0.364-0.089-0.707-0.215-1.018-0.377c-0.307-0.157-0.59-0.35-0.841-0.572c-0.244-0.216-0.44-0.448-0.586-0.689
			c-0.157-0.264-0.303-0.598-0.431-0.994c-0.13-0.412-0.245-0.901-0.346-1.454l-0.065-0.362h-1.249v6.392h1.26l0.056-0.376
			c0.062-0.397,0.136-0.493,0.138-0.495c0.011-0.012,0.04-0.042,0.13-0.042c0.03,0.003,0.083,0.013,0.148,0.026l0.409,0.092
			c0.159,0.037,0.332,0.086,0.519,0.141c0.187,0.057,0.373,0.117,0.552,0.187c0.279,0.105,0.519,0.189,0.724,0.252
			c0.213,0.065,0.423,0.113,0.624,0.143c0.196,0.031,0.401,0.05,0.615,0.059c0.203,0.01,0.446,0.013,0.731,0.013
			c0.795,0,1.534-0.131,2.202-0.393c0.667-0.258,1.251-0.612,1.737-1.057c0.489-0.444,0.873-0.971,1.146-1.562
			c0.273-0.594,0.413-1.233,0.413-1.897C354.046,42.685,353.897,42.008,353.605,41.444z"/>
	</g>
	<g>
		<g>
			<rect x="284.264" y="61.845" fill="#8C8B8B" width="69.341" height="1.788"/>
		</g>
		<g>
			<rect x="284.264" y="69.166" fill="#8C8B8B" width="69.341" height="1.788"/>
		</g>
	</g>
	<g>
		<path d="M70.948,31.543c-0.022-0.299-0.128-0.595-0.324-0.848l-0.415-0.533c0,0,0,0,0.004,0L52.59,7.465
			c-0.525-0.679-1.499-0.801-2.176-0.278L6.837,41.012c-0.029,0.022-0.05,0.05-0.077,0.075c-0.366,0.327-0.548,0.794-0.519,1.257
			c0.017,0.298,0.125,0.593,0.323,0.848l0.012,0.016l18.02,23.217c0.527,0.677,1.501,0.801,2.176,0.273l6.847-5.313
			c0.283-0.221,0.465-0.523,0.545-0.846l0.007-0.006c0.001-0.015,0.005-0.038,0.008-0.058c0.019-0.093,0.03-0.188,0.032-0.282
			c0.081-0.851,0.123-2.316,0.071-2.636c-0.033-0.218-0.207-0.532-0.343-0.708l-8.994-11.584c-0.459-0.591-0.324-1.457,0.297-1.94
			l6.207-4.82c0.01-0.006,0.02-0.012,0.028-0.017c0.242-0.182,0.525-0.274,0.805-0.289c0.066,0.061,0.129,0.125,0.187,0.197
			l8.105,10.439c0.19,0.248,0.44,0.417,0.714,0.51c0.308,0.125,0.649,0.152,0.974,0.065c0.194-0.052,0.382-0.142,0.553-0.272
			l6.541-5.081c0.573-0.444,0.744-1.206,0.469-1.841c-0.049-0.116-0.111-0.233-0.192-0.34l-0.416-0.53c0.002,0,0.002,0,0.002,0
			l-7.726-9.952c-0.034-0.042-0.053-0.084-0.079-0.128c0.039-0.245,0.14-0.483,0.304-0.684c0.07-0.083,0.146-0.16,0.235-0.23
			l6.208-4.819c0.622-0.483,1.495-0.397,1.952,0.195l8.995,11.584c0.137,0.176,0.397,0.422,0.6,0.51
			c0.293,0.126,1.569,0.486,2.378,0.634c0.064,0.013,0.127,0.026,0.193,0.032c0.012,0.001,0.024,0.004,0.035,0.005
			c0.029,0.005,0.058,0.007,0.088,0.011c0.013,0,0.031,0.002,0.046,0.006l0.004-0.006c0.191,0.014,0.383-0.009,0.57-0.067
			c0.167-0.055,0.331-0.133,0.48-0.248l3.423-2.658l3.424-2.656c0.085-0.066,0.157-0.138,0.228-0.215
			C70.847,32.343,70.975,31.942,70.948,31.543L70.948,31.543z"/>
		<g opacity="0.54">
			
				<linearGradient id="SVGID_1_" gradientUnits="userSpaceOnUse" x1="-401.157" y1="-526.7563" x2="-376.5692" y2="-502.1685" gradientTransform="matrix(0.2474 -0.9689 -0.9689 -0.2474 -363.2425 -466.6034)">
				<stop  offset="0" style="stop-color:#272727"/>
				<stop  offset="0.2147" style="stop-color:#4D4D4D"/>
				<stop  offset="0.2367" style="stop-color:#464646"/>
				<stop  offset="0.3358" style="stop-color:#2C2C2C"/>
				<stop  offset="0.4461" style="stop-color:#191919"/>
				<stop  offset="0.5723" style="stop-color:#0B0B0B"/>
				<stop  offset="0.7278" style="stop-color:#020202"/>
				<stop  offset="1" style="stop-color:#000000"/>
			</linearGradient>
			<path fill="url(#SVGID_1_)" d="M51.534,10.336c0.254,0.075,0.484,0.226,0.656,0.449l9.033,11.634l6.663,8.585
				c0.174,0.223,0.261,0.482,0.271,0.749c0.021,0.439-0.176,0.893-0.567,1.194l-5.142,5.563c-0.716-0.073-2.396-0.54-2.74-0.688
				c-0.203-0.088-0.463-0.334-0.6-0.51l-8.995-11.584c-0.457-0.592-1.33-0.678-1.952-0.195l-6.208,4.819
				c-0.089,0.07-0.165,0.147-0.235,0.23c-0.192,0.233-0.3,0.515-0.323,0.802c-0.007,0.07-0.009,0.14-0.004,0.208
				c0.022,0.248,0.104,0.491,0.268,0.7l7.085,9.128c0.457,0.587,0.323,1.458-0.298,1.939l-2.629,2.041l-3.374,2.621
				c-0.621,0.483-1.497,0.396-1.955-0.193L33.404,38.7c-0.452-0.583-1.306-0.671-1.925-0.212c-0.008,0.005-0.019,0.01-0.028,0.017
				l-6.207,4.82c-0.621,0.483-0.756,1.35-0.297,1.94L33.94,56.85c0.136,0.176,0.31,0.49,0.343,0.708
				c0.059,0.368-0.005,2.267-0.111,2.976l-6.562,3.453c-0.314,0.242-0.688,0.339-1.041,0.303c-0.355-0.034-0.687-0.201-0.916-0.499
				l-7.392-9.522L9.956,43.569c-0.229-0.294-0.311-0.658-0.255-1.01c0.051-0.352,0.241-0.691,0.55-0.934l19.303-14.981
				l20.682-16.058c0.309-0.241,0.685-0.339,1.039-0.302c0.037,0.002,0.071,0.014,0.106,0.021
				C51.432,10.314,51.484,10.32,51.534,10.336z"/>
			
				<linearGradient id="SVGID_2_" gradientUnits="userSpaceOnUse" x1="-364.9661" y1="-512.2441" x2="-427.9503" y2="-516.7566" gradientTransform="matrix(0.2474 -0.9689 -0.9689 -0.2474 -363.2425 -466.6034)">
				<stop  offset="0" style="stop-color:#FFFFFF"/>
				<stop  offset="0.2892" style="stop-color:#A6A6A6"/>
				<stop  offset="0.5441" style="stop-color:#5F5F5F"/>
				<stop  offset="0.7544" style="stop-color:#2C2C2C"/>
				<stop  offset="0.9124" style="stop-color:#0C0C0C"/>
				<stop  offset="1" style="stop-color:#000000"/>
			</linearGradient>
			<path fill="url(#SVGID_2_)" d="M48.533,23.964l-6.767,5.252c-0.674,0.522-0.798,1.5-0.273,2.177l8.139,10.482
				c0.524,0.68,0.399,1.654-0.276,2.182l-6.541,5.081c-0.676,0.525-1.654,0.402-2.179-0.277l-8.14-10.483
				c-0.525-0.678-1.502-0.801-2.178-0.274l-6.765,5.25c-0.677,0.526-0.802,1.499-0.276,2.177l10.617,13.676
				c0.525,0.678,0.402,1.65-0.275,2.178l-6.847,5.313c-0.675,0.527-1.649,0.403-2.176-0.273L6.564,43.191
				c-0.526-0.677-0.403-1.651,0.272-2.18L50.414,7.187c0.677-0.523,1.651-0.401,2.176,0.278l18.034,23.23
				c0.526,0.678,0.402,1.653-0.273,2.178l-6.847,5.314c-0.679,0.525-1.65,0.404-2.179-0.277L50.71,24.239
				C50.184,23.559,49.211,23.439,48.533,23.964z"/>
			
				<linearGradient id="SVGID_3_" gradientUnits="userSpaceOnUse" x1="-375.5842" y1="-539.5483" x2="-385.0652" y2="-540.2276" gradientTransform="matrix(0.2474 -0.9689 -0.9689 -0.2474 -363.2425 -466.6034)">
				<stop  offset="0" style="stop-color:#FFFFFF"/>
				<stop  offset="0.2702" style="stop-color:#B3B3B3"/>
				<stop  offset="0.6293" style="stop-color:#545454"/>
				<stop  offset="0.8807" style="stop-color:#171717"/>
				<stop  offset="1" style="stop-color:#000000"/>
			</linearGradient>
			<path fill="url(#SVGID_3_)" d="M60.897,37.355c0.526,0.678,1.5,0.799,2.176,0.274l6.848-5.315
				c0.668-0.519,0.793-1.477,0.289-2.152l0.415,0.533c0.526,0.678,0.402,1.653-0.273,2.178l-6.847,5.314
				c-0.679,0.525-1.65,0.402-2.179-0.277"/>
			<g>
				
					<linearGradient id="SVGID_4_" gradientUnits="userSpaceOnUse" x1="-363.2292" y1="-501.3149" x2="-407.1822" y2="-504.4639" gradientTransform="matrix(0.2474 -0.9689 -0.9689 -0.2474 -363.2425 -466.6034)">
					<stop  offset="0" style="stop-color:#F2F2F2"/>
					<stop  offset="0.0511" style="stop-color:#CCCCCC"/>
					<stop  offset="0.132" style="stop-color:#979797"/>
					<stop  offset="0.2139" style="stop-color:#696969"/>
					<stop  offset="0.2951" style="stop-color:#434343"/>
					<stop  offset="0.3755" style="stop-color:#262626"/>
					<stop  offset="0.4549" style="stop-color:#111111"/>
					<stop  offset="0.5327" style="stop-color:#040404"/>
					<stop  offset="0.6074" style="stop-color:#000000"/>
					<stop  offset="0.6127" style="stop-color:#020202"/>
					<stop  offset="0.8001" style="stop-color:#4F4F4F"/>
					<stop  offset="0.9338" style="stop-color:#7F7F7F"/>
					<stop  offset="1" style="stop-color:#919191"/>
				</linearGradient>
				<path fill="url(#SVGID_4_)" d="M6.564,43.191c-0.526-0.677-0.403-1.651,0.272-2.18L50.414,7.187
					c0.677-0.523,1.651-0.401,2.176,0.278l0.686,0.88c-0.534-0.631-1.473-0.736-2.133-0.225L7.568,41.943
					c-0.675,0.525-0.801,1.503-0.272,2.179"/>
			</g>
			
				<linearGradient id="SVGID_5_" gradientUnits="userSpaceOnUse" x1="-392.8152" y1="-509.4434" x2="-415.9294" y2="-511.0994" gradientTransform="matrix(0.2474 -0.9689 -0.9689 -0.2474 -363.2425 -466.6034)">
				<stop  offset="0" style="stop-color:#000000"/>
				<stop  offset="1" style="stop-color:#FFFFFF"/>
			</linearGradient>
			<path fill="url(#SVGID_5_)" d="M22.119,45.595c-0.606-0.784-0.465-1.91,0.317-2.515l7.824-6.073
				c0.781-0.606,1.909-0.465,2.515,0.319l9.367,12.065c-0.567,0.129-1.186-0.063-1.567-0.556l-8.105-10.439
				c-0.524-0.674-1.494-0.796-2.166-0.274l-6.739,5.23c-0.673,0.522-0.797,1.491-0.272,2.166l10.568,13.617
				c0.4,0.514,0.42,1.199,0.111,1.728L22.119,45.595z"/>
			
				<linearGradient id="SVGID_6_" gradientUnits="userSpaceOnUse" x1="-401.7717" y1="-496.5674" x2="-424.3455" y2="-498.1847" gradientTransform="matrix(0.2474 -0.9689 -0.9689 -0.2474 -363.2425 -466.6034)">
				<stop  offset="0" style="stop-color:#616161"/>
				<stop  offset="0.0231" style="stop-color:#5E5E5E"/>
				<stop  offset="0.472" style="stop-color:#2B2B2B"/>
				<stop  offset="0.8115" style="stop-color:#0C0C0C"/>
				<stop  offset="1" style="stop-color:#000000"/>
			</linearGradient>
			<path fill="url(#SVGID_6_)" d="M26.772,66.698c-0.675,0.527-1.649,0.403-2.176-0.273L6.564,43.191
				c-0.526-0.677-0.403-1.651,0.272-2.18l0.647-0.501C7.031,41.059,7,41.864,7.455,42.45l18.031,23.232
				c0.528,0.676,1.502,0.802,2.178,0.274"/>
			
				<linearGradient id="SVGID_7_" gradientUnits="userSpaceOnUse" x1="-358.3513" y1="-530.1445" x2="-381.0678" y2="-531.772" gradientTransform="matrix(0.2474 -0.9689 -0.9689 -0.2474 -363.2425 -466.6034)">
				<stop  offset="0" style="stop-color:#FAFAFA"/>
				<stop  offset="0.41" style="stop-color:#EFEFEF"/>
				<stop  offset="1" style="stop-color:#E3E3E3"/>
			</linearGradient>
			<path fill="url(#SVGID_7_)" d="M69.535,33.495c0.68-0.529,0.8-1.502,0.276-2.18L51.777,8.083c-0.504-0.653-1.428-0.786-2.1-0.326
				l0.737-0.571c0.677-0.523,1.651-0.401,2.176,0.278l18.034,23.23c0.526,0.678,0.402,1.653-0.273,2.178"/>
			
				<linearGradient id="SVGID_8_" gradientUnits="userSpaceOnUse" x1="-151.6697" y1="-705.3291" x2="-140.9475" y2="-715.2612" gradientTransform="matrix(-0.9994 -0.0014 0.0014 -0.9977 -95.3902 -673.3917)">
				<stop  offset="0" style="stop-color:#1A1A1A"/>
				<stop  offset="1" style="stop-color:#FFFFFF"/>
			</linearGradient>
			<path fill="url(#SVGID_8_)" d="M51.031,23.199c-0.607-0.782-1.732-0.924-2.513-0.317l-7.823,6.052
				c-0.782,0.606-0.926,1.729-0.318,2.512l9.35,12.042c0.271-0.518,0.235-1.162-0.145-1.652l-8.089-10.422
				c-0.526-0.674-0.399-1.641,0.273-2.165l6.736-5.211c0.672-0.521,1.642-0.4,2.165,0.274l10.554,13.592
				c0.399,0.513,1.056,0.703,1.643,0.535L51.031,23.199z"/>
			
				<linearGradient id="SVGID_9_" gradientUnits="userSpaceOnUse" x1="-391.5676" y1="-522.0991" x2="-400.769" y2="-522.7584" gradientTransform="matrix(0.2474 -0.9689 -0.9689 -0.2474 -363.2425 -466.6034)">
				<stop  offset="0" style="stop-color:#DEDEDE"/>
				<stop  offset="1" style="stop-color:#3B3B3B"/>
			</linearGradient>
			<path fill="url(#SVGID_9_)" d="M40.207,48.305c0.526,0.676,1.502,0.797,2.178,0.274l6.542-5.081
				c0.669-0.519,0.796-1.477,0.29-2.152l0.416,0.53c0.524,0.68,0.399,1.654-0.276,2.182l-6.541,5.081
				c-0.676,0.525-1.654,0.402-2.179-0.277"/>
			
				<linearGradient id="SVGID_10_" gradientUnits="userSpaceOnUse" x1="-412.2957" y1="-511.0127" x2="-421.7785" y2="-511.6921" gradientTransform="matrix(0.2474 -0.9689 -0.9689 -0.2474 -363.2425 -466.6034)">
				<stop  offset="0" style="stop-color:#DBDBDB"/>
				<stop  offset="0.046" style="stop-color:#B2B2B2"/>
				<stop  offset="0.0957" style="stop-color:#8E8E8E"/>
				<stop  offset="0.1516" style="stop-color:#6E6E6E"/>
				<stop  offset="0.2134" style="stop-color:#525252"/>
				<stop  offset="0.2833" style="stop-color:#3C3C3C"/>
				<stop  offset="0.3649" style="stop-color:#2B2B2B"/>
				<stop  offset="0.4658" style="stop-color:#202020"/>
				<stop  offset="0.6073" style="stop-color:#191919"/>
				<stop  offset="1" style="stop-color:#171717"/>
			</linearGradient>
			<path fill="url(#SVGID_10_)" d="M24.166,65.867c0.527,0.677,1.501,0.8,2.179,0.273l6.845-5.314
				c0.669-0.519,0.794-1.477,0.291-2.153l0.414,0.534c0.525,0.678,0.402,1.65-0.275,2.178l-6.847,5.313
				c-0.675,0.527-1.649,0.403-2.176-0.273"/>
		</g>
		<linearGradient id="SVGID_11_" gradientUnits="userSpaceOnUse" x1="47.9167" y1="52.4189" x2="72.5053" y2="77.0075">
			<stop  offset="0" style="stop-color:#272727"/>
			<stop  offset="0.2147" style="stop-color:#4D4D4D"/>
			<stop  offset="0.2367" style="stop-color:#464646"/>
			<stop  offset="0.3358" style="stop-color:#2C2C2C"/>
			<stop  offset="0.4461" style="stop-color:#191919"/>
			<stop  offset="0.5723" style="stop-color:#0B0B0B"/>
			<stop  offset="0.7278" style="stop-color:#020202"/>
			<stop  offset="1" style="stop-color:#000000"/>
		</linearGradient>
		<path fill="url(#SVGID_11_)" d="M89.575,59.29c-0.011-0.266-0.099-0.524-0.272-0.747l-9.04-11.628l-6.667-8.582
			c-0.173-0.222-0.403-0.373-0.656-0.449c-0.424-0.125-0.911-0.047-1.3,0.254l-6.662,3.61c-0.106,0.709-0.07,2.455-0.011,2.821
			c0.034,0.222,0.208,0.533,0.347,0.71l9,11.579c0.457,0.588,0.323,1.458-0.298,1.938l-6.205,4.825
			c-0.087,0.068-0.183,0.122-0.28,0.169c-0.276,0.13-0.574,0.165-0.858,0.117c-0.068-0.012-0.135-0.027-0.202-0.05
			c-0.235-0.08-0.451-0.221-0.611-0.427l-7.091-9.126c-0.461-0.59-1.334-0.676-1.954-0.192l-2.628,2.043l-3.375,2.623
			c-0.622,0.481-0.754,1.351-0.296,1.939l7.092,9.124c0.453,0.582,0.325,1.43-0.271,1.918c-0.01,0.008-0.015,0.014-0.024,0.021
			l-6.207,4.822c-0.62,0.481-1.492,0.397-1.95-0.191l-9.003-11.58c-0.135-0.176-0.395-0.423-0.6-0.51
			c-0.343-0.147-2.198-0.556-2.913-0.627l-4.965,5.508c-0.312,0.241-0.502,0.578-0.555,0.931c-0.053,0.35,0.028,0.716,0.26,1.009
			l7.399,9.517l8.309,10.695c0.23,0.294,0.562,0.465,0.917,0.498c0.354,0.036,0.729-0.063,1.042-0.302l19.291-14.996L89.01,60.486
			c0.31-0.243,0.499-0.579,0.552-0.934c0.003-0.034,0.002-0.07,0.005-0.106C89.57,59.395,89.578,59.343,89.575,59.29z"/>
		<linearGradient id="SVGID_12_" gradientUnits="userSpaceOnUse" x1="84.1082" y1="66.9297" x2="21.1259" y2="62.4174">
			<stop  offset="0" style="stop-color:#B5B5B5"/>
			<stop  offset="0.0726" style="stop-color:#A5A5A5"/>
			<stop  offset="0.4027" style="stop-color:#5F5F5F"/>
			<stop  offset="0.6782" style="stop-color:#2B2B2B"/>
			<stop  offset="0.8852" style="stop-color:#0C0C0C"/>
			<stop  offset="1" style="stop-color:#000000"/>
		</linearGradient>
		<path fill="url(#SVGID_12_)" d="M75.626,58.825l-6.76,5.258c-0.676,0.525-1.651,0.404-2.176-0.271L58.545,53.33
			c-0.53-0.677-1.505-0.799-2.179-0.273l-6.542,5.083c-0.677,0.526-0.799,1.501-0.273,2.18l8.146,10.483
			c0.529,0.672,0.403,1.649-0.271,2.175l-6.764,5.257c-0.673,0.523-1.651,0.404-2.176-0.273L37.86,64.295
			c-0.528-0.68-1.5-0.801-2.179-0.275l-6.84,5.32c-0.678,0.524-0.801,1.5-0.273,2.177l18.051,23.218
			c0.523,0.678,1.499,0.799,2.176,0.276l43.554-33.856c0.677-0.524,0.798-1.5,0.272-2.179L74.572,35.759
			c-0.527-0.679-1.502-0.801-2.178-0.276l-6.842,5.321c-0.678,0.525-0.8,1.501-0.275,2.177l10.624,13.669
			C76.429,57.327,76.305,58.3,75.626,58.825z"/>
		<linearGradient id="SVGID_13_" gradientUnits="userSpaceOnUse" x1="73.4905" y1="39.6274" x2="64.0105" y2="38.9483">
			<stop  offset="0" style="stop-color:#FFFFFF"/>
			<stop  offset="0.2702" style="stop-color:#B3B3B3"/>
			<stop  offset="0.6293" style="stop-color:#545454"/>
			<stop  offset="0.8807" style="stop-color:#171717"/>
			<stop  offset="1" style="stop-color:#000000"/>
		</linearGradient>
		<path fill="url(#SVGID_13_)" d="M65.714,43.535c-0.528-0.675-0.404-1.651,0.271-2.177l6.841-5.321
			c0.668-0.518,1.628-0.403,2.158,0.253l-0.413-0.531c-0.527-0.679-1.502-0.801-2.178-0.276l-6.844,5.321
			c-0.676,0.525-0.798,1.501-0.273,2.177"/>
		<g>
			<linearGradient id="SVGID_14_" gradientUnits="userSpaceOnUse" x1="85.845" y1="77.8613" x2="41.893" y2="74.7124">
				<stop  offset="0" style="stop-color:#BDBDBD"/>
				<stop  offset="0.0681" style="stop-color:#969696"/>
				<stop  offset="0.1599" style="stop-color:#696969"/>
				<stop  offset="0.2522" style="stop-color:#434343"/>
				<stop  offset="0.3436" style="stop-color:#262626"/>
				<stop  offset="0.4339" style="stop-color:#111111"/>
				<stop  offset="0.5225" style="stop-color:#040404"/>
				<stop  offset="0.6074" style="stop-color:#000000"/>
				<stop  offset="0.6127" style="stop-color:#020202"/>
				<stop  offset="0.8001" style="stop-color:#4F4F4F"/>
				<stop  offset="0.9338" style="stop-color:#7F7F7F"/>
				<stop  offset="1" style="stop-color:#919191"/>
			</linearGradient>
			<path fill="url(#SVGID_14_)" d="M46.618,94.734c0.523,0.678,1.499,0.799,2.176,0.276l43.554-33.856
				c0.677-0.524,0.798-1.5,0.272-2.179l-0.685-0.878c0.479,0.673,0.35,1.606-0.309,2.119L48.073,94.073
				c-0.676,0.522-1.653,0.402-2.178-0.273"/>
		</g>
		<linearGradient id="SVGID_15_" gradientUnits="userSpaceOnUse" x1="56.2605" y1="69.7314" x2="33.1458" y2="68.0754">
			<stop  offset="0" style="stop-color:#000000"/>
			<stop  offset="1" style="stop-color:#FFFFFF"/>
		</linearGradient>
		<path fill="url(#SVGID_15_)" d="M48.136,79.067c0.609,0.783,1.734,0.921,2.516,0.315l7.818-6.076
			c0.781-0.607,0.925-1.737,0.316-2.521l-9.375-12.058c-0.268,0.516-0.231,1.166,0.149,1.657l8.111,10.436
			c0.523,0.674,0.399,1.645-0.273,2.165l-6.733,5.236c-0.67,0.522-1.642,0.403-2.166-0.272L37.922,64.342
			c-0.4-0.513-1.057-0.702-1.647-0.532L48.136,79.067z"/>
		<linearGradient id="SVGID_16_" gradientUnits="userSpaceOnUse" x1="47.3049" y1="82.6055" x2="24.7312" y2="80.9882">
			<stop  offset="0" style="stop-color:#616161"/>
			<stop  offset="0.0231" style="stop-color:#5E5E5E"/>
			<stop  offset="0.472" style="stop-color:#2B2B2B"/>
			<stop  offset="0.8115" style="stop-color:#0C0C0C"/>
			<stop  offset="1" style="stop-color:#000000"/>
		</linearGradient>
		<path fill="url(#SVGID_16_)" d="M28.84,69.34c-0.678,0.524-0.801,1.5-0.273,2.177l18.051,23.218
			c0.523,0.678,1.499,0.799,2.176,0.276l0.647-0.503c-0.643,0.302-1.431,0.135-1.883-0.449L29.506,70.836
			c-0.527-0.677-0.404-1.651,0.271-2.18"/>
		<linearGradient id="SVGID_17_" gradientUnits="userSpaceOnUse" x1="90.7239" y1="49.0298" x2="68.0103" y2="47.4025">
			<stop  offset="0" style="stop-color:#C2C2C2"/>
			<stop  offset="0.5588" style="stop-color:#D7D7D7"/>
			<stop  offset="1" style="stop-color:#E3E3E3"/>
		</linearGradient>
		<path fill="url(#SVGID_17_)" d="M71.592,36.121c0.678-0.529,1.651-0.405,2.179,0.271l18.049,23.22
			c0.505,0.652,0.404,1.579-0.207,2.114l0.734-0.571c0.677-0.524,0.798-1.5,0.272-2.179L74.572,35.759
			c-0.527-0.679-1.502-0.801-2.178-0.276"/>
		
			<linearGradient id="SVGID_18_" gradientUnits="userSpaceOnUse" x1="299.947" y1="-125.6899" x2="310.6696" y2="-135.6224" gradientTransform="matrix(-0.2459 0.9687 0.967 0.2454 266.22 -208.9713)">
			<stop  offset="0" style="stop-color:#1A1A1A"/>
			<stop  offset="1" style="stop-color:#FFFFFF"/>
		</linearGradient>
		<path fill="url(#SVGID_18_)" d="M76.988,56.594c0.608,0.783,0.466,1.909-0.313,2.517l-7.8,6.082
			c-0.78,0.605-1.904,0.469-2.511-0.313l-9.359-12.04c0.567-0.13,1.185,0.061,1.566,0.55l8.098,10.421
			c0.522,0.673,1.489,0.791,2.163,0.27l6.717-5.242c0.671-0.52,0.794-1.489,0.269-2.164L65.26,43.086
			c-0.398-0.513-0.422-1.195-0.112-1.726L76.988,56.594z"/>
		<linearGradient id="SVGID_19_" gradientUnits="userSpaceOnUse" x1="57.5081" y1="57.0742" x2="48.3067" y2="56.415">
			<stop  offset="0" style="stop-color:#DEDEDE"/>
			<stop  offset="1" style="stop-color:#3B3B3B"/>
		</linearGradient>
		<path fill="url(#SVGID_19_)" d="M49.986,60.87c-0.527-0.673-0.406-1.65,0.271-2.175l6.542-5.082
			c0.671-0.521,1.627-0.405,2.159,0.25l-0.413-0.533c-0.53-0.677-1.505-0.799-2.179-0.273l-6.542,5.083
			c-0.677,0.526-0.799,1.501-0.273,2.18"/>
		<linearGradient id="SVGID_20_" gradientUnits="userSpaceOnUse" x1="36.7786" y1="68.165" x2="27.2967" y2="67.4857">
			<stop  offset="0" style="stop-color:#DBDBDB"/>
			<stop  offset="0.046" style="stop-color:#B2B2B2"/>
			<stop  offset="0.0957" style="stop-color:#8E8E8E"/>
			<stop  offset="0.1516" style="stop-color:#6E6E6E"/>
			<stop  offset="0.2134" style="stop-color:#525252"/>
			<stop  offset="0.2833" style="stop-color:#3C3C3C"/>
			<stop  offset="0.3649" style="stop-color:#2B2B2B"/>
			<stop  offset="0.4658" style="stop-color:#202020"/>
			<stop  offset="0.6073" style="stop-color:#191919"/>
			<stop  offset="1" style="stop-color:#171717"/>
		</linearGradient>
		<path fill="url(#SVGID_20_)" d="M28.999,72.072c-0.524-0.679-0.401-1.654,0.276-2.18l6.841-5.318
			c0.67-0.519,1.627-0.404,2.158,0.252l-0.415-0.531c-0.528-0.68-1.5-0.801-2.179-0.275l-6.84,5.32
			c-0.678,0.524-0.801,1.5-0.273,2.177"/>
	</g>
	<g>
		<path fill="#8C8B8B" d="M122.843,66.973c0,1.602-1.019,3.432-4.677,3.432c-1.863,0-2.337-0.213-2.971-0.213
			c-0.632,0-1.212,0.141-1.846,0.213l0.105-0.845c0.757-0.178,1.091-0.457,1.143-0.879l0.95-7.685
			c0.054-0.404-0.281-0.633-0.897-0.737l0.089-0.775h4.605c2.303,0,3.605,0.703,3.605,2.288c0,0.982-0.475,2.197-2.462,2.707
			C122.053,64.743,122.843,65.69,122.843,66.973z M120.998,66.852c0-1.283-0.791-1.951-2.514-1.951h-1.689l-0.456,3.674
			c-0.124,1.037,0.915,1.003,1.882,1.003C120.61,69.577,120.998,68.101,120.998,66.852z M116.903,64.021h1.949
			c1.951,0,2.251-1.442,2.251-2.286c0-0.949-0.528-1.442-1.705-1.442h-2.039L116.903,64.021z"/>
		<path fill="#8C8B8B" d="M132.969,68.944l-0.316,0.948c-0.58,0.476-1.037,0.512-1.353,0.512c-0.862,0-1.248-0.581-1.143-1.339
			l0.052-0.402c-0.316,0.825-1.107,1.843-2.549,1.843c-1.582,0-2.566-1.018-2.302-3.039l0.421-3.375c0.069-0.6-0.192-0.88-0.81-0.6
			l0.089-0.562c0.492-0.316,1.072-0.564,1.546-0.564c0.756,0,0.88,0.617,0.792,1.32l-0.457,3.78
			c-0.177,1.423,0.264,1.915,1.211,1.915c1.107,0,1.723-0.667,2.197-1.935l0.44-3.355c0.071-0.564-0.211-0.88-0.827-0.6l0.089-0.562
			c0.491-0.316,1.089-0.564,1.546-0.564c0.756,0,0.896,0.617,0.81,1.32l-0.599,4.871C131.739,69.138,132.091,69.506,132.969,68.944z
			"/>
		<path fill="#8C8B8B" d="M137.996,68.961l-0.316,0.948c-0.544,0.423-0.985,0.509-1.441,0.509c-0.738,0-1.143-0.578-1.036-1.37
			l0.65-4.976c0.087-0.597-0.195-0.896-0.81-0.597l0.087-0.562c0.475-0.3,1.056-0.563,1.546-0.563c0.757,0,0.897,0.563,0.809,1.283
			l-0.648,4.957C136.767,69.171,137.136,69.523,137.996,68.961z M138.05,59.799c-0.088,0.547-0.579,0.986-1.072,0.986
			c-0.565,0-0.985-0.526-0.896-1.179c0.07-0.526,0.562-0.965,1.071-0.965C137.715,58.642,138.12,59.168,138.05,59.799z"/>
		<path fill="#8C8B8B" d="M143.376,68.944l-0.317,0.948c-0.581,0.476-1.038,0.512-1.335,0.512c-0.863,0-1.248-0.581-1.161-1.339
			l1.072-8.544c0.07-0.598-0.281-0.737-1.091-0.737l0.088-0.58c1.145,0,2.023-0.159,2.814-0.353l-1.212,9.706
			C142.162,69.138,142.513,69.506,143.376,68.944z"/>
		<path fill="#8C8B8B" d="M153.396,68.944l-0.316,0.948c-0.581,0.476-1.037,0.512-1.336,0.512c-0.687,0-1.072-0.371-1.16-0.898
			c-0.563,0.58-1.337,1-2.18,1c-1.688,0-3.079-1.354-3.079-3.479s1.46-4.747,3.993-4.747c0.896,0,1.651,0.475,1.987,1.056
			l0.352-2.813c0.07-0.598-0.282-0.737-1.109-0.737l0.087-0.58c1.161,0,2.023-0.159,2.814-0.353l-1.232,9.706
			C152.149,69.138,152.535,69.506,153.396,68.944z M150.759,67.749l0.406-3.254c-0.369-0.826-1.055-1.283-2.005-1.283
			c-1.565,0-2.11,2.057-2.11,3.728c0,1.583,0.581,2.584,1.53,2.584C149.757,69.523,150.619,68.715,150.759,67.749z"/>
		<path fill="#8C8B8B" d="M158.283,68.961l-0.316,0.948c-0.545,0.423-0.984,0.509-1.44,0.509c-0.739,0-1.146-0.578-1.039-1.37
			l0.651-4.976c0.087-0.597-0.193-0.896-0.81-0.597l0.089-0.562c0.475-0.3,1.054-0.563,1.546-0.563c0.756,0,0.897,0.563,0.808,1.283
			l-0.649,4.957C157.052,69.171,157.422,69.523,158.283,68.961z M158.336,59.799c-0.088,0.547-0.58,0.986-1.073,0.986
			c-0.562,0-0.984-0.526-0.896-1.179c0.071-0.526,0.564-0.965,1.073-0.965C158.001,58.642,158.405,59.168,158.336,59.799z"/>
		<path fill="#8C8B8B" d="M168.445,68.944l-0.317,0.948c-0.58,0.476-1.054,0.512-1.354,0.512c-0.861,0-1.248-0.581-1.161-1.339
			l0.476-3.619c0.176-1.267,0.053-1.971-0.896-1.971c-1.108,0-2.056,1.161-2.409,1.601l-0.668,5.328h-1.581l0.79-6.419
			c0.07-0.579-0.246-0.773-0.861-0.493l0.088-0.562c0.493-0.316,1.073-0.564,1.529-0.564c0.74,0,0.932,0.723,0.757,1.408
			l-0.107,0.405c0.353-0.511,1.337-1.848,3.025-1.848c1.336,0,2.251,0.702,1.952,2.921l-0.44,3.305
			C167.197,69.138,167.564,69.506,168.445,68.944z"/>
		<path fill="#8C8B8B" d="M178.904,63.125c0,0.49-0.439,0.738-0.81,0.738c-0.525,0-0.789-0.126-0.789,0.686
			c0,1.949-1.391,3.216-3.43,3.216c-0.264,0-0.528-0.034-0.774-0.105c-0.843-0.192-1.511-0.053-1.511,0.441
			c0,0.438,0.44,0.58,1.126,0.701l1.668,0.301c2.059,0.367,3.024,0.86,3.024,2.126c0,1.74-2.091,3.041-4.308,3.041
			c-2.108,0-3.462-0.844-3.462-2.32c0-0.598,0.37-1.23,1.158-1.23c0.933-0.016,0.547,0.526,0.547,1.302
			c0,0.81,0.598,1.405,1.844,1.405c2.006,0,2.604-0.823,2.604-1.74c0-0.668-0.352-0.982-1.248-1.143l-2.407-0.457
			c-1.775-0.316-2.127-1.002-2.127-1.67c0-1.001,1-1.424,1.897-1.353c-0.528-0.458-0.879-1.092-0.879-1.865
			c0-1.037,0.772-2.848,3.252-2.848c1.178,0,2.163,0.475,2.461,1.248c0.176-0.721,0.633-1.248,1.301-1.248
			C178.553,62.351,178.904,62.667,178.904,63.125z M175.741,64.391c0-0.616-0.423-1.161-1.426-1.161c-1.458,0-1.67,1.319-1.67,2.179
			c0,0.774,0.335,1.496,1.319,1.496C175.635,66.904,175.741,65.355,175.741,64.391z"/>
		<path fill="#8C8B8B" d="M193.495,64.037c0,2.973-1.635,6.367-5.838,6.367c-0.735,0-1.774-0.16-2.391-0.16
			c-0.668,0-1.211,0.088-1.863,0.16l0.088-0.845c0.757-0.178,1.092-0.476,1.143-0.879l0.952-7.685
			c0.051-0.421-0.282-0.633-0.882-0.756l0.089-0.757h3.235C191.543,59.483,193.495,60.856,193.495,64.037z M191.561,63.916
			c0-2.128-1.037-3.605-3.307-3.605h-0.844l-1.052,8.491c-0.091,0.738,0.789,0.738,1.6,0.738
			C190.683,69.54,191.561,65.972,191.561,63.916z"/>
		<path fill="#8C8B8B" d="M198.345,68.961l-0.314,0.948c-0.547,0.423-0.983,0.509-1.441,0.509c-0.738,0-1.144-0.578-1.037-1.37
			l0.65-4.976c0.088-0.597-0.191-0.896-0.809-0.597l0.087-0.562c0.476-0.3,1.055-0.563,1.547-0.563c0.757,0,0.897,0.563,0.809,1.283
			l-0.649,4.957C197.116,69.171,197.484,69.523,198.345,68.961z M198.4,59.799c-0.089,0.547-0.579,0.986-1.072,0.986
			c-0.562,0-0.986-0.526-0.896-1.179c0.069-0.526,0.563-0.965,1.072-0.965C198.065,58.642,198.47,59.168,198.4,59.799z"/>
		<path fill="#8C8B8B" d="M200.035,68.926c0.086-0.825,0.159-1.354,0.703-1.354c0.509,0,0.613,0.192,0.579,0.581
			c-0.086,0.895,0.422,1.475,1.407,1.475c1.072,0,1.354-0.684,1.354-1.248c0-1.316-3.289-1.81-3.289-4.043
			c0-0.825,0.634-2.058,2.761-2.058c1.672,0,2.549,1.267,2.499,1.671c-0.144,1.02-0.317,1.248-0.775,1.248
			c-0.422,0-0.563-0.229-0.511-0.546c0.158-0.824-0.385-1.51-1.282-1.51c-0.845,0-1.143,0.473-1.143,0.93
			c0,1.584,3.339,1.899,3.339,4.009c0,1.109-0.93,2.481-3.11,2.481C201.09,70.562,199.981,69.4,200.035,68.926z"/>
		<path fill="#8C8B8B" d="M210.581,63.441l-0.614,5.133c-0.053,0.474,0.176,0.722,0.528,0.722c0.421,0,0.932-0.144,1.389-0.615
			l-0.228,0.913c-0.476,0.58-1.145,0.845-1.81,0.845c-1.058,0-1.604-0.811-1.461-1.916l0.65-5.081h-1.021l0.141-0.967
			c1.302,0,1.69-0.776,2.25-1.883c0.175-0.3,0.598-0.156,0.563,0.159l-0.246,1.724h1.775l-0.124,0.967H210.581z"/>
		<path fill="#8C8B8B" d="M217.157,68.961l-0.317,0.948c-0.544,0.423-0.983,0.509-1.439,0.509c-0.74,0-1.144-0.578-1.037-1.37
			l0.648-4.976c0.089-0.597-0.192-0.896-0.808-0.597l0.086-0.562c0.477-0.3,1.057-0.563,1.55-0.563c0.755,0,0.896,0.563,0.809,1.283
			l-0.65,4.957C215.927,69.171,216.296,69.523,217.157,68.961z M217.21,59.799c-0.087,0.547-0.581,0.986-1.072,0.986
			c-0.562,0-0.984-0.526-0.896-1.179c0.071-0.526,0.562-0.965,1.072-0.965C216.877,58.642,217.28,59.168,217.21,59.799z"/>
		<path fill="#8C8B8B" d="M227.317,68.944l-0.315,0.948c-0.581,0.476-1.054,0.512-1.354,0.512c-0.863,0-1.248-0.581-1.16-1.339
			l0.476-3.619c0.176-1.267,0.053-1.971-0.896-1.971c-1.109,0-2.06,1.161-2.41,1.601l-0.667,5.328h-1.581l0.789-6.419
			c0.069-0.579-0.245-0.773-0.862-0.493l0.089-0.562c0.492-0.316,1.072-0.564,1.529-0.564c0.737,0,0.932,0.723,0.756,1.408
			l-0.105,0.405c0.352-0.511,1.336-1.848,3.024-1.848c1.336,0,2.251,0.702,1.951,2.921l-0.439,3.305
			C226.07,69.138,226.439,69.506,227.317,68.944z"/>
		<path fill="#8C8B8B" d="M232.188,70.506c-1.672,0-3.113-1.299-3.113-3.479c0-2.251,1.583-4.747,4.291-4.747
			c1.828,0,2.566,1.02,2.566,2.058c0,0.492-0.176,0.966-0.844,0.966c-0.562,0-0.826-0.333-0.773-0.771
			c0.034-0.211,0.053-0.405,0.053-0.546c0-0.439-0.211-0.773-1.002-0.773c-1.864,0-2.549,1.951-2.549,3.728
			c0,1.545,0.648,2.549,1.846,2.549c1.249,0,1.827-1.108,2.074-1.108c0.193,0,0.438,0.248,0.615,0.493
			C234.949,69.523,233.965,70.506,232.188,70.506z"/>
		<path fill="#8C8B8B" d="M240.329,63.441l-0.617,5.133c-0.054,0.474,0.175,0.722,0.526,0.722c0.424,0,0.934-0.144,1.389-0.615
			l-0.228,0.913c-0.476,0.58-1.144,0.845-1.811,0.845c-1.055,0-1.6-0.811-1.458-1.916l0.648-5.081h-1.018l0.14-0.967
			c1.3,0,1.688-0.776,2.249-1.883c0.179-0.3,0.599-0.156,0.564,0.159l-0.247,1.724h1.775l-0.123,0.967H240.329z"/>
		<path fill="#8C8B8B" d="M246.902,68.961l-0.317,0.948c-0.543,0.423-0.983,0.509-1.44,0.509c-0.738,0-1.145-0.578-1.037-1.37
			l0.649-4.976c0.089-0.597-0.192-0.896-0.808-0.597l0.087-0.562c0.476-0.3,1.055-0.563,1.548-0.563
			c0.755,0,0.896,0.563,0.809,1.283l-0.649,4.957C245.671,69.171,246.042,69.523,246.902,68.961z M246.955,59.799
			c-0.088,0.547-0.581,0.986-1.072,0.986c-0.562,0-0.984-0.526-0.896-1.179c0.07-0.526,0.562-0.965,1.073-0.965
			C246.621,58.642,247.025,59.168,246.955,59.799z"/>
		<path fill="#8C8B8B" d="M255.936,65.743c0,1.951-1.352,4.763-4.076,4.763c-1.705,0-3.184-1.354-3.184-3.479
			c0-1.917,1.319-4.747,4.097-4.747C254.46,62.279,255.936,63.615,255.936,65.743z M252.598,63.212
			c-1.775,0-2.183,2.303-2.183,3.728c0,1.583,0.651,2.584,1.601,2.584c1.811,0,2.18-2.182,2.18-3.64
			C254.196,64.249,253.564,63.212,252.598,63.212z"/>
		<path fill="#8C8B8B" d="M265.993,68.944l-0.315,0.948c-0.58,0.476-1.056,0.512-1.354,0.512c-0.862,0-1.249-0.581-1.16-1.339
			l0.475-3.619c0.176-1.267,0.052-1.971-0.897-1.971c-1.107,0-2.06,1.161-2.408,1.601l-0.668,5.328h-1.581l0.789-6.419
			c0.071-0.579-0.245-0.773-0.86-0.493l0.087-0.562c0.493-0.316,1.071-0.564,1.53-0.564c0.736,0,0.932,0.723,0.756,1.408
			l-0.106,0.405c0.352-0.511,1.338-1.848,3.024-1.848c1.335,0,2.25,0.702,1.953,2.921l-0.441,3.305
			C264.746,69.138,265.113,69.506,265.993,68.944z"/>
	</g>
	<g>
		<path fill="#8C8B8B" d="M271.356,63.692h-0.907v-3.517h-1.157v-0.752h3.224v0.752h-1.159V63.692z"/>
		<path fill="#8C8B8B" d="M274.98,63.692l-1.028-3.35h-0.026c0.036,0.682,0.057,1.136,0.057,1.363v1.986h-0.81v-4.269h1.232
			l1.009,3.264h0.019l1.073-3.264h1.231v4.269h-0.844v-2.021c0-0.096,0.002-0.206,0.004-0.33c0.004-0.126,0.017-0.456,0.038-0.993
			h-0.025l-1.1,3.344H274.98z"/>
	</g>
</g>
</svg>
