<svg id="Layer_1" data-name="Layer 1" xmlns="http://www.w3.org/2000/svg" viewBox="0 0 81.17 86.43"><defs><style>.cls-1{fill:#f60;}</style></defs><title>award</title><path class="cls-1" d="M58.62,27.13a18,18,0,1,0-18,18A18.06,18.06,0,0,0,58.62,27.13Zm-18,15.31A15.31,15.31,0,1,1,55.89,27.13,15.33,15.33,0,0,1,40.58,42.44Z"/><path class="cls-1" d="M81.07,74.41l-15-38a27.13,27.13,0,1,0-51,0l-15,38A1.36,1.36,0,0,0,1.81,76.2L18,70.61l8,15.1a1.36,1.36,0,0,0,1.21.73h.08a1.36,1.36,0,0,0,1.19-.86L40.58,54.71,52.73,85.57a1.36,1.36,0,0,0,1.19.86H54a1.36,1.36,0,0,0,1.21-.73l8-15.1L79.36,76.2a1.36,1.36,0,0,0,1.72-1.79ZM27,81.81,19.82,68.3a1.36,1.36,0,0,0-1.65-.65l-14.45,5,12.9-32.77c-.05.14.48.86.56,1q.3.52.63,1,.64,1,1.38,1.94a27.07,27.07,0,0,0,18.68,10.3h0Zm16.12-30.4A24.65,24.65,0,0,1,16.53,31.3a24.41,24.41,0,1,1,26.68,20.1ZM63,67.65a1.36,1.36,0,0,0-1.65.65L54.18,81.81,43.29,54.14h0A27.05,27.05,0,0,0,62.69,42.89q.51-.72,1-1.47c.1-.17,1-1.41.89-1.54l12.9,32.77Z"/></svg>