<svg id="Layer_1" data-name="Layer 1" xmlns="http://www.w3.org/2000/svg" viewBox="0 0 82.78 82.78"><defs><style>.cls-1{fill:#f60;}</style></defs><title>campaigns</title><rect class="cls-1" x="10.68" y="32.04" width="28.04" height="2.67"/><path class="cls-1" d="M76.1,16H58.75V0H5.34V16.16A6.69,6.69,0,0,0,0,22.7v45.4a6.68,6.68,0,0,0,6.68,6.68h12v5.34H13.35v2.67H69.43V80.11H64.09V74.77h12a6.68,6.68,0,0,0,6.68-6.68V22.7A6.68,6.68,0,0,0,76.1,16ZM38.72,42.73A6.68,6.68,0,1,1,32,49.4,6.68,6.68,0,0,1,38.72,42.73Zm6.53,0a9.39,9.39,0,0,0-1.63-1.27l4.62-8.31a9.29,9.29,0,0,0,7.84,1.17v8.4Zm5.49-26.31A9.25,9.25,0,0,0,44.17,26.7H13.35V8H50.74ZM53.41,32a6.68,6.68,0,1,1,6.68-6.68A6.68,6.68,0,0,1,53.41,32ZM8,2.67H56.08V16.42A9.29,9.29,0,0,0,53.41,16V5.34H10.68v24H45a9.35,9.35,0,0,0,1.23,1.94l-5,9.08a9.25,9.25,0,0,0-9,2.34H8ZM5.34,18.94V45.4H30.29a9.35,9.35,0,1,0,16.86,0h11.6V36.7l3.42,5.48a9.29,9.29,0,1,0,2.28-1.39l-5.13-8.2a9.32,9.32,0,0,0,.6-13.9H76.1a4,4,0,0,1,4,4V64.09H2.67V22.7A4,4,0,0,1,5.34,18.94ZM68.09,42.73a6.68,6.68,0,1,1-6.68,6.68A6.68,6.68,0,0,1,68.09,42.73ZM61.42,80.11H21.36V74.77H61.42Zm14.69-8H6.68a4,4,0,0,1-4-4V66.76H80.11v1.34A4,4,0,0,1,76.1,72.1Z"/><rect class="cls-1" x="36.05" y="37.38" width="2.67" height="2.67"/><rect class="cls-1" x="10.68" y="37.38" width="22.7" height="2.67"/></svg>