<svg id="Layer_1" data-name="Layer 1" xmlns="http://www.w3.org/2000/svg" viewBox="0 0 108.46 67.1"><defs><style>.cls-1{fill:#f60;}</style></defs><title>coggs</title><path class="cls-1" d="M54.73,23.14l-4-.67A23,23,0,0,0,49.28,19l2.32-3.25a3,3,0,0,0-.21-4.08L46.56,6.87A3,3,0,0,0,44.41,6a3,3,0,0,0-1.86.63L39.23,9A23.13,23.13,0,0,0,35.8,7.56l-.66-3.94a3,3,0,0,0-3-2.74H25.27a3,3,0,0,0-3,2.65l-.67,4A23,23,0,0,0,18.15,9L14.9,6.66a3.11,3.11,0,0,0-4.08.21L6,11.71a3,3,0,0,0-.26,4L8.1,19a22.92,22.92,0,0,0-1.42,3.43l-3.94.66a3,3,0,0,0-2.74,3V33a3,3,0,0,0,2.65,3l4,.67A23,23,0,0,0,8.1,40.11L5.78,43.36A3,3,0,0,0,6,47.44l4.84,4.84a3,3,0,0,0,2.15.89,3,3,0,0,0,1.86-.64l3.32-2.37a22.75,22.75,0,0,0,3.43,1.42l.65,3.94a3,3,0,0,0,3,2.74h6.84a3,3,0,0,0,3-2.65l.67-4a22.86,22.86,0,0,0,3.43-1.42l3.25,2.32a3.1,3.1,0,0,0,4.08-.21l4.83-4.83a3,3,0,0,0,.26-4l-2.37-3.31a22.86,22.86,0,0,0,1.42-3.43L54.63,36a3,3,0,0,0,2.75-3V26.15A3,3,0,0,0,54.73,23.14Zm-6.34,12a20.13,20.13,0,0,1-1.84,4.42A1.34,1.34,0,0,0,46.63,41l2.91,4.06a.37.37,0,0,1,0,.5l-4.84,4.83c-.16.16-.34.15-.57,0l-4-2.84a1.32,1.32,0,0,0-1.43-.08,20.67,20.67,0,0,1-4.42,1.83,1.32,1.32,0,0,0-1,1.06l-.82,4.92a.38.38,0,0,1-.37.34H25.27a.41.41,0,0,1-.39-.42l-.8-4.84a1.35,1.35,0,0,0-1-1.07,20.42,20.42,0,0,1-4.43-1.84,1.33,1.33,0,0,0-1.42.08L13.2,50.42a.39.39,0,0,1-.5,0L7.87,45.55a.41.41,0,0,1,0-.57l2.84-4a1.33,1.33,0,0,0,.09-1.43A20.08,20.08,0,0,1,9,35.14a1.35,1.35,0,0,0-1.07-1L3,33.37A.37.37,0,0,1,2.67,33V26.15c0-.21.16-.36.42-.39L7.93,25A1.33,1.33,0,0,0,9,24a20.1,20.1,0,0,1,1.84-4.42,1.35,1.35,0,0,0-.08-1.43L7.85,14.09a.37.37,0,0,1,0-.5l4.83-4.83c.16-.16.35-.15.57,0l4,2.85a1.34,1.34,0,0,0,1.43.08,20,20,0,0,1,4.42-1.84,1.35,1.35,0,0,0,1-1.07l.82-4.92a.37.37,0,0,1,.37-.34h6.84c.21,0,.36.16.39.42l.81,4.84a1.33,1.33,0,0,0,1,1.06,20.78,20.78,0,0,1,4.42,1.84,1.33,1.33,0,0,0,1.43-.08l4.07-2.91a.39.39,0,0,1,.5,0l4.83,4.83a.41.41,0,0,1,0,.57l-2.86,4a1.34,1.34,0,0,0-.08,1.43A20.11,20.11,0,0,1,48.38,24a1.34,1.34,0,0,0,1.07.95l4.93.82a.37.37,0,0,1,.33.37V33a.41.41,0,0,1-.42.39l-4.85.81A1.33,1.33,0,0,0,48.38,35.14Z"/><path class="cls-1" d="M28.69,18A11.59,11.59,0,1,0,40.28,29.57,11.61,11.61,0,0,0,28.69,18Zm8.93,11.59a8.92,8.92,0,1,1-8.93-8.93A8.93,8.93,0,0,1,37.62,29.57Z"/><path class="cls-1" d="M79.95,36.88a8.78,8.78,0,1,0,8.78,8.78A8.79,8.79,0,0,0,79.95,36.88Zm6.4,8.78a6.4,6.4,0,1,1-6.4-6.4A6.41,6.41,0,0,1,86.35,45.66Z"/><path class="cls-1" d="M99.25,40.7l-2.86-.48a17.09,17.09,0,0,0-1-2.34l1.64-2.29a2.45,2.45,0,0,0-.17-3.29l-3.58-3.58A2.44,2.44,0,0,0,91.58,28a2.39,2.39,0,0,0-1.49.51l-2.36,1.68a17.19,17.19,0,0,0-2.34-1l-.47-2.78a2.45,2.45,0,0,0-2.45-2.21H77.42A2.45,2.45,0,0,0,75,26.36l-.47,2.85a17.28,17.28,0,0,0-2.34,1l-2.29-1.64a2.51,2.51,0,0,0-3.29.17L63,32.29a2.43,2.43,0,0,0-.21,3.23l1.68,2.36a17.12,17.12,0,0,0-1,2.34l-2.78.47a2.45,2.45,0,0,0-2.21,2.45v5.06a2.41,2.41,0,0,0,2.13,2.44l2.86.48a17.22,17.22,0,0,0,1,2.34l-1.63,2.29A2.45,2.45,0,0,0,63,59l3.58,3.58a2.45,2.45,0,0,0,1.74.72,2.39,2.39,0,0,0,1.49-.51l2.36-1.68a17.11,17.11,0,0,0,2.34,1L75,64.89a2.45,2.45,0,0,0,2.45,2.21h5.06A2.44,2.44,0,0,0,84.91,65l.48-2.85a17.15,17.15,0,0,0,2.34-1L90,62.77a2.5,2.5,0,0,0,3.29-.17L96.89,59a2.44,2.44,0,0,0,.22-3.23l-1.68-2.35a17.3,17.3,0,0,0,1-2.34l2.77-.47a2.44,2.44,0,0,0,2.22-2.44V43.13A2.44,2.44,0,0,0,99.25,40.7Zm-4.93,9A14.69,14.69,0,0,1,93,53a1.2,1.2,0,0,0,.07,1.28l2.14,3v.11h0l-3.58,3.58s0,0-.16,0l-2.95-2.1a1.18,1.18,0,0,0-1.28-.07A15.1,15.1,0,0,1,84,60a1.18,1.18,0,0,0-.85,1l-.6,3.62-.08.08-5.06,0s-.07,0-.08-.14L76.74,61a1.2,1.2,0,0,0-.85-1,14.91,14.91,0,0,1-3.24-1.34,1.19,1.19,0,0,0-1.27.07l-3,2.14h-.12l-3.58-3.58s0-.1,0-.16l2.1-3A1.19,1.19,0,0,0,66.91,53a14.73,14.73,0,0,1-1.34-3.23,1.2,1.2,0,0,0-1-.85L61,48.27l-.08-.08V43.13c0-.06.06-.08.14-.08l3.58-.6a1.2,1.2,0,0,0,1-.85,14.65,14.65,0,0,1,1.34-3.23,1.2,1.2,0,0,0-.07-1.27l-2.14-3V34h0l3.58-3.58s0,0,.16,0l3,2.11a1.2,1.2,0,0,0,1.28.08,14.6,14.6,0,0,1,3.23-1.34,1.2,1.2,0,0,0,.85-1l.6-3.62.08-.08,5.06,0c.06,0,.08.06.08.14l.6,3.58a1.19,1.19,0,0,0,.85,1,15.17,15.17,0,0,1,3.23,1.34,1.19,1.19,0,0,0,1.28-.07l3-2.14h.12L95.21,34s0,.11,0,.16l-2.12,3A1.19,1.19,0,0,0,93,38.37a14.73,14.73,0,0,1,1.34,3.23,1.18,1.18,0,0,0,1,.85l3.63.61.08.07,0,5.06s0,.07-.14.08l-3.58.6A1.19,1.19,0,0,0,94.32,49.73Z"/><path class="cls-1" d="M106.95,9.66l-1.49-.25A10.36,10.36,0,0,0,105,8.34l.84-1.18a1.74,1.74,0,0,0-.12-2.34l-2.1-2.1a1.84,1.84,0,0,0-2.29-.16l-1.23.88A10.44,10.44,0,0,0,99,3l-.24-1.43A1.74,1.74,0,0,0,97.07,0h-3a1.74,1.74,0,0,0-1.73,1.51L92.12,3A10.37,10.37,0,0,0,91,3.44L89.87,2.6a1.76,1.76,0,0,0-2.34.12l-2.1,2.1a1.73,1.73,0,0,0-.16,2.29l.88,1.23a10.73,10.73,0,0,0-.44,1.07l-1.43.24a1.74,1.74,0,0,0-1.57,1.74v3a1.71,1.71,0,0,0,1.51,1.73l1.49.25a10.53,10.53,0,0,0,.44,1.07l-.84,1.18a1.74,1.74,0,0,0,.12,2.34l2.1,2.1a1.83,1.83,0,0,0,2.29.16l1.23-.88a10.44,10.44,0,0,0,1.07.44l.24,1.43a1.74,1.74,0,0,0,1.74,1.57h3a1.74,1.74,0,0,0,1.73-1.51L99,22.75a10.32,10.32,0,0,0,1.07-.44l1.18.84a1.78,1.78,0,0,0,2.34-.12l2.1-2.1a1.72,1.72,0,0,0,.16-2.29L105,17.4a10.18,10.18,0,0,0,.44-1.07l1.42-.24a1.74,1.74,0,0,0,1.58-1.74v-3A1.71,1.71,0,0,0,106.95,9.66Zm-4.58,11.78-1.58-1.13a1,1,0,0,0-1.08-.06,8.5,8.5,0,0,1-1.82.76,1,1,0,0,0-.72.8l-.32,1.92H94.32L94,21.81a1,1,0,0,0-.72-.8,8.47,8.47,0,0,1-1.83-.76,1,1,0,0,0-1.07.06l-1.59,1.14L87,19.66l1.13-1.59A1,1,0,0,0,88.21,17a8.33,8.33,0,0,1-.76-1.82,1,1,0,0,0-.8-.72l-1.92-.32V11.61l1.92-.32a1,1,0,0,0,.8-.72,8.35,8.35,0,0,1,.76-1.83,1,1,0,0,0-.06-1.07L87,6.08,88.79,4.3l1.58,1.13a1,1,0,0,0,1.08.06,8.31,8.31,0,0,1,1.83-.76,1,1,0,0,0,.72-.8L94.32,2h2.52l.32,1.93a1,1,0,0,0,.72.8,8.6,8.6,0,0,1,1.83.76,1,1,0,0,0,1.08-.06l1.59-1.14,1.78,1.78L103,7.67A1,1,0,0,0,103,8.75a8.35,8.35,0,0,1,.76,1.83,1,1,0,0,0,.8.71l1.93.32v2.52l-1.93.32a1,1,0,0,0-.8.72A8.34,8.34,0,0,1,103,17a1,1,0,0,0,.06,1.08l1.14,1.59Z"/><path class="cls-1" d="M95.58,7.42A5.45,5.45,0,1,0,101,12.87,5.46,5.46,0,0,0,95.58,7.42Zm0,2a3.44,3.44,0,1,1-3.44,3.45A3.45,3.45,0,0,1,95.58,9.43Z"/></svg>