<svg id="Layer_1" data-name="Layer 1" xmlns="http://www.w3.org/2000/svg" viewBox="0 0 77.5 77.5"><defs><style>.cls-1{fill:#f60;}</style></defs><title>no-fee</title><polygon class="cls-1" points="45.41 38.77 45.87 35.53 39.78 35.53 43.02 38.77 45.41 38.77"/><path class="cls-1" d="M36.74,28.33a14.07,14.07,0,0,1,.94-3.54,7,7,0,0,1,1.71-2.45,6.55,6.55,0,0,1,2.53-1.38A15.21,15.21,0,0,1,47,20.58q.93.06,1.81.15t1.68.21l.88.14.49-3-1-.22q-.83-.16-1.74-.27t-1.85-.19a21.79,21.79,0,0,0-7,.5,10.36,10.36,0,0,0-3.85,1.8,9.21,9.21,0,0,0-2.62,3.28,17.51,17.51,0,0,0-1.48,5.14h0L36.22,32Z"/><path class="cls-1" d="M28.67,53.13,30,52.22a12.05,12.05,0,0,0,1.63-1.35,8.65,8.65,0,0,0,1.24-1.57,10.05,10.05,0,0,0,.91-1.92A12.77,12.77,0,0,0,34.33,45l.28-1.93-3.89-3.89-.81,5.5a14.65,14.65,0,0,1-.81,3.17,10,10,0,0,1-1.5,2.66,7.29,7.29,0,0,1-2.18,1.85,5.55,5.55,0,0,1-1.16.48L23,53.13l-.47,3.24H47.91l-3.24-3.24Z"/><polygon class="cls-1" points="26.38 35.53 25.25 38.77 30.3 38.77 27.06 35.53 26.38 35.53"/><path class="cls-1" d="M38.75,0A38.32,38.32,0,0,0,14.88,8.26c-1,.8-2,1.66-2.93,2.55a38.73,38.73,0,0,0-5.32,6.3A38.73,38.73,0,0,0,60.39,70.88c1.05-.71,2.11-1.5,3.13-2.35a39.24,39.24,0,0,0,3.18-3c.89-.93,1.75-1.92,2.55-2.93A38.32,38.32,0,0,0,77.5,38.75,38.79,38.79,0,0,0,38.75,0Zm22,65.9a35.33,35.33,0,0,1-3.27,2.35A34.94,34.94,0,0,1,9.25,20a35.33,35.33,0,0,1,2.35-3.27l.32-.4L61.16,65.57Zm5.86-6.06a35.48,35.48,0,0,1-2.59,3l-.33.34L14.29,13.79l.34-.33a35.48,35.48,0,0,1,3-2.59,34.62,34.62,0,0,1,21.09-7.1,35,35,0,0,1,35,35A34.62,34.62,0,0,1,66.62,59.84Z"/></svg>