<svg id="Layer_1" data-name="Layer 1" xmlns="http://www.w3.org/2000/svg" viewBox="0 0 80.84 85.38"><defs><style>.cls-1{fill:#f60;}</style></defs><title>graph</title><path class="cls-1" d="M79.18,82H75.52V28.94A4.49,4.49,0,0,0,71,24.46H62.86a4.49,4.49,0,0,0-4.48,4.48V82H49.09V53a4.49,4.49,0,0,0-4.48-4.48H36.43A4.49,4.49,0,0,0,32,53V82H22.66V67a4.49,4.49,0,0,0-4.48-4.48H10A4.49,4.49,0,0,0,5.52,67V82H1.67a1.67,1.67,0,1,0,0,3.34H79.18a1.67,1.67,0,1,0,0-3.34ZM8.86,82V67A1.15,1.15,0,0,1,10,65.86h8.18A1.15,1.15,0,0,1,19.33,67V82Zm26.43,0V53a1.15,1.15,0,0,1,1.15-1.15h8.18A1.15,1.15,0,0,1,45.76,53V82Zm26.43,0V28.94a1.15,1.15,0,0,1,1.15-1.15H71a1.15,1.15,0,0,1,1.15,1.15V82Z"/><path class="cls-1" d="M16,46.43a1.66,1.66,0,0,0,1.18-.49l28.8-28.8,6.22,6.22a1.67,1.67,0,0,0,2.36,0L72.18,5.69v5.64a1.67,1.67,0,1,0,3.34,0V1.83s0-.05,0-.08A1.66,1.66,0,0,0,73.77,0H63.6a1.67,1.67,0,1,0,0,3.34h6.23L53.34,19.82,47.12,13.6a1.67,1.67,0,0,0-2.36,0l-30,30A1.67,1.67,0,0,0,16,46.43Z"/></svg>