<svg id="Layer_1" data-name="Layer 1" xmlns="http://www.w3.org/2000/svg" viewBox="0 0 90.58 79"><defs><style>.cls-1{fill:#f60;}</style></defs><title>love-umbraco</title><path class="cls-1" d="M45.33,52.09l-.88-.8-2.17-1.94c-1.6-1.42-3.26-2.9-4.8-4.43h0c-2.24-2.22-5.16-5.18-7.89-8.34A14,14,0,0,1,26.1,28a10.61,10.61,0,0,1,5.46-10.25,11.16,11.16,0,0,1,12,.36,13.93,13.93,0,0,1,1.73,1.3l.42-.3a16,16,0,0,1,3-1.84,10.89,10.89,0,0,1,12.4,2A11.51,11.51,0,0,1,63.6,32,23.53,23.53,0,0,1,58,40.16C56.18,42,54.31,43.7,52.5,45.39l-2.14,2L47.52,50Zm-6-9c1.5,1.49,3.05,2.87,4.7,4.33l1.31,1.17.46-.43,2.83-2.65,2.15-2c1.8-1.67,3.65-3.41,5.41-5.16a21.07,21.07,0,0,0,5-7.24,9,9,0,0,0-1.86-9.92,8.37,8.37,0,0,0-9.63-1.56,13.89,13.89,0,0,0-2.53,1.56c-.43.31-.86.61-1.3.9l-.78.51L44.37,22l-.69-.57a12.5,12.5,0,0,0-1.5-1.15A8.61,8.61,0,0,0,32.85,20a8.07,8.07,0,0,0-4.17,7.9,11.46,11.46,0,0,0,2.86,7c2.67,3.1,5.55,6,7.75,8.2Z"/><path class="cls-1" d="M83.72,65.88H6.86A6.87,6.87,0,0,1,0,59V6.86A6.87,6.87,0,0,1,6.86,0H83.72a6.87,6.87,0,0,1,6.86,6.86V59a6.87,6.87,0,0,1-6.86,6.86ZM6.86,2.75A4.12,4.12,0,0,0,2.75,6.86V59a4.12,4.12,0,0,0,4.11,4.11H83.72A4.13,4.13,0,0,0,87.85,59V6.86a4.13,4.13,0,0,0-4.13-4.11Zm0,0"/><path class="cls-1" d="M62.8,79h-35a1.37,1.37,0,1,1,0-2.75h35a1.37,1.37,0,0,1,0,2.75Zm0,0"/><path class="cls-1" d="M45.29,79a1.37,1.37,0,0,1-1.37-1.37V64.51a1.37,1.37,0,1,1,2.75,0V77.63A1.38,1.38,0,0,1,45.29,79Zm0,0"/></svg>