<svg id="Layer_1" data-name="Layer 1" xmlns="http://www.w3.org/2000/svg" viewBox="0 0 129.04 70.4"><defs><style>.cls-1{fill:#f60;}</style></defs><title>microsoft</title><path class="cls-1" d="M45.56,37.3l-.77,2.18h-.06A15.47,15.47,0,0,0,44,37.34L39.85,27h-4V43.49h2.67V33.3c0-.64,0-1.37,0-2.26,0-.45-.06-.79-.09-1h.06a10,10,0,0,0,.38,1.41l5,12.05h1.88l4.91-12.16A12.94,12.94,0,0,0,50.9,30H51c-.06,1.22-.11,2.31-.13,3V43.43h2.84V26.93H49.79Zm10.81-5.71h2.78V43.43H56.37Zm1.41-5a1.66,1.66,0,0,0-1.18.47,1.58,1.58,0,0,0,0,2.29,1.65,1.65,0,0,0,1.18.45A1.7,1.7,0,0,0,59,29.35a1.5,1.5,0,0,0,.49-1.13A1.58,1.58,0,0,0,59,27.06a1.56,1.56,0,0,0-1.18-.47M69,31.48a7.75,7.75,0,0,0-1.56-.17,6.7,6.7,0,0,0-3.38.83,5.58,5.58,0,0,0-2.22,2.29,7.27,7.27,0,0,0-.77,3.42,6.34,6.34,0,0,0,.75,3.06A5.12,5.12,0,0,0,63.91,43a6.16,6.16,0,0,0,3.06.75A6.72,6.72,0,0,0,70.32,43l0,0V40.39l-.11.09a4.77,4.77,0,0,1-1.35.71,4.12,4.12,0,0,1-1.32.26,3.28,3.28,0,0,1-2.61-1,3.94,3.94,0,0,1-1-2.8,4,4,0,0,1,1-2.88,3.43,3.43,0,0,1,2.61-1.07,4.55,4.55,0,0,1,2.65.9l.11.09V31.93l0,0A6.44,6.44,0,0,0,69,31.48m9.17-.09a2.93,2.93,0,0,0-1.88.66,4,4,0,0,0-1.07,1.6h0V31.59H72.41V43.43h2.78v-6a4.08,4.08,0,0,1,.68-2.5,2.14,2.14,0,0,1,1.79-1,6.85,6.85,0,0,1,.83.11,2.19,2.19,0,0,1,.66.28l.11.09V31.61l-.06,0a2.11,2.11,0,0,0-1-.19m7.56-.06A6.13,6.13,0,0,0,81.13,33a6.36,6.36,0,0,0-1.65,4.66,6.09,6.09,0,0,0,1.62,4.42A6.67,6.67,0,0,0,90,42a6.34,6.34,0,0,0,1.65-4.59A6.18,6.18,0,0,0,90,33a5.62,5.62,0,0,0-4.32-1.62m2.22,9.1a2.8,2.8,0,0,1-2.33,1,2.92,2.92,0,0,1-2.39-1,4.22,4.22,0,0,1-.85-2.84,4.49,4.49,0,0,1,.85-2.91,2.94,2.94,0,0,1,2.37-1,2.84,2.84,0,0,1,2.31,1,4.38,4.38,0,0,1,.85,2.88,4.94,4.94,0,0,1-.81,2.95m9.85-3.93a6.65,6.65,0,0,1-1.69-.88,1.21,1.21,0,0,1-.32-.9,1,1,0,0,1,.45-.85,2.06,2.06,0,0,1,1.22-.32,5.53,5.53,0,0,1,1.43.21,3.68,3.68,0,0,1,1.24.58l.11.09V31.83l-.06,0a7.71,7.71,0,0,0-1.26-.36,8.57,8.57,0,0,0-1.37-.13,5,5,0,0,0-3.27,1A3.16,3.16,0,0,0,93,34.95a3.39,3.39,0,0,0,.28,1.45,3.24,3.24,0,0,0,.85,1.11,7.45,7.45,0,0,0,1.71,1c.64.28,1.13.49,1.43.66a2.9,2.9,0,0,1,.64.51,1.21,1.21,0,0,1,.17.66c0,.79-.6,1.18-1.82,1.18a4.8,4.8,0,0,1-1.54-.28,5.94,5.94,0,0,1-1.56-.79l-.11-.09V43l.06,0a8.29,8.29,0,0,0,1.5.47,9.54,9.54,0,0,0,1.6.19,5.2,5.2,0,0,0,3.44-1A3.27,3.27,0,0,0,101,40a3,3,0,0,0-.68-2,8.66,8.66,0,0,0-2.5-1.47m10.51-5.17A6.13,6.13,0,0,0,103.72,33a6.45,6.45,0,0,0-1.65,4.66,6.09,6.09,0,0,0,1.62,4.42,6.67,6.67,0,0,0,8.85-.11,6.34,6.34,0,0,0,1.65-4.59A6.18,6.18,0,0,0,112.63,33a5.62,5.62,0,0,0-4.32-1.62m2.2,9.1a2.8,2.8,0,0,1-2.33,1,2.89,2.89,0,0,1-2.39-1,4.22,4.22,0,0,1-.85-2.84,4.49,4.49,0,0,1,.85-2.91,2.94,2.94,0,0,1,2.37-1,2.87,2.87,0,0,1,2.31,1,4.38,4.38,0,0,1,.85,2.88,4.66,4.66,0,0,1-.81,2.95"/><path class="cls-1" d="M129,33.88V31.59h-2.8v-3.5l-.09,0-2.65.79-.06,0v2.67h-4.19V30.1a2.34,2.34,0,0,1,.47-1.56A1.66,1.66,0,0,1,121,28a3.12,3.12,0,0,1,1.24.28l.11.06V26l-.06,0a5.34,5.34,0,0,0-3.78.3A3.71,3.71,0,0,0,117,27.74a4.37,4.37,0,0,0-.56,2.2v1.65h-1.94v2.26h1.94v9.57h2.8V33.88h4.19V40c0,2.5,1.18,3.76,3.53,3.76a7.32,7.32,0,0,0,1.18-.13,3.84,3.84,0,0,0,.88-.28l0,0V41l-.11.09a1.81,1.81,0,0,1-.58.26,2,2,0,0,1-.56.09,1.48,1.48,0,0,1-1.22-.45,2.31,2.31,0,0,1-.38-1.52v-5.6H129Z"/><path class="cls-1" d="M0,21.42H13.1v13.1H0Z"/><path class="cls-1" d="M14.47,21.42h13.1v13.1H14.47Z"/><path class="cls-1" d="M0,35.89H13.1V49H0Z"/><path class="cls-1" d="M14.47,35.89h13.1V49H14.47Z"/></svg>