<svg id="Layer_1" data-name="Layer 1" xmlns="http://www.w3.org/2000/svg" viewBox="0 0 86.06 89.74"><defs><style>.cls-1{fill:#f60;}</style></defs><title>open-box</title><path class="cls-1" d="M85.72,49c-2.65-5.31-5.29-10.61-8-15.9a2.94,2.94,0,0,0-1.22-1.21Q64.4,25.82,52.25,19.78c-.27-.13-.55-.24-1-.42,0,1,0,1.81,0,2.64a1.27,1.27,0,0,0,.86,1.43Q62.41,28.5,72.66,33.66l1.39.71c-.31.18-.49.3-.68.39Q58.54,42.18,43.72,49.6a1.46,1.46,0,0,1-1.48-.06Q27.56,42.18,12.86,34.84c-.26-.13-.51-.28-.85-.46l1-.49q10.51-5.26,21-10.52c.3-.15.72-.44.74-.69.08-1.07,0-2.15,0-3.3a5,5,0,0,0-.47.17Q21.83,25.76,9.41,32a2.82,2.82,0,0,0-1.12,1.18C7,35.72,5.7,38.3,4.42,40.87L.27,49.16a1.68,1.68,0,0,0,2.34,2.32l.29-.15h0l1.26-.64.12-.05a1.47,1.47,0,0,0,.28-.15l3.71-1.88q0,11.2,0,22.39a2.36,2.36,0,0,0,1.5,2.41q16,7.95,31.91,16a2.75,2.75,0,0,0,2.73,0q16-8.06,32.07-16a2.12,2.12,0,0,0,1.35-2.12c0-4,0-8,0-12a6.85,6.85,0,0,0-.09-.76c-.9.45-1.7.89-2.53,1.24a1,1,0,0,0-.7,1.13c0,2.94,0,5.88,0,8.81a1.32,1.32,0,0,1-.85,1.43q-14,7-28,14l-1,.45V58.31c.26.43.42.68.56.94q2.19,3.93,4.37,7.86c.71,1.26,1.45,1.51,2.7.88L84.85,51.73C86.1,51.1,86.36,50.32,85.72,49ZM5.36,46.33C6.18,44.51,7.15,42.76,8,41l.23.06v1q0,1.41,0,2.82Zm36,38.61c0,.12,0,.25,0,.52l-1-.49L12.42,71c-.54-.27-.87-.51-.87-1.23,0-10.34,0-20.68,0-31,0-.24,0-.48.05-.81.27.1.47.16.66.25L40.65,52.42a1,1,0,0,1,.72,1Q41.34,69.2,41.35,84.94ZM52,64.49l-6.68-12L76.06,37.1,82.2,49.38Z"/><path class="cls-1" d="M41.39,6.4V35.15h3.3V6.35l.22-.11,10,10,2.31-2.17L43.14,0,28.9,14.23l2.33,2.34Z"/></svg>