<svg xmlns="http://www.w3.org/2000/svg" width="84.86" height="84.87" viewBox="0 0 84.86 84.87"><defs><style>.a{fill:#fff}</style></defs><title>icon__book</title><path class="a" d="M32.06 53.14L13.2 45.59v6.39l18.86 7.54v-6.38M32.06 33.55L13.2 26.01v6.38l18.86 7.55v-6.39"/><path class="a" d="M82.8.81a4.72 4.72 0 0 0-4.4-.47l-36 14.38L6.47.34A4.71 4.71 0 0 0 0 4.71v60.36a4.7 4.7 0 0 0 3 4.37L40.6 84.5s.77.25.92.27a4.61 4.61 0 0 0 .91.1 4.8 4.8 0 0 0 .92-.1c.14 0 .92-.27.92-.27L81.9 69.44a4.7 4.7 0 0 0 3-4.37V4.71a4.7 4.7 0 0 0-2.1-3.9zM37.72 75.22L7.54 63.15V10.31l30.18 12.07v52.84zm39.6-12.07L47.15 75.22V22.38l30.17-12.07z"/><path class="a" d="M71.67 45.59L52.8 53.14v6.38l18.87-7.54v-6.39M71.67 26.01L52.8 33.55v6.39l18.87-7.55v-6.38"/></svg>