<svg xmlns="http://www.w3.org/2000/svg" width="90.96" height="81.79" viewBox="0 0 90.96 81.79"><title>icon__eyes</title><path d="M43.5 64.27c-2.5 9.41-8 16.1-15 16.88C17.56 82.37 7.09 68.87 5.09 51s5.24-33.34 16.16-34.56c10-1.12 19.56 10 22.67 25.58a7.24 7.24 0 0 1 .66-1.47C41.28 24.48 31.33 13 21 14.14c-11.38 1.27-18.92 17.4-16.84 36s13 32.7 24.38 31.43c7-.78 12.55-7.2 15.3-16.36-.13-.29-.24-.62-.34-.94z"/><ellipse cx="26.15" cy="67.07" rx="5.53" ry="10.14" transform="rotate(-12.01 26.155 67.053)"/><path d="M83.66 51.86c-3.32 18.45-15.15 31.76-26.42 29.73S39.51 63 42.84 44.51 58 12.75 69.27 14.78 87 33.41 83.66 51.86zm-14.8-34.8C58 15.11 46.69 27.88 43.5 45.58s3 33.62 13.82 35.56 22.16-10.82 25.35-28.51-3-33.63-13.81-35.57zm-6.17 40c-3-.52-6.21 3.54-7.15 9.07s.74 10.41 3.75 10.92 6.21-3.54 7.15-9.05-.73-10.42-3.75-10.93zM0 14.06a18.62 18.62 0 0 1 6.6-9.34 22.36 22.36 0 0 1 11-4.53A24.53 24.53 0 0 1 29.24 1.6a24.74 24.74 0 0 1 9.48 6.22C35 7.24 31.5 6.54 28.11 6.18a41.06 41.06 0 0 0-9.78 0 32.57 32.57 0 0 0-9.27 2.54A49 49 0 0 0 0 14.06zM52.17 9.29a18.71 18.71 0 0 1 9.13-6.91 22.42 22.42 0 0 1 11.83-1 24.63 24.63 0 0 1 10.69 4.9 24.81 24.81 0 0 1 7.18 8.8c-3.41-1.69-6.49-3.41-9.61-4.78a42.07 42.07 0 0 0-9.31-3 32.79 32.79 0 0 0-9.65-.3 48.39 48.39 0 0 0-10.26 2.29z"/></svg>