<svg xmlns="http://www.w3.org/2000/svg" width="476.13" height="121.56" viewBox="0 0 476.13 121.56"><defs><style>.a{fill:#eb0045}.b{fill:#a2a9ad}</style></defs><title>logo__innova--mobile</title><path class="a" d="M25.48 110.12q0 11.44-12.74 11.44T0 110.12q0-5.45 3.18-8.47t9.56-3q12.74-.04 12.74 11.47zM1.07 2.15h23.41V88H1.07zM118.08 87.56H94.67V37.45q0-9.29-3.3-13.93t-10.51-4.64q-9.83 0-14.2 6.56t-4.37 21.75v40.37H38.88V1.76h17.88l3.15 11h1.3A24.72 24.72 0 0 1 72 3.34 36.79 36.79 0 0 1 87.61.15q15 0 22.72 8.1t7.75 23.37z"/><path class="b" d="M211 87.56h-23.4V37.45q0-9.29-3.3-13.93t-10.5-4.64q-9.83 0-14.19 6.56t-4.38 21.75v40.37h-23.4V1.76h17.88l3.14 11h1.31a24.67 24.67 0 0 1 10.78-9.4A36.76 36.76 0 0 1 180.56.15q15 0 22.71 8.1T211 31.62zM305.25 44.51q0 21-11.05 32.77t-30.77 11.81a43 43 0 0 1-21.79-5.41 35.92 35.92 0 0 1-14.51-15.54q-5.05-10.14-5.06-23.63 0-21 11-32.69T263.89.15a43.28 43.28 0 0 1 21.79 5.38A35.84 35.84 0 0 1 300.19 21q5.06 10 5.06 23.51zm-59.32 0q0 12.74 4.19 19.26t13.62 6.52q9.36 0 13.46-6.48t4.11-19.3q0-12.73-4.14-19.11T263.58 19q-9.36 0-13.5 6.33t-4.15 19.18zM339.09 87.56L306.4 1.76h24.48l16.58 48.89a87.34 87.34 0 0 1 3.45 17.57h.46a76.37 76.37 0 0 1 3.45-17.57l16.5-48.89h24.48l-32.69 85.8zM459.79 87.56l-4.53-11.66h-.61q-5.91 7.44-12.17 10.32t-16.3 2.87q-12.36 0-19.46-7.06t-7.1-20.1q0-13.66 9.56-20.15T438 34.61l14.89-.46v-3.76q0-13-13.35-13-10.29 0-24.17 6.22l-7.76-15.86A69.69 69.69 0 0 1 440.45 0q17.26 0 26.47 7.52t9.21 22.87v57.17zm-6.91-39.75l-9.05.31q-10.21.3-15.2 3.68t-5 10.28q0 9.9 11.36 9.9 8.13 0 13-4.68t4.87-12.43z"/></svg>