<svg xmlns="http://www.w3.org/2000/svg" width="635.15" height="69.79mm" viewBox="0 0 476.36 197.82"><defs><style>.a{fill:#eb0045}.b{fill:#a2a9ad}</style></defs><title>logo__innova</title><path class="a" d="M25.48 139.12q0 11.43-12.74 11.44T0 139.12q0-5.44 3.18-8.48t9.56-3q12.74-.03 12.74 11.48zM1.07 31.15h23.41v85.79H1.07zM118.08 116.56H94.67V66.44c0-6.18-1.1-10.83-3.3-13.92s-5.7-4.65-10.51-4.65q-9.83 0-14.2 6.57t-4.37 21.75v40.37H38.88v-85.8h17.88l3.15 11h1.3A24.85 24.85 0 0 1 72 32.33a36.79 36.79 0 0 1 15.62-3.18q15 0 22.72 8.1t7.75 23.36z"/><path class="b" d="M211 116.56h-23.4V66.44c0-6.18-1.1-10.83-3.3-13.92s-5.71-4.65-10.52-4.65q-9.83 0-14.19 6.57t-4.38 21.75v40.37h-23.4v-85.8h17.88l3.14 11h1.31a24.79 24.79 0 0 1 10.78-9.4 36.76 36.76 0 0 1 15.62-3.18q15 0 22.71 8.1T211 60.61zM305.25 73.5q0 21-11.05 32.77t-30.77 11.82a43 43 0 0 1-21.79-5.41 36 36 0 0 1-14.51-15.54Q222.08 87 222.07 73.5q0-21 11-32.69t30.85-11.66a43.27 43.27 0 0 1 21.79 5.37A35.81 35.81 0 0 1 300.19 50q5.06 10 5.06 23.5zm-59.32 0q0 12.75 4.19 19.27t13.62 6.52q9.36 0 13.46-6.49t4.11-19.3q0-12.73-4.14-19.1T263.58 48q-9.36 0-13.5 6.33t-4.15 19.17zM339.09 116.56l-32.69-85.8h24.48l16.58 48.88a87.29 87.29 0 0 1 3.45 17.58h.46a76.54 76.54 0 0 1 3.45-17.58l16.5-48.88h24.48l-32.69 85.8zM459.79 116.56l-4.53-11.67h-.61q-5.91 7.44-12.17 10.32t-16.3 2.88q-12.36 0-19.46-7.06t-7.1-20.11q0-13.65 9.56-20.14T438 63.61l14.89-.46v-3.77q0-13-13.35-13-10.29 0-24.17 6.21l-7.75-15.8A69.69 69.69 0 0 1 440.45 29q17.26 0 26.47 7.52t9.21 22.86v57.18zm-6.91-39.76l-9.05.31q-10.21.31-15.2 3.68c-3.32 2.26-5 5.68-5 10.29q0 9.9 11.36 9.9 8.13 0 13-4.68t4.87-12.44zM131.85 15.59V.24h1.79v15.35zM155.45 15.59h-2L145 2.71h-.08c.11 1.51.17 2.9.17 4.16v8.72h-1.65V.24h2l8.37 12.83h.08c0-.19 0-.8-.09-1.82s-.07-1.76-.05-2.2V.24h1.67zM177.35 15.59h-2l-8.42-12.88h-.09c.12 1.51.17 2.9.17 4.16v8.72h-1.65V.24h2l8.37 12.83h.08c0-.19 0-.8-.09-1.82s-.07-1.76-.06-2.2V.24h1.67zM200 7.89a8.47 8.47 0 0 1-1.86 5.8A6.54 6.54 0 0 1 193 15.8a6.62 6.62 0 0 1-5.23-2.07 8.54 8.54 0 0 1-1.85-5.86 8.44 8.44 0 0 1 1.85-5.81A6.69 6.69 0 0 1 193 0a6.54 6.54 0 0 1 5.17 2.1A8.47 8.47 0 0 1 200 7.89zm-12.23 0a7.31 7.31 0 0 0 1.33 4.73 5.41 5.41 0 0 0 7.71 0 7.38 7.38 0 0 0 1.3-4.74 7.32 7.32 0 0 0-1.29-4.69A4.66 4.66 0 0 0 193 1.6a4.73 4.73 0 0 0-3.88 1.61 7.21 7.21 0 0 0-1.32 4.68zM216.91.24h1.92l-5.53 15.35h-1.77L206 .24h1.89l3.53 9.93a27.4 27.4 0 0 1 1 3.33 28.83 28.83 0 0 1 1-3.39zM235.38 15.59l-1.91-4.88h-6.15l-1.89 4.88h-1.81L229.69.18h1.5l6 15.41zm-2.46-6.49l-1.79-4.75c-.23-.61-.47-1.34-.71-2.22q-.24 1-.66 2.22L228 9.1zM267.34 4.71a4.31 4.31 0 0 1-1.59 3.59 7.19 7.19 0 0 1-4.55 1.25h-1.81v6h-1.78V.24h4q5.73 0 5.73 4.47zM259.39 8H261a5.87 5.87 0 0 0 3.43-.77 2.81 2.81 0 0 0 1.06-2.45 2.66 2.66 0 0 0-1-2.27 5.2 5.2 0 0 0-3.11-.74h-2zM277.76 9.21v6.38H276V.24h4.21a6.64 6.64 0 0 1 4.18 1.08 4 4 0 0 1 1.34 3.26 4.06 4.06 0 0 1-3.08 4.11l4.17 6.9h-2.11L281 9.21zm0-1.54h2.44a4.26 4.26 0 0 0 2.8-.75 2.81 2.81 0 0 0 .88-2.25 2.56 2.56 0 0 0-.9-2.19 4.85 4.85 0 0 0-2.88-.67h-2.32zM304.05 15.59h-8.55V.24h8.55v1.59h-6.77v4.94h6.37v1.58h-6.37V14h6.77zM322.61 11.51a3.77 3.77 0 0 1-1.47 3.16 6.41 6.41 0 0 1-4 1.13 10 10 0 0 1-4.2-.7v-1.72A11.28 11.28 0 0 0 315 14a10.43 10.43 0 0 0 2.2.24 4.46 4.46 0 0 0 2.69-.68 2.23 2.23 0 0 0 .9-1.89 2.34 2.34 0 0 0-.32-1.3 2.88 2.88 0 0 0-1.07-.94 15.23 15.23 0 0 0-2.28-1 7.25 7.25 0 0 1-3.06-1.82 4 4 0 0 1-.92-2.74 3.4 3.4 0 0 1 1.33-2.82A5.56 5.56 0 0 1 318 0a10.38 10.38 0 0 1 4.21.84l-.56 1.56a9.31 9.31 0 0 0-3.69-.8 3.57 3.57 0 0 0-2.22.61 2 2 0 0 0-.74 1.71 2.53 2.53 0 0 0 .29 1.3 2.91 2.91 0 0 0 1 .94 13.4 13.4 0 0 0 2.14.94 8.45 8.45 0 0 1 3.32 1.84 3.64 3.64 0 0 1 .86 2.57zM340.69 11.51a3.77 3.77 0 0 1-1.47 3.16 6.41 6.41 0 0 1-4 1.13 10 10 0 0 1-4.2-.7v-1.72a11 11 0 0 0 2.06.62 10.36 10.36 0 0 0 2.2.24 4.46 4.46 0 0 0 2.69-.68 2.23 2.23 0 0 0 .9-1.89 2.43 2.43 0 0 0-.32-1.3 2.88 2.88 0 0 0-1.07-.94 15.23 15.23 0 0 0-2.28-1 7.25 7.25 0 0 1-3.06-1.82 4 4 0 0 1-.92-2.74 3.4 3.4 0 0 1 1.33-2.82 5.56 5.56 0 0 1 3.53-1 10.41 10.41 0 0 1 4.21.84l-.56 1.56a9.35 9.35 0 0 0-3.69-.8 3.55 3.55 0 0 0-2.22.61 2 2 0 0 0-.8 1.69 2.53 2.53 0 0 0 .3 1.3 2.73 2.73 0 0 0 1 .94 13.4 13.4 0 0 0 2.14.94 8.53 8.53 0 0 1 3.32 1.84 3.68 3.68 0 0 1 .91 2.54zM361.88 15.59V.24h1.78V14h6.78v1.62zM379.43 15.59V.24h1.78v15.35zM397.72 15.59L392.51 2h-.09c.1 1.08.15 2.36.15 3.85v9.76h-1.65V.24h2.69l4.86 12.66h.09l4.9-12.66h2.67v15.35h-1.79V5.7c0-1.13.05-2.37.15-3.69h-.09l-5.24 13.58zM416.05 15.59V.24h1.79v15.35zM433.11 15.59h-1.78V1.83h-4.86V.24H438v1.59h-4.87zM455.05 15.59h-8.55V.24h8.55v1.59h-6.77v4.94h6.37v1.58h-6.37V14h6.77zM476.36 7.77a7.77 7.77 0 0 1-2.06 5.81 8.18 8.18 0 0 1-5.94 2h-4.25V.24h4.7a7.5 7.5 0 0 1 5.57 2 7.49 7.49 0 0 1 1.98 5.53zm-1.89.06A6.18 6.18 0 0 0 473 3.31a6 6 0 0 0-4.48-1.52h-2.62v12.26h2.17a6.64 6.64 0 0 0 4.8-1.57 6.23 6.23 0 0 0 1.6-4.65z"/><g><path class="b" d="M2.66 197.56v-19.38h2.26v19.38zM25.37 197.56H22.8l-10.59-16.27h-.11q.21 2.86.21 5.25v11h-2.08v-19.36h2.55l10.56 16.2h.11c0-.24-.06-1-.12-2.3s-.08-2.22-.07-2.78v-11.12h2.11zM45.84 197.56h-2.57l-10.59-16.27h-.11q.21 2.86.21 5.25v11H30.7v-19.36h2.54l10.57 16.2h.11c0-.24-.06-1-.12-2.3s-.09-2.22-.07-2.78v-11.12h2.11zM68 187.84a10.73 10.73 0 0 1-2.35 7.32 8.3 8.3 0 0 1-6.55 2.66 8.35 8.35 0 0 1-6.6-2.62c-1.56-1.74-2.33-4.2-2.33-7.39s.78-5.6 2.33-7.33a8.44 8.44 0 0 1 6.63-2.61 8.27 8.27 0 0 1 6.52 2.65 10.64 10.64 0 0 1 2.35 7.32zm-15.44 0c0 2.62.55 4.62 1.67 6a5.94 5.94 0 0 0 4.87 2 5.91 5.91 0 0 0 4.87-2 9.37 9.37 0 0 0 1.64-6c0-2.61-.54-4.58-1.64-5.93a5.84 5.84 0 0 0-4.84-2 6 6 0 0 0-4.9 2 9.1 9.1 0 0 0-1.68 5.93zM83.38 178.18h2.42l-7 19.38h-2.21l-7-19.38H72l4.45 12.54a33.76 33.76 0 0 1 1.22 4.2 35.82 35.82 0 0 1 1.33-4.28zM100.65 197.56l-2.41-6.17h-7.77l-2.39 6.17H85.8l7.66-19.46h1.9l7.64 19.46zm-3.12-8.19l-2.25-6c-.29-.76-.59-1.69-.9-2.8a24.94 24.94 0 0 1-.84 2.8l-2.28 6zM111.61 197.56h-2.25v-17.38h-6.14v-2h14.53v2h-6.14zM120.66 197.56v-19.38h2.26v19.38zM143.37 197.56h-2.57l-10.59-16.27h-.11q.21 2.86.21 5.25v11h-2.08v-19.36h2.55l10.56 16.2h.11c0-.24-.06-1-.12-2.3s-.08-2.22-.07-2.78v-11.12h2.11zM157.22 187.4h6.59v9.43a22.25 22.25 0 0 1-3.13.74 23.56 23.56 0 0 1-3.68.25 8.89 8.89 0 0 1-6.85-2.62c-1.64-1.74-2.46-4.19-2.46-7.33a11.09 11.09 0 0 1 1.22-5.3 8.17 8.17 0 0 1 3.49-3.47 11.31 11.31 0 0 1 5.34-1.2 14.61 14.61 0 0 1 5.78 1.14l-.88 2a12.92 12.92 0 0 0-5-1.12 7.24 7.24 0 0 0-5.52 2.11 8.18 8.18 0 0 0-2 5.85 8.39 8.39 0 0 0 1.91 5.95 7.4 7.4 0 0 0 5.63 2 16.72 16.72 0 0 0 3.94-.47v-6h-4.34zM175.52 197.56v-19.38h2.25v17.34h8.55v2zM201.79 197.56l-2.41-6.17h-7.77l-2.39 6.17h-2.28l7.66-19.46h1.9l7.62 19.46zm-3.12-8.19l-2.25-6c-.29-.76-.59-1.69-.9-2.8a24.94 24.94 0 0 1-.84 2.8l-2.28 6zM221.92 197.56h-2.57l-10.59-16.27h-.11c.15 1.91.22 3.66.22 5.25v11h-2.08v-19.36h2.54l10.57 16.2h.1c0-.24-.06-1-.12-2.3s-.08-2.22-.06-2.78v-11.12h2.1zM235.78 187.4h6.58v9.43a22.11 22.11 0 0 1-3.12.74 23.7 23.7 0 0 1-3.69.25 8.91 8.91 0 0 1-6.85-2.62c-1.64-1.74-2.46-4.19-2.46-7.33a11.09 11.09 0 0 1 1.22-5.3 8.23 8.23 0 0 1 3.54-3.47 11.31 11.31 0 0 1 5.34-1.2 14.58 14.58 0 0 1 5.78 1.14l-.87 2a13 13 0 0 0-5-1.12 7.25 7.25 0 0 0-5.53 2.11 8.18 8.18 0 0 0-2 5.85 8.35 8.35 0 0 0 1.92 5.95 7.36 7.36 0 0 0 5.62 2 16.66 16.66 0 0 0 3.94-.47v-6h-4.33zM261.65 178.18v12.54a6.86 6.86 0 0 1-2 5.21 7.7 7.7 0 0 1-5.5 1.89 7.31 7.31 0 0 1-5.42-1.91 7.06 7.06 0 0 1-1.91-5.25v-12.48h2.25v12.64a5 5 0 0 0 1.33 3.73 5.36 5.36 0 0 0 3.89 1.3 5.15 5.15 0 0 0 3.78-1.31 5 5 0 0 0 1.33-3.74v-12.62zM279 197.56l-2.41-6.17h-7.77l-2.38 6.17h-2.28l7.66-19.46h1.89l7.62 19.46zm-3.11-8.19l-2.26-6c-.29-.76-.59-1.69-.9-2.8a24.74 24.74 0 0 1-.83 2.8l-2.28 6zM292.48 187.4h6.59v9.43a22.58 22.58 0 0 1-3.13.74 23.56 23.56 0 0 1-3.68.25 8.93 8.93 0 0 1-6.86-2.62c-1.63-1.74-2.45-4.19-2.45-7.33a11.2 11.2 0 0 1 1.21-5.3 8.25 8.25 0 0 1 3.5-3.47 11.31 11.31 0 0 1 5.34-1.2 14.61 14.61 0 0 1 5.78 1.14l-.88 2a13 13 0 0 0-5-1.12 7.23 7.23 0 0 0-5.52 2.11 8.18 8.18 0 0 0-2 5.85 8.39 8.39 0 0 0 1.91 5.95 7.4 7.4 0 0 0 5.63 2 16.72 16.72 0 0 0 3.94-.47v-6h-4.34zM314.53 197.56h-10.81v-19.38h10.81v2H306v6.24h8v2h-8v7.13h8.55zM336.68 197.56h-10.81v-19.38h10.81v2h-8.55v6.24h8v2h-8v7.13h8.55zM356.44 187.68q0 4.8-2.61 7.34t-7.49 2.54H341v-19.38h5.94a8.7 8.7 0 0 1 9.53 9.5zm-2.39.08q0-3.8-1.9-5.71a7.62 7.62 0 0 0-5.65-1.92h-3.28v15.48H346q4 0 6.06-2t1.99-5.85zM375.4 178.18v12.54a6.82 6.82 0 0 1-2 5.21 7.67 7.67 0 0 1-5.5 1.89 7.29 7.29 0 0 1-5.41-1.91 7.06 7.06 0 0 1-1.92-5.25v-12.48h2.26v12.64a5 5 0 0 0 1.32 3.73 5.37 5.37 0 0 0 3.9 1.3 5.18 5.18 0 0 0 3.78-1.31 5 5 0 0 0 1.32-3.74v-12.62zM388.82 179.91a6.32 6.32 0 0 0-5 2.13 8.6 8.6 0 0 0-1.85 5.83 8.82 8.82 0 0 0 1.78 5.88 6.36 6.36 0 0 0 5.09 2.07 17.16 17.16 0 0 0 4.62-.73v2a14.33 14.33 0 0 1-5 .75 8.41 8.41 0 0 1-6.61-2.6q-2.32-2.59-2.32-7.38a11.6 11.6 0 0 1 1.12-5.25 8 8 0 0 1 3.23-3.47 9.83 9.83 0 0 1 5-1.22 12.06 12.06 0 0 1 5.33 1.11l-1 1.94a10.23 10.23 0 0 0-4.39-1.06zM409.83 197.56l-2.41-6.17h-7.77l-2.38 6.17H395l7.66-19.46h1.89l7.63 19.46zm-3.11-8.19l-2.26-6c-.29-.76-.59-1.69-.9-2.8a24.74 24.74 0 0 1-.83 2.8l-2.28 6zM420.79 197.56h-2.25v-17.38h-6.14v-2h14.53v2h-6.14zM429.85 197.56v-19.38h2.25v19.38zM454.24 187.84a10.73 10.73 0 0 1-2.35 7.32 9.51 9.51 0 0 1-13.15 0q-2.33-2.61-2.33-7.39c0-3.15.78-5.6 2.33-7.33a8.44 8.44 0 0 1 6.63-2.61 8.27 8.27 0 0 1 6.52 2.65 10.64 10.64 0 0 1 2.35 7.36zm-15.44 0c0 2.62.55 4.62 1.67 6a6.84 6.84 0 0 0 9.74 0 9.37 9.37 0 0 0 1.64-6 9.25 9.25 0 0 0-1.63-5.93 5.88 5.88 0 0 0-4.85-2 6 6 0 0 0-4.9 2 9.1 9.1 0 0 0-1.67 5.93zM473.7 197.56h-2.57l-10.6-16.27h-.1q.21 2.86.21 5.25v11h-2.08v-19.36h2.54l10.57 16.2h.11c0-.24-.06-1-.12-2.3s-.09-2.22-.07-2.78v-11.12h2.11z"/></g></svg>