<svg width="1904" height="400" xmlns="http://www.w3.org/2000/svg" style="animation-delay: 0s; animation-direction: normal; animation-duration: 0s; animation-fill-mode: none; animation-iteration-count: 1; animation-name: none; animation-play-state: running; animation-timing-function: ease; background-attachment: scroll; background-blend-mode: normal; background-clip: border-box; background-color: rgba(0, 0, 0, 0); background-image: none; background-origin: padding-box; background-position: 0% 0%; background-repeat: repeat; background-size: auto; border-bottom-color: rgb(0, 0, 0); border-bottom-left-radius: 0px; border-bottom-right-radius: 0px; border-bottom-style: none; border-bottom-width: 0px; border-collapse: separate; border-image-outset: 0px; border-image-repeat: stretch; border-image-slice: 100%; border-image-source: none; border-image-width: 1; border-left-color: rgb(0, 0, 0); border-left-style: none; border-left-width: 0px; border-right-color: rgb(0, 0, 0); border-right-style: none; border-right-width: 0px; border-top-color: rgb(0, 0, 0); border-top-left-radius: 0px; border-top-right-radius: 0px; border-top-style: none; border-top-width: 0px; bottom: auto; box-shadow: none; box-sizing: content-box; break-after: auto; break-before: auto; break-inside: auto; caption-side: top; clear: none; clip: auto; color: rgb(0, 0, 0); content: ; cursor: auto; direction: ltr; display: inline; empty-cells: show; float: none; font-family: &quot;Lucida Grande&quot;, &quot;Lucida Sans Unicode&quot;, Arial, Helvetica, sans-serif; font-kerning: auto; font-size: 12px; font-stretch: normal; font-style: normal; font-variant: normal; font-variant-ligatures: normal; font-variant-caps: normal; font-variant-numeric: normal; font-weight: normal; height: 400px; image-rendering: auto; isolation: auto; left: auto; letter-spacing: normal; line-height: normal; list-style-image: none; list-style-position: outside; list-style-type: disc; margin-bottom: 0px; margin-left: 0px; margin-right: 0px; margin-top: 0px; max-height: none; max-width: none; min-height: 0px; min-width: 0px; mix-blend-mode: normal; object-fit: fill; object-position: 50% 50%; offset-distance: 0px; offset-path: none; offset-rotate: auto 0deg; offset-rotation: auto 0deg; opacity: 1; orphans: 2; outline-color: rgb(0, 0, 0); outline-offset: 0px; outline-style: none; outline-width: 0px; overflow-anchor: auto; overflow-wrap: normal; overflow-x: hidden; overflow-y: hidden; padding-bottom: 0px; padding-left: 0px; padding-right: 0px; padding-top: 0px; pointer-events: auto; position: static; resize: none; right: auto; speak: normal; table-layout: auto; tab-size: 8; text-align: left; text-align-last: auto; text-decoration: none; text-indent: 0px; text-rendering: auto; text-shadow: none; text-size-adjust: auto; text-overflow: clip; text-transform: none; top: auto; touch-action: auto; transition-delay: 0s; transition-duration: 0s; transition-property: all; transition-timing-function: ease; unicode-bidi: normal; vertical-align: baseline; visibility: visible; white-space: normal; widows: 2; width: 1904px; will-change: auto; word-break: normal; word-spacing: 0px; word-wrap: normal; z-index: auto; zoom: 1; -webkit-appearance: none; backface-visibility: visible; -webkit-background-clip: border-box; -webkit-background-origin: padding-box; -webkit-border-horizontal-spacing: 0px; -webkit-border-image: none; -webkit-border-vertical-spacing: 0px; -webkit-box-align: stretch; -webkit-box-decoration-break: slice; -webkit-box-direction: normal; -webkit-box-flex: 0; -webkit-box-flex-group: 1; -webkit-box-lines: single; -webkit-box-ordinal-group: 1; -webkit-box-orient: horizontal; -webkit-box-pack: start; -webkit-box-reflect: none; column-count: auto; column-gap: normal; column-rule-color: rgb(0, 0, 0); column-rule-style: none; column-rule-width: 0px; column-span: none; column-width: auto; align-content: stretch; align-items: stretch; align-self: stretch; flex-basis: auto; flex-grow: 0; flex-shrink: 1; flex-direction: row; flex-wrap: nowrap; justify-content: flex-start; -webkit-font-smoothing: auto; -webkit-highlight: none; hyphens: manual; -webkit-hyphenate-character: auto; -webkit-line-break: auto; -webkit-line-clamp: none; -webkit-locale: auto; -webkit-margin-before-collapse: collapse; -webkit-margin-after-collapse: collapse; -webkit-mask-box-image: none; -webkit-mask-box-image-outset: 0px; -webkit-mask-box-image-repeat: stretch; -webkit-mask-box-image-slice: 0 fill; -webkit-mask-box-image-source: none; -webkit-mask-box-image-width: auto; -webkit-mask-clip: border-box; -webkit-mask-composite: source-over; -webkit-mask-image: none; -webkit-mask-origin: border-box; -webkit-mask-position: 0% 0%; -webkit-mask-repeat: repeat; -webkit-mask-size: auto; order: 0; perspective: none; perspective-origin: 952px 200px; -webkit-print-color-adjust: economy; -webkit-rtl-ordering: logical; shape-outside: none; shape-image-threshold: 0; shape-margin: 0px; -webkit-tap-highlight-color: rgba(0, 0, 0, 0); -webkit-text-combine: none; -webkit-text-decorations-in-effect: none; -webkit-text-emphasis-color: rgb(0, 0, 0); -webkit-text-emphasis-position: over; -webkit-text-emphasis-style: none; -webkit-text-fill-color: rgb(0, 0, 0); -webkit-text-orientation: vertical-right; -webkit-text-security: none; -webkit-text-stroke-color: rgb(0, 0, 0); -webkit-text-stroke-width: 0px; transform: none; transform-origin: 952px 200px; transform-style: flat; -webkit-user-drag: auto; -webkit-user-modify: read-only; user-select: text; -webkit-writing-mode: horizontal-tb; -webkit-app-region: no-drag; buffered-rendering: auto; clip-path: none; clip-rule: nonzero; mask: none; filter: none; flood-color: rgb(0, 0, 0); flood-opacity: 1; lighting-color: rgb(255, 255, 255); stop-color: rgb(0, 0, 0); stop-opacity: 1; color-interpolation: sRGB; color-interpolation-filters: linearRGB; color-rendering: auto; fill: rgb(0, 0, 0); fill-opacity: 1; fill-rule: nonzero; marker-end: none; marker-mid: none; marker-start: none; mask-type: luminance; shape-rendering: auto; stroke: none; stroke-dasharray: none; stroke-dashoffset: 0px; stroke-linecap: butt; stroke-linejoin: miter; stroke-miterlimit: 4; stroke-opacity: 1; stroke-width: 1px; alignment-baseline: auto; baseline-shift: 0px; dominant-baseline: auto; text-anchor: start; writing-mode: horizontal-tb; vector-effect: none; paint-order: fill stroke markers; d: none; cx: 0px; cy: 0px; x: 0px; y: 0px; r: 0px; rx: auto; ry: auto;" version="1.1" xmlns:xlink="http://www.w3.org/1999/xlink"><style type="text/css"></style><svg xmlns="http://www.w3.org/2000/svg" version="1.1" class="highcharts-root" style="font-family:&quot;Lucida Grande&quot;, &quot;Lucida Sans Unicode&quot;, Arial, Helvetica, sans-serif;font-size:12px;"><desc>Created with Highcharts 5.0.7</desc><defs><clipPath id="highcharts-kzzciq2-1"><rect x="0" y="0" width="1704" height="299" fill="none"/></clipPath></defs><rect fill="#ffffff" class="highcharts-background" x="0" y="0" width="1904" height="400" rx="0" ry="0"/><rect fill="none" class="highcharts-plot-background" x="70" y="61" width="1704" height="299"/><g class="highcharts-grid highcharts-xaxis-grid "><path fill="none" class="highcharts-grid-line" d="M 211.5 61 L 211.5 360" opacity="1"/><path fill="none" class="highcharts-grid-line" d="M 353.5 61 L 353.5 360" opacity="1"/><path fill="none" class="highcharts-grid-line" d="M 495.5 61 L 495.5 360" opacity="1"/><path fill="none" class="highcharts-grid-line" d="M 637.5 61 L 637.5 360" opacity="1"/><path fill="none" class="highcharts-grid-line" d="M 779.5 61 L 779.5 360" opacity="1"/><path fill="none" class="highcharts-grid-line" d="M 921.5 61 L 921.5 360" opacity="1"/><path fill="none" class="highcharts-grid-line" d="M 1063.5 61 L 1063.5 360" opacity="1"/><path fill="none" class="highcharts-grid-line" d="M 1205.5 61 L 1205.5 360" opacity="1"/><path fill="none" class="highcharts-grid-line" d="M 1347.5 61 L 1347.5 360" opacity="1"/><path fill="none" class="highcharts-grid-line" d="M 1489.5 61 L 1489.5 360" opacity="1"/><path fill="none" class="highcharts-grid-line" d="M 1631.5 61 L 1631.5 360" opacity="1"/><path fill="none" class="highcharts-grid-line" d="M 1773.5 61 L 1773.5 360" opacity="1"/><path fill="none" class="highcharts-grid-line" d="M 69.5 61 L 69.5 360" opacity="1"/></g><g class="highcharts-grid highcharts-yaxis-grid "><path fill="none" stroke="#e6e6e6" stroke-width="1" class="highcharts-grid-line" d="M 70 360.5 L 1774 360.5" opacity="1"/><path fill="none" stroke="#e6e6e6" stroke-width="1" class="highcharts-grid-line" d="M 70 285.5 L 1774 285.5" opacity="1"/><path fill="none" stroke="#e6e6e6" stroke-width="1" class="highcharts-grid-line" d="M 70 211.5 L 1774 211.5" opacity="1"/><path fill="none" stroke="#e6e6e6" stroke-width="1" class="highcharts-grid-line" d="M 70 136.5 L 1774 136.5" opacity="1"/><path fill="none" stroke="#e6e6e6" stroke-width="1" class="highcharts-grid-line" d="M 70 60.5 L 1774 60.5" opacity="1"/></g><rect fill="none" class="highcharts-plot-border" x="70" y="61" width="1704" height="299"/><g class="highcharts-axis highcharts-xaxis "><path fill="none" class="highcharts-tick" stroke="#ccd6eb" stroke-width="1" d="M 211.5 360 L 211.5 370" opacity="1"/><path fill="none" class="highcharts-tick" stroke="#ccd6eb" stroke-width="1" d="M 353.5 360 L 353.5 370" opacity="1"/><path fill="none" class="highcharts-tick" stroke="#ccd6eb" stroke-width="1" d="M 495.5 360 L 495.5 370" opacity="1"/><path fill="none" class="highcharts-tick" stroke="#ccd6eb" stroke-width="1" d="M 637.5 360 L 637.5 370" opacity="1"/><path fill="none" class="highcharts-tick" stroke="#ccd6eb" stroke-width="1" d="M 779.5 360 L 779.5 370" opacity="1"/><path fill="none" class="highcharts-tick" stroke="#ccd6eb" stroke-width="1" d="M 921.5 360 L 921.5 370" opacity="1"/><path fill="none" class="highcharts-tick" stroke="#ccd6eb" stroke-width="1" d="M 1063.5 360 L 1063.5 370" opacity="1"/><path fill="none" class="highcharts-tick" stroke="#ccd6eb" stroke-width="1" d="M 1205.5 360 L 1205.5 370" opacity="1"/><path fill="none" class="highcharts-tick" stroke="#ccd6eb" stroke-width="1" d="M 1347.5 360 L 1347.5 370" opacity="1"/><path fill="none" class="highcharts-tick" stroke="#ccd6eb" stroke-width="1" d="M 1489.5 360 L 1489.5 370" opacity="1"/><path fill="none" class="highcharts-tick" stroke="#ccd6eb" stroke-width="1" d="M 1631.5 360 L 1631.5 370" opacity="1"/><path fill="none" class="highcharts-tick" stroke="#ccd6eb" stroke-width="1" d="M 1774.5 360 L 1774.5 370" opacity="1"/><path fill="none" class="highcharts-tick" stroke="#ccd6eb" stroke-width="1" d="M 69.5 360 L 69.5 370" opacity="1"/><path fill="none" class="highcharts-axis-line" stroke="#ccd6eb" stroke-width="1" d="M 70 360.5 L 1774 360.5"/></g><g class="highcharts-axis highcharts-yaxis "><text x="24.734375" text-anchor="middle" transform="translate(0,0) rotate(270 24.734375 210.5)" class="highcharts-axis-title" style="color:#666666;fill:#666666;" y="210.5">Hit</text><path fill="none" class="highcharts-axis-line" d="M 70 61 L 70 360"/></g><g class="highcharts-series-group"><g class="highcharts-series highcharts-series-0 highcharts-line-series highcharts-color-0 " transform="translate(70,61) scale(1 1)" clip-path="url(#highcharts-kzzciq2-1)"><path fill="none" d="M 71 171.925 L 213 172.6725 L 355 153.2375 L 497 115.86250000000001 L 639 88.20500000000001 L 781 63.53750000000002 L 923 35.879999999999995 L 1065 26.162500000000023 L 1207 50.08250000000004 L 1349 87.45750000000001 L 1491 120.34750000000003 L 1633 152.49" class="highcharts-graph" stroke="#7cb5ec" stroke-width="2" stroke-linejoin="round" stroke-linecap="round"/><path fill="none" d="M 61 171.925 L 71 171.925 L 213 172.6725 L 355 153.2375 L 497 115.86250000000001 L 639 88.20500000000001 L 781 63.53750000000002 L 923 35.879999999999995 L 1065 26.162500000000023 L 1207 50.08250000000004 L 1349 87.45750000000001 L 1491 120.34750000000003 L 1633 152.49 L 1643 152.49" stroke-linejoin="round" visibility="visible" stroke="rgba(192,192,192,0.0001)" stroke-width="22" class="highcharts-tracker"/></g><g class="highcharts-markers highcharts-series-0 highcharts-line-series highcharts-color-0 highcharts-tracker" transform="translate(70,61) scale(1 1)" clip-path="url(#highcharts-kzzciq2-2)"><path fill="#7cb5ec" d="M 75 172 A 4 4 0 1 1 74.99999800000016 171.99600000066667 Z" class="highcharts-point highcharts-color-0"/><path fill="#7cb5ec" d="M 217 173 A 4 4 0 1 1 216.99999800000018 172.99600000066667 Z" class="highcharts-point highcharts-color-0"/><path fill="#7cb5ec" d="M 359 153 A 4 4 0 1 1 358.9999980000002 152.99600000066667 Z" class="highcharts-point highcharts-color-0"/><path fill="#7cb5ec" d="M 501 116 A 4 4 0 1 1 500.9999980000002 115.99600000066667 Z" class="highcharts-point highcharts-color-0"/><path fill="#7cb5ec" d="M 643 88 A 4 4 0 1 1 642.9999980000001 87.99600000066667 Z" class="highcharts-point highcharts-color-0"/><path fill="#7cb5ec" d="M 785 64 A 4 4 0 1 1 784.9999980000001 63.99600000066666 Z" class="highcharts-point highcharts-color-0"/><path fill="#7cb5ec" d="M 927 36 A 4 4 0 1 1 926.9999980000001 35.99600000066666 Z" class="highcharts-point highcharts-color-0"/><path fill="#7cb5ec" d="M 1069 26 A 4 4 0 1 1 1068.9999980000002 25.996000000666665 Z" class="highcharts-point highcharts-color-0"/><path fill="#7cb5ec" d="M 1211 50 A 4 4 0 1 1 1210.9999980000002 49.99600000066666 Z" class="highcharts-point highcharts-color-0"/><path fill="#7cb5ec" d="M 1353 87 A 4 4 0 1 1 1352.9999980000002 86.99600000066667 Z" class="highcharts-point highcharts-color-0"/><path fill="#7cb5ec" d="M 1495 120 A 4 4 0 1 1 1494.9999980000002 119.99600000066667 Z" class="highcharts-point highcharts-color-0"/><path fill="#7cb5ec" d="M 1637 152 A 4 4 0 1 1 1636.9999980000002 151.99600000066667 Z" class="highcharts-point highcharts-color-0"/></g><g class="highcharts-series highcharts-series-1 highcharts-line-series highcharts-color-1 " transform="translate(70,61) scale(1 1)" clip-path="url(#highcharts-kzzciq2-1)"><path fill="none" d="M 71 225.745 L 213 218.26999999999998 L 355 181.6425 L 497 139.7825 L 639 97.17500000000001 L 781 59.80000000000001 L 923 38.87000000000006 L 1065 44.10249999999999 L 1207 74.0025 L 1349 118.85249999999999 L 1491 159.965 L 1633 205.5625" class="highcharts-graph" stroke="#434348" stroke-width="2" stroke-linejoin="round" stroke-linecap="round"/><path fill="none" d="M 61 225.745 L 71 225.745 L 213 218.26999999999998 L 355 181.6425 L 497 139.7825 L 639 97.17500000000001 L 781 59.80000000000001 L 923 38.87000000000006 L 1065 44.10249999999999 L 1207 74.0025 L 1349 118.85249999999999 L 1491 159.965 L 1633 205.5625 L 1643 205.5625" stroke-linejoin="round" visibility="visible" stroke="rgba(192,192,192,0.0001)" stroke-width="22" class="highcharts-tracker"/></g><g class="highcharts-markers highcharts-series-1 highcharts-line-series highcharts-color-1 highcharts-tracker" transform="translate(70,61) scale(1 1)" clip-path="url(#highcharts-kzzciq2-2)"><path fill="#434348" d="M 71 222 L 75 226 71 230 67 226 Z" class="highcharts-point highcharts-negative highcharts-color-1"/><path fill="#434348" d="M 213 214 L 217 218 213 222 209 218 Z" class="highcharts-point highcharts-color-1"/><path fill="#434348" d="M 355 178 L 359 182 355 186 351 182 Z" class="highcharts-point highcharts-color-1"/><path fill="#434348" d="M 497 136 L 501 140 497 144 493 140 Z" class="highcharts-point highcharts-color-1"/><path fill="#434348" d="M 639 93 L 643 97 639 101 635 97 Z" class="highcharts-point highcharts-color-1"/><path fill="#434348" d="M 781 56 L 785 60 781 64 777 60 Z" class="highcharts-point highcharts-color-1"/><path fill="#434348" d="M 923 35 L 927 39 923 43 919 39 Z" class="highcharts-point highcharts-color-1"/><path fill="#434348" d="M 1065 40 L 1069 44 1065 48 1061 44 Z" class="highcharts-point highcharts-color-1"/><path fill="#434348" d="M 1207 70 L 1211 74 1207 78 1203 74 Z" class="highcharts-point highcharts-color-1"/><path fill="#434348" d="M 1349 115 L 1353 119 1349 123 1345 119 Z" class="highcharts-point highcharts-color-1"/><path fill="#434348" d="M 1491 156 L 1495 160 1491 164 1487 160 Z" class="highcharts-point highcharts-color-1"/><path fill="#434348" d="M 1633 202 L 1637 206 1633 210 1629 206 Z" class="highcharts-point highcharts-color-1"/></g><g class="highcharts-series highcharts-series-2 highcharts-line-series highcharts-color-2 " transform="translate(70,61) scale(1 1)" clip-path="url(#highcharts-kzzciq2-1)"><path fill="none" d="M 71 230.97750000000002 L 213 219.765 L 355 198.0875 L 497 161.46 L 639 123.3375 L 781 97.17500000000001 L 923 85.215 L 1065 90.44750000000002 L 1207 117.35750000000002 L 1349 156.975 L 1491 195.0975 L 1633 216.775" class="highcharts-graph" stroke="#90ed7d" stroke-width="2" stroke-linejoin="round" stroke-linecap="round"/><path fill="none" d="M 61 230.97750000000002 L 71 230.97750000000002 L 213 219.765 L 355 198.0875 L 497 161.46 L 639 123.3375 L 781 97.17500000000001 L 923 85.215 L 1065 90.44750000000002 L 1207 117.35750000000002 L 1349 156.975 L 1491 195.0975 L 1633 216.775 L 1643 216.775" stroke-linejoin="round" visibility="visible" stroke="rgba(192,192,192,0.0001)" stroke-width="22" class="highcharts-tracker"/></g><g class="highcharts-markers highcharts-series-2 highcharts-line-series highcharts-color-2 highcharts-tracker" transform="translate(70,61) scale(1 1)" clip-path="url(#highcharts-kzzciq2-2)"><path fill="#90ed7d" d="M 67 227 L 75 227 75 235 67 235 Z" class="highcharts-point highcharts-negative highcharts-color-2"/><path fill="#90ed7d" d="M 209 216 L 217 216 217 224 209 224 Z" class="highcharts-point highcharts-color-2"/><path fill="#90ed7d" d="M 351 194 L 359 194 359 202 351 202 Z" class="highcharts-point highcharts-color-2"/><path fill="#90ed7d" d="M 493 157 L 501 157 501 165 493 165 Z" class="highcharts-point highcharts-color-2"/><path fill="#90ed7d" d="M 635 119 L 643 119 643 127 635 127 Z" class="highcharts-point highcharts-color-2"/><path fill="#90ed7d" d="M 777 93 L 785 93 785 101 777 101 Z" class="highcharts-point highcharts-color-2"/><path fill="#90ed7d" d="M 919 81 L 927 81 927 89 919 89 Z" class="highcharts-point highcharts-color-2"/><path fill="#90ed7d" d="M 1061 86 L 1069 86 1069 94 1061 94 Z" class="highcharts-point highcharts-color-2"/><path fill="#90ed7d" d="M 1203 113 L 1211 113 1211 121 1203 121 Z" class="highcharts-point highcharts-color-2"/><path fill="#90ed7d" d="M 1345 153 L 1353 153 1353 161 1345 161 Z" class="highcharts-point highcharts-color-2"/><path fill="#90ed7d" d="M 1487 191 L 1495 191 1495 199 1487 199 Z" class="highcharts-point highcharts-color-2"/><path fill="#90ed7d" d="M 1629 213 L 1637 213 1637 221 1629 221 Z" class="highcharts-point highcharts-color-2"/></g><g class="highcharts-series highcharts-series-3 highcharts-line-series highcharts-color-3 " transform="translate(70,61) scale(1 1)" clip-path="url(#highcharts-kzzciq2-1)"><path fill="none" d="M 71 195.0975 L 213 192.85500000000002 L 355 181.6425 L 497 160.7125 L 639 135.2975 L 781 110.63000000000002 L 923 97.17500000000001 L 1065 100.16499999999999 L 1207 118.10500000000002 L 1349 147.2575 L 1491 174.915 L 1633 188.37" class="highcharts-graph" stroke="#f7a35c" stroke-width="2" stroke-linejoin="round" stroke-linecap="round"/><path fill="none" d="M 61 195.0975 L 71 195.0975 L 213 192.85500000000002 L 355 181.6425 L 497 160.7125 L 639 135.2975 L 781 110.63000000000002 L 923 97.17500000000001 L 1065 100.16499999999999 L 1207 118.10500000000002 L 1349 147.2575 L 1491 174.915 L 1633 188.37 L 1643 188.37" stroke-linejoin="round" visibility="visible" stroke="rgba(192,192,192,0.0001)" stroke-width="22" class="highcharts-tracker"/></g><g class="highcharts-markers highcharts-series-3 highcharts-line-series highcharts-color-3 highcharts-tracker" transform="translate(70,61) scale(1 1)" clip-path="none"><path fill="#f7a35c" d="M 71 191 L 75 199 67 199 Z" class="highcharts-point highcharts-color-3"/><path fill="#f7a35c" d="M 213 189 L 217 197 209 197 Z" class="highcharts-point highcharts-color-3"/><path fill="#f7a35c" d="M 355 178 L 359 186 351 186 Z" class="highcharts-point highcharts-color-3"/><path fill="#f7a35c" d="M 497 157 L 501 165 493 165 Z" class="highcharts-point highcharts-color-3"/><path fill="#f7a35c" d="M 639 131 L 643 139 635 139 Z" class="highcharts-point highcharts-color-3"/><path fill="#f7a35c" d="M 781 107 L 785 115 777 115 Z" class="highcharts-point highcharts-color-3"/><path fill="#f7a35c" d="M 923 93 L 927 101 919 101 Z" class="highcharts-point highcharts-color-3"/><path fill="#f7a35c" d="M 1065 96 L 1069 104 1061 104 Z" class="highcharts-point highcharts-color-3"/><path fill="#f7a35c" d="M 1207 114 L 1211 122 1203 122 Z" class="highcharts-point highcharts-color-3"/><path fill="#f7a35c" d="M 1349 143 L 1353 151 1345 151 Z" class="highcharts-point highcharts-color-3"/><path fill="#f7a35c" d="M 1491 171 L 1495 179 1487 179 Z" class="highcharts-point highcharts-color-3"/><path fill="#f7a35c" d="M 1633 184 L 1637 192 1629 192 Z" class="highcharts-point highcharts-color-3"/></g></g><text x="932" text-anchor="middle" class="highcharts-title" style="color:#333333;font-size:18px;fill:#333333;" y="24"><tspan>Line chart example</tspan></text><text x="932" text-anchor="middle" class="highcharts-subtitle" style="color:#666666;fill:#666666;" y="45"><tspan>This is an example</tspan></text><g class="highcharts-legend" transform="translate(1788,110)"><rect fill="none" class="highcharts-legend-box" rx="0" ry="0" x="0" y="0" width="96" height="71" visibility="visible"/><g><g><g class="highcharts-legend-item highcharts-line-series highcharts-color-0 highcharts-series-0" transform="translate(8,3)"><path fill="none" d="M 0 11 L 16 11" class="highcharts-graph" stroke="#7cb5ec" stroke-width="2"/><path fill="#7cb5ec" d="M 12 11 A 4 4 0 1 1 11.999998000000167 10.996000000666664 Z" class="highcharts-point"/><text x="21" style="color:#333333;font-size:12px;font-weight:bold;cursor:pointer;fill:#333333;" text-anchor="start" y="15">Tokyo</text></g><g class="highcharts-legend-item highcharts-line-series highcharts-color-1 highcharts-series-1" transform="translate(8,18)"><path fill="none" d="M 0 11 L 16 11" class="highcharts-graph" stroke="#434348" stroke-width="2"/><path fill="#434348" d="M 8 7 L 12 11 8 15 4 11 Z" class="highcharts-point"/><text x="21" y="15" style="color:#333333;font-size:12px;font-weight:bold;cursor:pointer;fill:#333333;" text-anchor="start"><tspan>New York</tspan></text></g><g class="highcharts-legend-item highcharts-line-series highcharts-color-2 highcharts-series-2" transform="translate(8,33)"><path fill="none" d="M 0 11 L 16 11" class="highcharts-graph" stroke="#90ed7d" stroke-width="2"/><path fill="#90ed7d" d="M 4 7 L 12 7 12 15 4 15 Z" class="highcharts-point"/><text x="21" y="15" style="color:#333333;font-size:12px;font-weight:bold;cursor:pointer;fill:#333333;" text-anchor="start">Berlin</text></g><g class="highcharts-legend-item highcharts-line-series highcharts-color-3 highcharts-series-3" transform="translate(8,48)"><path fill="none" d="M 0 11 L 16 11" class="highcharts-graph" stroke="#f7a35c" stroke-width="2"/><path fill="#f7a35c" d="M 8 7 L 12 15 4 15 Z" class="highcharts-point"/><text x="21" y="15" style="color:#333333;font-size:12px;font-weight:bold;cursor:pointer;fill:#333333;" text-anchor="start">London</text></g></g></g></g><g class="highcharts-axis-labels highcharts-xaxis-labels "><text x="141" style="color:#666666;cursor:default;font-size:11px;fill:#666666;" text-anchor="middle" transform="translate(0,0)" y="379" opacity="1"><tspan>Jan</tspan></text><text x="283" style="color:#666666;cursor:default;font-size:11px;fill:#666666;" text-anchor="middle" transform="translate(0,0)" y="379" opacity="1"><tspan>Feb</tspan></text><text x="425" style="color:#666666;cursor:default;font-size:11px;fill:#666666;" text-anchor="middle" transform="translate(0,0)" y="379" opacity="1"><tspan>Mar</tspan></text><text x="567" style="color:#666666;cursor:default;font-size:11px;fill:#666666;" text-anchor="middle" transform="translate(0,0)" y="379" opacity="1"><tspan>Apr</tspan></text><text x="709" style="color:#666666;cursor:default;font-size:11px;fill:#666666;" text-anchor="middle" transform="translate(0,0)" y="379" opacity="1"><tspan>May</tspan></text><text x="851" style="color:#666666;cursor:default;font-size:11px;fill:#666666;" text-anchor="middle" transform="translate(0,0)" y="379" opacity="1"><tspan>Jun</tspan></text><text x="993" style="color:#666666;cursor:default;font-size:11px;fill:#666666;" text-anchor="middle" transform="translate(0,0)" y="379" opacity="1"><tspan>Jul</tspan></text><text x="1135" style="color:#666666;cursor:default;font-size:11px;fill:#666666;" text-anchor="middle" transform="translate(0,0)" y="379" opacity="1"><tspan>Aug</tspan></text><text x="1277" style="color:#666666;cursor:default;font-size:11px;fill:#666666;" text-anchor="middle" transform="translate(0,0)" y="379" opacity="1"><tspan>Sep</tspan></text><text x="1419" style="color:#666666;cursor:default;font-size:11px;fill:#666666;" text-anchor="middle" transform="translate(0,0)" y="379" opacity="1"><tspan>Oct</tspan></text><text x="1561" style="color:#666666;cursor:default;font-size:11px;fill:#666666;" text-anchor="middle" transform="translate(0,0)" y="379" opacity="1"><tspan>Nov</tspan></text><text x="1703" style="color:#666666;cursor:default;font-size:11px;fill:#666666;" text-anchor="middle" transform="translate(0,0)" y="379" opacity="1"><tspan>Dec</tspan></text></g><g class="highcharts-axis-labels highcharts-yaxis-labels "><text x="55" style="color:#666666;cursor:default;font-size:11px;fill:#666666;" text-anchor="end" transform="translate(0,0)" y="365" opacity="1"><tspan>-10</tspan></text><text x="55" style="color:#666666;cursor:default;font-size:11px;fill:#666666;" text-anchor="end" transform="translate(0,0)" y="290" opacity="1"><tspan>0</tspan></text><text x="55" style="color:#666666;cursor:default;font-size:11px;fill:#666666;" text-anchor="end" transform="translate(0,0)" y="215" opacity="1"><tspan>10</tspan></text><text x="55" style="color:#666666;cursor:default;font-size:11px;fill:#666666;" text-anchor="end" transform="translate(0,0)" y="140" opacity="1"><tspan>20</tspan></text><text x="55" style="color:#666666;cursor:default;font-size:11px;fill:#666666;" text-anchor="end" transform="translate(0,0)" y="66" opacity="1"><tspan>30</tspan></text></g><text x="1894" class="highcharts-credits" text-anchor="end" style="cursor:pointer;color:#999999;font-size:9px;fill:#999999;" y="395">Highcharts.com</text></svg></svg>