<?xml version="1.0" encoding="utf-8"?>
<!-- Generator: Adobe Illustrator 20.1.0, SVG Export Plug-In . SVG Version: 6.00 Build 0)  -->
<svg version="1.1" id="Layer_1" xmlns="http://www.w3.org/2000/svg" xmlns:xlink="http://www.w3.org/1999/xlink" x="0px" y="0px"
	 viewBox="0 0 510.1 506.2" style="enable-background:new 0 0 510.1 506.2;" xml:space="preserve">
<style type="text/css">
	.st0{fill:#473080;}
	.st1{fill:#0CAFE8;}
	.st2{fill:#0B90D3;}
	.st3{fill:#FFFFFF;}
	.st4{fill:#F9A74E;}
	.st5{opacity:0.2;fill:#382673;enable-background:new    ;}
	.st6{fill:#FFDE39;}
	.st7{fill:#FEC632;}
	.st8{fill:none;stroke:#F9A74E;stroke-width:4;stroke-linecap:round;stroke-linejoin:round;}
	.st9{fill:none;stroke:#FEC632;stroke-width:4;stroke-linecap:round;stroke-linejoin:round;}
	
		.st10{opacity:0.3;fill:none;stroke:#FFFFFF;stroke-width:2;stroke-linecap:round;stroke-linejoin:round;enable-background:new    ;}
	.st11{enable-background:new    ;}
</style>
<title>prize</title>
<circle class="st0" cx="256" cy="316.8" r="189.4"/>
<path class="st1" d="M339.1,489.4H172.9v-74.8c0-4.6,3.7-8.3,8.3-8.3h149.6c4.6,0,8.3,3.7,8.3,8.3V489.4z"/>
<polygon class="st2" points="351.6,501.8 160.4,501.8 164.6,489.4 347.5,489.4 "/>
<path class="st3" d="M289.3,472.7h-66.5c-9.2,0-16.6-7.5-16.6-16.6v-12.5c0-9.2,7.5-16.6,16.6-16.6h66.5c9.2,0,16.6,7.5,16.6,16.6
	v12.5C305.9,465.3,298.4,472.7,289.3,472.7z"/>
<rect x="234.4" y="316.9" class="st4" width="43.7" height="68.6"/>
<rect x="265.1" y="316.9" class="st5" width="12.5" height="68.6"/>
<path class="st6" d="M293.4,381.3h-74.8c-13.8,0-24.9,11.2-24.9,24.9h124.7C318.3,392.5,307.2,381.3,293.4,381.3z"/>
<path class="st7" d="M293.4,381.3h-20.8c13.8,0,24.9,11.2,24.9,24.9h20.8C318.3,392.5,307.2,381.3,293.4,381.3z"/>
<path class="st6" d="M277.2,352.2h-42.4c-11.2,0-20.4-9.1-20.4-20.4v-4.6h83.1v4.6C297.5,343,288.4,352.2,277.2,352.2z"/>
<path class="st7" d="M280.9,327.2v4.6c0,11.2-5,20.4-16.2,20.4h12.5c11.2,0,20.4-9.1,20.4-20.4v-4.6H280.9z"/>
<path class="st4" d="M326.7,406.2H185.3c0-4.6,3.7-8.3,8.3-8.3h124.7C322.9,397.9,326.6,401.6,326.7,406.2L326.7,406.2z"/>
<path class="st5" d="M318.4,397.9h-20.8c4.6,0,8.3,3.7,8.3,8.3h20.8C326.6,401.6,322.9,397.9,318.4,397.9z"/>
<path class="st4" d="M305.9,318.9h-99.8v12.5c0,4.6,3.7,8.3,8.3,8.3h83.1c4.6,0,8.3-3.7,8.3-8.3L305.9,318.9z"/>
<path class="st4" d="M305.9,318.9h-99.8v12.5c0,4.6,3.7,8.3,8.3,8.3h83.1c4.6,0,8.3-3.7,8.3-8.3L305.9,318.9z"/>
<path class="st5" d="M285.1,318.9l-8.3,12.5c4.2,0,4.6,8.3,0,8.3h20.8c4.6,0,8.3-3.7,8.3-8.3v-12.5H285.1z"/>
<path class="st8" d="M314.2,185.9h79v4.2c0,43.6-35.3,79-78.9,79c0,0-0.1,0-0.1,0l0,0"/>
<path class="st9" d="M197.8,185.9h-79v4.2c0,43.6,35.3,79,78.9,79c0,0,0.1,0,0.1,0l0,0"/>
<path class="st6" d="M291.3,331.4h-70.7c-26.3,0.1-47.7-21-47.8-47.3c0-0.2,0-0.3,0-0.5V152.7h166.3v130.9
	c0.2,26.3-21,47.7-47.3,47.8C291.7,331.4,291.5,331.4,291.3,331.4z"/>
<path class="st10" d="M197.8,165.1v83.1"/>
<polygon class="st4" points="351.6,152.7 160.4,152.7 172.9,165.1 339.1,165.1 "/>
<polygon class="st5" points="326.7,152.7 318.4,165.1 339.1,165.1 351.6,152.7 "/>
<path class="st6" d="M355.8,136H156.2c-4.6,0-8.3,3.7-8.3,8.3l0,0c0,4.6,3.7,8.3,8.3,8.3h199.5c4.6,0,8.3-3.7,8.3-8.3l0,0
	C364.1,139.8,360.3,136.1,355.8,136z"/>
<path class="st7" d="M355.8,136h-24.9c4.6,0,8.3,3.7,8.3,8.3s-3.7,8.3-8.3,8.3h24.9c4.6,0,8.3-3.7,8.3-8.3S360.4,136,355.8,136z"/>
<line class="st10" x1="197.8" y1="266.6" x2="197.8" y2="276.1"/>
<path class="st3" d="M193.2,121.1l2.5-6.2c0.8-1.7,3.3-1.7,3.7,0l2.5,6.2c2,4.9,5.9,8.8,10.8,10.8l6.2,2.5c1.7,0.8,1.7,3.3,0,3.7
	l-6.2,2.4c-4.9,2-8.8,5.9-10.8,10.9l-2.5,6.2c-0.8,1.7-3.3,1.7-3.7,0l-2.5-6.2c-2-4.9-5.9-8.9-10.8-10.9l-6.2-2.5
	c-1.7-0.8-1.7-3.3,0-3.7l6.2-2.5C187.3,129.8,191.2,126,193.2,121.1z"/>
<path class="st7" d="M256,258.7l17.9,9.6c2.5,1.3,5.8-0.8,5.4-3.7l-3.7-20.4l14.5-14.1c1.4-1.5,1.4-3.8-0.1-5.3
	c-0.5-0.5-1.2-0.9-2-1l-20-2.9l-9.1-18.3c-0.9-1.7-3-2.4-4.8-1.5c-0.6,0.3-1.1,0.8-1.5,1.5l-9.1,18.3l-20,2.9
	c-2,0.3-3.4,2.3-3.1,4.3c0.1,0.7,0.5,1.4,1,2l14.6,14.1l-3.3,20c-0.4,2.9,2.5,5,5.4,3.7L256,258.7z"/>
<g class="st11">
	<path class="st7" d="M20.6,10.7c1.9,0,2.7,0.8,2.7,2.7v3c0,1.9-0.8,2.7-2.7,2.7h-5.3c-1.4,0-2.1,0.8-2.1,2.1v1.1h8.3
		c1.9,0,2.7,0.8,2.7,2.7v11.3c0,1.9-0.8,2.7-2.7,2.7H6.2c-1.9,0-2.7-0.8-2.7-2.7V22.2c0-7.8,4.4-11.5,11.3-11.5H20.6z M45,10.7
		c1.9,0,2.7,0.8,2.7,2.7v3c0,1.9-0.8,2.7-2.7,2.7h-5.3c-1.4,0-2.1,0.8-2.1,2.1v1.1H46c1.9,0,2.7,0.8,2.7,2.7v11.3
		c0,1.9-0.8,2.7-2.7,2.7H30.6c-1.9,0-2.7-0.8-2.7-2.7V22.2c0-7.8,4.4-11.5,11.3-11.5H45z"/>
</g>
<g class="st11">
	<path class="st7" d="M69.4,65.5H58.2c-1.9,0-2.7-0.8-2.7-2.7V42.7c0-3,0.9-6.9,3-12.2l6.6-17.3c0.6-1.8,1.8-2.5,3.9-2.5h20.5
		c2,0,3.2,0.8,3.8,2.5l6.6,17.3c2.1,5.3,3,9.1,3,12.2v20.1c0,1.9-0.8,2.7-2.7,2.7H88.6c-2.1,0-3-0.8-3-2.7V52.1H72.2v10.7
		C72.2,64.7,71.3,65.5,69.4,65.5z M72.9,38.3h12l-3.6-11.6c-0.4-0.9-0.8-1.3-1.4-1.3H78c-0.6,0-1.1,0.4-1.4,1.3L72.9,38.3z"/>
	<path class="st7" d="M125.1,65.5h-11.2c-1.9,0-2.7-0.8-2.7-2.7V42.7c0-3,0.9-6.9,3-12.2l6.6-17.3c0.6-1.8,1.8-2.5,3.9-2.5h20.5
		c2,0,3.2,0.8,3.8,2.5l6.6,17.3c2.1,5.3,3,9.1,3,12.2v20.1c0,1.9-0.8,2.7-2.7,2.7h-11.5c-2.1,0-3-0.8-3-2.7V52.1h-13.5v10.7
		C127.8,64.7,127,65.5,125.1,65.5z M128.6,38.3h12l-3.6-11.6c-0.4-0.9-0.8-1.3-1.4-1.3h-1.9c-0.6,0-1.1,0.4-1.4,1.3L128.6,38.3z"/>
</g>
<g class="st11">
	<path class="st7" d="M180.7,65.5h-11.2c-1.9,0-2.7-0.8-2.7-2.7V42.7c0-3,0.9-6.9,3-12.2l6.6-17.3c0.6-1.8,1.8-2.5,3.9-2.5h20.5
		c2,0,3.2,0.8,3.8,2.5l6.6,17.3c2.1,5.3,3,9.1,3,12.2v20.1c0,1.9-0.8,2.7-2.7,2.7h-11.5c-2.1,0-3-0.8-3-2.7V52.1h-13.5v10.7
		C183.4,64.7,182.6,65.5,180.7,65.5z M184.2,38.3h12l-3.6-11.6c-0.4-0.9-0.8-1.3-1.4-1.3h-1.9c-0.6,0-1.1,0.4-1.4,1.3L184.2,38.3z"
		/>
	<path class="st7" d="M223.9,39.3c-1.9,0-2.7-0.8-2.7-2.7v-3c0-1.9,0.8-2.7,2.7-2.7h5.3c1.4,0,2.1-0.8,2.1-2.1v-1.1h-8.3
		c-1.9,0-2.7-0.8-2.7-2.7V13.4c0-1.9,0.8-2.7,2.7-2.7h15.4c1.9,0,2.7,0.8,2.7,2.7v14.3c0,7.8-4.4,11.5-11.3,11.5H223.9z M248.3,39.3
		c-1.9,0-2.7-0.8-2.7-2.7v-3c0-1.9,0.8-2.7,2.7-2.7h5.3c1.4,0,2.1-0.8,2.1-2.1v-1.1h-8.3c-1.9,0-2.7-0.8-2.7-2.7V13.4
		c0-1.9,0.8-2.7,2.7-2.7h15.4c1.9,0,2.7,0.8,2.7,2.7v14.3c0,7.8-4.4,11.5-11.3,11.5H248.3z"/>
</g>
<g class="st11">
	<path class="st7" d="M309.2,65.5c-12.8,0-18.7-5-18.7-15.5V26.2c0-10.6,5.9-15.5,18.7-15.5h19.1c1.9,0,2.7,0.8,2.7,2.7v9.2
		c0,1.9-0.8,2.7-2.7,2.7h-15.8c-3.2,0-4.6,1.2-4.6,3.8v18.2c0,2.6,1.1,3.7,3.5,3.7h7.4V39.3c0-1.9,0.8-2.7,2.7-2.7h11.8
		c1.9,0,2.7,0.8,2.7,2.7v23.5c0,1.9-0.8,2.7-2.7,2.7H309.2z"/>
	<path class="st7" d="M358,65.5h-11.2c-1.9,0-2.7-0.8-2.7-2.7V42.7c0-3,0.9-6.9,3-12.2l6.6-17.3c0.6-1.8,1.8-2.5,3.9-2.5h20.5
		c2,0,3.2,0.8,3.8,2.5l6.6,17.3c2.1,5.3,3,9.1,3,12.2v20.1c0,1.9-0.8,2.7-2.7,2.7h-11.5c-2.1,0-3-0.8-3-2.7V52.1h-13.5v10.7
		C360.8,64.7,359.9,65.5,358,65.5z M361.5,38.3h12l-3.6-11.6c-0.4-0.9-0.8-1.3-1.4-1.3h-1.9c-0.6,0-1.1,0.4-1.4,1.3L361.5,38.3z"/>
	<path class="st7" d="M403.6,65.5c-1.9,0-2.7-0.8-2.7-2.7V13.4c0-1.9,0.8-2.7,2.7-2.7h12.3c1.6,0,2.6,0.6,3.5,2.3l6.9,12.4
		c0.5,0.9,0.8,1.3,1.4,1.3h0.7c0.6,0,0.8-0.4,1.4-1.3l6.8-12.4c0.9-1.7,1.9-2.3,3.5-2.3h12.3c1.9,0,2.7,0.8,2.7,2.7v49.4
		c0,1.9-0.8,2.7-2.7,2.7h-11.7c-2,0-2.7-0.8-2.7-2.7V36l-4.5,8.3c-0.9,1.8-2.1,2.4-4,2.4h-3c-2,0-3.1-0.7-4-2.4l-4.5-8.3v26.8
		c0,1.9-0.8,2.7-2.7,2.7H403.6z"/>
	<path class="st7" d="M468.3,65.5c-1.9,0-2.7-0.8-2.7-2.7V13.4c0-1.9,0.8-2.7,2.7-2.7h35.4c1.9,0,2.7,0.8,2.7,2.7v8.9
		c0,1.9-0.8,2.7-2.7,2.7h-21v5.9h14.9c1.9,0,2.7,0.8,2.7,2.7v8.2c0,1.9-0.8,2.7-2.7,2.7h-14.9v6.6h21c1.9,0,2.7,0.8,2.7,2.7v8.9
		c0,1.9-0.8,2.7-2.7,2.7H468.3z"/>
</g>
</svg>
