<svg xmlns="http://www.w3.org/2000/svg" width="90" height="89.9" viewBox="0 0 90 89.9">
  <defs>
    <style>
      .a {
        fill: #fff;
      }
    </style>
  </defs>
  <title>icon__download</title>
  <g>
    <path class="a" d="M88.9,24.9l-6.3-6.3a.67.67,0,0,0-1,0L50.2,50V.7a.68.68,0,0,0-.7-.7H40.6a.68.68,0,0,0-.7.7V50.5l-32-32a.67.67,0,0,0-1,0L.5,24.9a.67.67,0,0,0,0,1L37.9,63.3l6.3,6.3a.67.67,0,0,0,1,0l6.3-6.3L88.9,25.9A.67.67,0,0,0,88.9,24.9Z"/>
    <path class="a" d="M89,79H1a.94.94,0,0,0-1,1v8.9a1,1,0,0,0,1,1H89a1,1,0,0,0,1-1V80A.94.94,0,0,0,89,79Z"/>
  </g>
</svg>
