<svg xmlns="http://www.w3.org/2000/svg" width="84.86" height="84.87" viewBox="0 0 84.86 84.87">
  <defs>
    <style>
      .a {
        fill: #fff;
      }
    </style>
  </defs>
  <title>icon__book</title>
  <polyline class="a" points="32.06 53.14 13.2 45.59 13.2 51.98 32.06 59.52 32.06 53.14"/>
  <polyline class="a" points="32.06 33.55 13.2 26.01 13.2 32.39 32.06 39.94 32.06 33.55"/>
  <path class="a" d="M82.8.81A4.72,4.72,0,0,0,78.4.34l-36,14.38L6.47.34A4.71,4.71,0,0,0,0,4.71V65.07a4.7,4.7,0,0,0,3,4.37L40.6,84.5s.77.25.92.27a4.61,4.61,0,0,0,.91.1,4.8,4.8,0,0,0,.92-.1c.14,0,.92-.27.92-.27L81.9,69.44a4.7,4.7,0,0,0,3-4.37V4.71A4.7,4.7,0,0,0,82.8.81ZM37.72,75.22,7.54,63.15V10.31L37.72,22.38V75.22Zm39.6-12.07L47.15,75.22V22.38L77.32,10.31Z"/>
  <polyline class="a" points="71.67 45.59 52.8 53.14 52.8 59.52 71.67 51.98 71.67 45.59"/>
  <polyline class="a" points="71.67 26.01 52.8 33.55 52.8 39.94 71.67 32.39 71.67 26.01"/>
</svg>
