<svg xmlns="http://www.w3.org/2000/svg" width="90.96" height="81.79" viewBox="0 0 90.96 81.79">
  <title>icon__eyes</title>
  <g>
    <path d="M43.5,64.27c-2.5,9.41-8,16.1-15,16.88C17.56,82.37,7.09,68.87,5.09,51s5.24-33.34,16.16-34.56c10-1.12,19.56,10,22.67,25.58a7.24,7.24,0,0,1,.66-1.47C41.28,24.48,31.33,13,21,14.14c-11.38,1.27-18.92,17.4-16.84,36s13,32.7,24.38,31.43c7-.78,12.55-7.2,15.3-16.36C43.71,64.92,43.6,64.59,43.5,64.27Z"/>
    <ellipse cx="26.15" cy="67.07" rx="5.53" ry="10.14" transform="translate(-13.38 6.91) rotate(-12.01)"/>
    <path d="M83.66,51.86C80.34,70.31,68.51,83.62,57.24,81.59S39.51,63,42.84,44.51,58,12.75,69.27,14.78,87,33.41,83.66,51.86Zm-14.8-34.8C58,15.11,46.69,27.88,43.5,45.58s3,33.62,13.82,35.56S79.48,70.32,82.67,52.63,79.67,19,68.86,17.06Zm-6.17,40c-3-.52-6.21,3.54-7.15,9.07s.74,10.41,3.75,10.92S65.5,73.51,66.44,68,65.71,57.58,62.69,57.07Z"/>
    <path d="M0,14.06A18.62,18.62,0,0,1,6.6,4.72a22.36,22.36,0,0,1,11-4.53A24.53,24.53,0,0,1,29.24,1.6a24.74,24.74,0,0,1,9.48,6.22C35,7.24,31.5,6.54,28.11,6.18a41.06,41.06,0,0,0-9.78,0A32.57,32.57,0,0,0,9.06,8.72,49,49,0,0,0,0,14.06Z"/>
    <path d="M52.17,9.29A18.71,18.71,0,0,1,61.3,2.38a22.42,22.42,0,0,1,11.83-1A24.63,24.63,0,0,1,83.82,6.28,24.81,24.81,0,0,1,91,15.08c-3.41-1.69-6.49-3.41-9.61-4.78a42.07,42.07,0,0,0-9.31-3A32.79,32.79,0,0,0,62.43,7,48.39,48.39,0,0,0,52.17,9.29Z"/>
  </g>
</svg>
